<svg width="1796" height="882" viewBox="0 0 1796 882" fill="none" xmlns="http://www.w3.org/2000/svg">
<path opacity="0.41" d="M1518.3 50.5999C1480.9 45.1999 1437.3 51.4999 1401.6 57.2999C1357.7 64.4999 1314.6 77.7999 1275.5 99.0999C1202.2 139.1 1143.1 210.2 1131.2 292.9C1129.4 305.7 1128.7 318.9 1132.5 331.2C1138 349.2 1152.6 363.3 1168.8 373C1208.2 396.6 1256.6 398.2 1302.5 396.8C1348.4 395.4 1395.7 391.8 1439 407C1482.3 422.2 1520.9 462.5 1517.4 508.2C1513.7 556.4 1466 595.4 1470.6 643.6C1474.3 681.9 1511.5 709.6 1549.2 717C1576.8 722.4 1605.9 719.5 1631.9 708.8C1652.8 700.2 1671.4 686.8 1688.7 672.2C1737.5 630.8 1777.9 576.4 1790.8 513.7C1798.7 475.5 1796.2 435.9 1790.6 397.3C1781.1 331.6 1762.4 266.9 1733.4 207.2C1695.8 129.9 1615.9 73.7999 1533 53.3999C1528.2 52.2999 1523.3 51.2999 1518.3 50.5999Z" fill="#181233"/>
<path opacity="0.41" d="M130 124.9C8.09997 253.4 -32.5 453.1 29.6 619C41.8 651.5 58.3 683.7 85.5 705.2C112.7 726.7 152.7 735 182.7 717.6C216.3 698.1 227.2 652.9 220 614.7C212.7 576.5 191.5 542.7 173.8 508C156.1 473.3 141.4 434.5 148.7 396.3C155.8 359.3 183.3 328.4 216 309.7C248.7 291 286.4 282.8 323.8 277.7C373.5 270.8 425.6 268.1 469.2 243.4C512.8 218.6 544 162.4 521.6 117.6C514.1 102.6 501.6 90.5999 488.2 80.4999C381.9 -5.34058e-05 217.6 32.7 130 124.9Z" fill="#181233"/>
<path opacity="0.41" d="M306.3 331.2C262.4 342.3 225.1 388.5 238.4 431.9C247.9 462.7 278.1 482 295.4 509.2C305.1 524.4 310.7 542.1 311.5 560.1C314.7 633.9 241 690.6 231.7 763.8C229.7 779.4 231 796 238.7 809.7C246.8 824 261.3 833.8 276.2 840.6C321.1 861.1 374.4 859.6 420.3 841.6C466.2 823.6 505.1 790.1 534.7 750.6C546.9 734.3 557.7 716.8 564.6 697.7C578.4 659.7 576.2 617.5 567.9 577.9C543.7 463.5 447.4 295.6 306.3 331.2Z" fill="#0E0B23"/>
<path opacity="0.41" d="M1141.8 516.9C1126.2 536.8 1113.6 559.8 1109.7 584.8C1105.8 609.8 1111.7 637.1 1128.9 655.7C1151 679.6 1188.6 687.1 1205.2 715.1C1229.2 755.6 1194.4 812.2 1217.8 853.1C1235.3 883.7 1280.3 889.5 1311.2 872.4C1342.1 855.3 1360.4 821.9 1370.8 788.2C1375.1 774.3 1378.3 759.7 1376 745.3C1372.5 723.6 1357.1 706.2 1344.8 688C1332.5 669.8 1322.7 646.5 1331.6 626.4C1340.8 605.6 1367.2 595.7 1374.3 574.1C1383.2 547.1 1356.8 521.4 1331.1 509.3C1264.2 477.8 1196.1 447.8 1141.8 516.9Z" fill="#0E0B23"/>
</svg>
