<svg width="1861" height="963" viewBox="0 0 1861 963" fill="none" xmlns="http://www.w3.org/2000/svg">
<path d="M1629.9 287.7C1632.55 287.7 1634.7 285.551 1634.7 282.9C1634.7 280.249 1632.55 278.1 1629.9 278.1C1627.25 278.1 1625.1 280.249 1625.1 282.9C1625.1 285.551 1627.25 287.7 1629.9 287.7Z" fill="white"/>
<path d="M1421.6 353.5C1424.25 353.5 1426.4 351.351 1426.4 348.7C1426.4 346.049 1424.25 343.9 1421.6 343.9C1418.95 343.9 1416.8 346.049 1416.8 348.7C1416.8 351.351 1418.95 353.5 1421.6 353.5Z" fill="white"/>
<path d="M1427.7 276.2C1430.35 276.2 1432.5 274.051 1432.5 271.4C1432.5 268.749 1430.35 266.6 1427.7 266.6C1425.05 266.6 1422.9 268.749 1422.9 271.4C1422.9 274.051 1425.05 276.2 1427.7 276.2Z" fill="white"/>
<path d="M1518.5 269C1520.05 269 1521.3 267.746 1521.3 266.2C1521.3 264.654 1520.05 263.4 1518.5 263.4C1516.95 263.4 1515.7 264.654 1515.7 266.2C1515.7 267.746 1516.95 269 1518.5 269Z" fill="white"/>
<path d="M1574.4 268C1575.95 268 1577.2 266.746 1577.2 265.2C1577.2 263.654 1575.95 262.4 1574.4 262.4C1572.85 262.4 1571.6 263.654 1571.6 265.2C1571.6 266.746 1572.85 268 1574.4 268Z" fill="white"/>
<path d="M1458.5 302.3C1460.05 302.3 1461.3 301.046 1461.3 299.5C1461.3 297.954 1460.05 296.7 1458.5 296.7C1456.95 296.7 1455.7 297.954 1455.7 299.5C1455.7 301.046 1456.95 302.3 1458.5 302.3Z" fill="white"/>
<path d="M1383.4 330.1C1384.95 330.1 1386.2 328.846 1386.2 327.3C1386.2 325.754 1384.95 324.5 1383.4 324.5C1381.85 324.5 1380.6 325.754 1380.6 327.3C1380.6 328.846 1381.85 330.1 1383.4 330.1Z" fill="white"/>
<path d="M1629.9 282.9L1571.8 266L1518.5 266.2L1458.5 299.5L1427.7 271.4L1383.4 327.3L1420.8 353.4L1458.5 299.5" stroke="white" stroke-width="0.5527" stroke-miterlimit="10"/>
<path d="M343.3 582.6C345.951 582.6 348.1 580.451 348.1 577.8C348.1 575.149 345.951 573 343.3 573C340.649 573 338.5 575.149 338.5 577.8C338.5 580.451 340.649 582.6 343.3 582.6Z" fill="white"/>
<path d="M231.7 518.6C234.351 518.6 236.5 516.451 236.5 513.8C236.5 511.149 234.351 509 231.7 509C229.049 509 226.9 511.149 226.9 513.8C226.9 516.451 229.049 518.6 231.7 518.6Z" fill="white"/>
<path d="M133.8 523.2C135.346 523.2 136.6 521.946 136.6 520.4C136.6 518.854 135.346 517.6 133.8 517.6C132.254 517.6 131 518.854 131 520.4C131 521.946 132.254 523.2 133.8 523.2Z" fill="white"/>
<path d="M279.8 548.7C281.346 548.7 282.6 547.446 282.6 545.9C282.6 544.354 281.346 543.1 279.8 543.1C278.254 543.1 277 544.354 277 545.9C277 547.446 278.254 548.7 279.8 548.7Z" fill="white"/>
<path d="M475.4 574.8C476.946 574.8 478.2 573.546 478.2 572C478.2 570.454 476.946 569.2 475.4 569.2C473.854 569.2 472.6 570.454 472.6 572C472.6 573.546 473.854 574.8 475.4 574.8Z" fill="white"/>
<path d="M136.4 519.5L231.7 513.8L279.8 545.9L348 578.6L475.4 572L456.6 643.6L353.5 638.8L343.3 577.8" stroke="white" stroke-width="0.5527" stroke-miterlimit="10"/>
<path d="M456.6 648.4C459.251 648.4 461.4 646.251 461.4 643.6C461.4 640.949 459.251 638.8 456.6 638.8C453.949 638.8 451.8 640.949 451.8 643.6C451.8 646.251 453.949 648.4 456.6 648.4Z" fill="white"/>
<path d="M353.5 641.6C355.046 641.6 356.3 640.346 356.3 638.8C356.3 637.254 355.046 636 353.5 636C351.954 636 350.7 637.254 350.7 638.8C350.7 640.346 351.954 641.6 353.5 641.6Z" fill="white"/>
<g opacity="0.5">
<g opacity="0.5">
<g opacity="0.5">
<path opacity="0.5" d="M1575.1 910.3C1576.48 910.3 1577.6 909.181 1577.6 907.8C1577.6 906.419 1576.48 905.3 1575.1 905.3C1573.72 905.3 1572.6 906.419 1572.6 907.8C1572.6 909.181 1573.72 910.3 1575.1 910.3Z" fill="white"/>
</g>
<g opacity="0.5">
<path opacity="0.5" d="M1666.7 928.4C1668.14 928.4 1669.3 927.236 1669.3 925.8C1669.3 924.364 1668.14 923.2 1666.7 923.2C1665.26 923.2 1664.1 924.364 1664.1 925.8C1664.1 927.236 1665.26 928.4 1666.7 928.4Z" fill="white"/>
</g>
<g opacity="0.5">
<path opacity="0.5" d="M1715.1 861.8C1716.54 861.8 1717.7 860.636 1717.7 859.2C1717.7 857.764 1716.54 856.6 1715.1 856.6C1713.66 856.6 1712.5 857.764 1712.5 859.2C1712.5 860.636 1713.66 861.8 1715.1 861.8Z" fill="white"/>
</g>
<g opacity="0.5">
<path opacity="0.5" d="M1811.1 792.3C1812.87 792.3 1814.3 790.867 1814.3 789.1C1814.3 787.333 1812.87 785.9 1811.1 785.9C1809.33 785.9 1807.9 787.333 1807.9 789.1C1807.9 790.867 1809.33 792.3 1811.1 792.3Z" fill="white"/>
</g>
<g opacity="0.5">
<path opacity="0.5" d="M1724.3 664.1C1726.62 664.1 1728.5 662.22 1728.5 659.9C1728.5 657.58 1726.62 655.7 1724.3 655.7C1721.98 655.7 1720.1 657.58 1720.1 659.9C1720.1 662.22 1721.98 664.1 1724.3 664.1Z" fill="white"/>
</g>
<g opacity="0.5">
<path opacity="0.5" d="M1578.4 703.3C1580.22 703.3 1581.7 701.823 1581.7 700C1581.7 698.177 1580.22 696.7 1578.4 696.7C1576.58 696.7 1575.1 698.177 1575.1 700C1575.1 701.823 1576.58 703.3 1578.4 703.3Z" fill="white"/>
</g>
<g opacity="0.5">
<path opacity="0.5" d="M1484.4 748.9C1485.73 748.9 1486.8 747.825 1486.8 746.5C1486.8 745.175 1485.73 744.1 1484.4 744.1C1483.07 744.1 1482 745.175 1482 746.5C1482 747.825 1483.07 748.9 1484.4 748.9Z" fill="white"/>
</g>
<g opacity="0.5">
<path opacity="0.5" d="M1328.5 774C1330.27 774 1331.7 772.567 1331.7 770.8C1331.7 769.033 1330.27 767.6 1328.5 767.6C1326.73 767.6 1325.3 769.033 1325.3 770.8C1325.3 772.567 1326.73 774 1328.5 774Z" fill="white"/>
</g>
<g opacity="0.5">
<path opacity="0.5" d="M1429.7 654.4C1432.3 654.4 1434.4 652.296 1434.4 649.7C1434.4 647.104 1432.3 645 1429.7 645C1427.1 645 1425 647.104 1425 649.7C1425 652.296 1427.1 654.4 1429.7 654.4Z" fill="white"/>
</g>
<g opacity="0.5">
<path opacity="0.5" d="M1441 602.3C1443.65 602.3 1445.8 600.151 1445.8 597.5C1445.8 594.849 1443.65 592.7 1441 592.7C1438.35 592.7 1436.2 594.849 1436.2 597.5C1436.2 600.151 1438.35 602.3 1441 602.3Z" fill="white"/>
</g>
<g opacity="0.5">
<path opacity="0.5" d="M1544.9 609.4C1546.83 609.4 1548.4 607.833 1548.4 605.9C1548.4 603.967 1546.83 602.4 1544.9 602.4C1542.97 602.4 1541.4 603.967 1541.4 605.9C1541.4 607.833 1542.97 609.4 1544.9 609.4Z" fill="white"/>
</g>
<g opacity="0.5">
<path opacity="0.5" d="M1539.7 455.3C1542.07 455.3 1544 453.375 1544 451C1544 448.625 1542.07 446.7 1539.7 446.7C1537.33 446.7 1535.4 448.625 1535.4 451C1535.4 453.375 1537.33 455.3 1539.7 455.3Z" fill="white"/>
</g>
<g opacity="0.5">
<path opacity="0.5" d="M1658 623C1660.1 623 1661.8 621.299 1661.8 619.2C1661.8 617.101 1660.1 615.4 1658 615.4C1655.9 615.4 1654.2 617.101 1654.2 619.2C1654.2 621.299 1655.9 623 1658 623Z" fill="white"/>
</g>
<g opacity="0.5">
<path opacity="0.5" d="M1619.3 377.9C1621.34 377.9 1623 376.243 1623 374.2C1623 372.157 1621.34 370.5 1619.3 370.5C1617.26 370.5 1615.6 372.157 1615.6 374.2C1615.6 376.243 1617.26 377.9 1619.3 377.9Z" fill="white"/>
</g>
<g opacity="0.5">
<path opacity="0.5" d="M1761.4 493.4C1764.05 493.4 1766.2 491.251 1766.2 488.6C1766.2 485.949 1764.05 483.8 1761.4 483.8C1758.75 483.8 1756.6 485.949 1756.6 488.6C1756.6 491.251 1758.75 493.4 1761.4 493.4Z" fill="white"/>
</g>
<g opacity="0.5">
<path opacity="0.5" d="M1806.3 441C1809.01 441 1811.2 438.806 1811.2 436.1C1811.2 433.394 1809.01 431.2 1806.3 431.2C1803.59 431.2 1801.4 433.394 1801.4 436.1C1801.4 438.806 1803.59 441 1806.3 441Z" fill="white"/>
</g>
<g opacity="0.5">
<path opacity="0.5" d="M1770 392.3C1772.43 392.3 1774.4 390.33 1774.4 387.9C1774.4 385.47 1772.43 383.5 1770 383.5C1767.57 383.5 1765.6 385.47 1765.6 387.9C1765.6 390.33 1767.57 392.3 1770 392.3Z" fill="white"/>
</g>
<g opacity="0.5">
<path opacity="0.5" d="M1768.1 341.5C1770.64 341.5 1772.7 339.441 1772.7 336.9C1772.7 334.36 1770.64 332.3 1768.1 332.3C1765.56 332.3 1763.5 334.36 1763.5 336.9C1763.5 339.441 1765.56 341.5 1768.1 341.5Z" fill="white"/>
</g>
<g opacity="0.5">
<path opacity="0.5" d="M1657.5 337.6C1659.16 337.6 1660.5 336.257 1660.5 334.6C1660.5 332.943 1659.16 331.6 1657.5 331.6C1655.84 331.6 1654.5 332.943 1654.5 334.6C1654.5 336.257 1655.84 337.6 1657.5 337.6Z" fill="white"/>
</g>
<g opacity="0.5">
<path opacity="0.5" d="M1715.4 149.9C1716.67 149.9 1717.7 148.87 1717.7 147.6C1717.7 146.33 1716.67 145.3 1715.4 145.3C1714.13 145.3 1713.1 146.33 1713.1 147.6C1713.1 148.87 1714.13 149.9 1715.4 149.9Z" fill="white"/>
</g>
<g opacity="0.5">
<path opacity="0.5" d="M1694.6 73.9C1696.48 73.9 1698 72.3778 1698 70.5C1698 68.6223 1696.48 67.1 1694.6 67.1C1692.72 67.1 1691.2 68.6223 1691.2 70.5C1691.2 72.3778 1692.72 73.9 1694.6 73.9Z" fill="white"/>
</g>
<g opacity="0.5">
<path opacity="0.5" d="M1582.6 311.9C1585.2 311.9 1587.3 309.796 1587.3 307.2C1587.3 304.604 1585.2 302.5 1582.6 302.5C1580 302.5 1577.9 304.604 1577.9 307.2C1577.9 309.796 1580 311.9 1582.6 311.9Z" fill="white"/>
</g>
<g opacity="0.5">
<path opacity="0.5" d="M1635.1 55C1636.37 55 1637.4 53.9703 1637.4 52.7C1637.4 51.4298 1636.37 50.4 1635.1 50.4C1633.83 50.4 1632.8 51.4298 1632.8 52.7C1632.8 53.9703 1633.83 55 1635.1 55Z" fill="white"/>
</g>
<g opacity="0.5">
<path opacity="0.5" d="M1589.7 124.5C1591.03 124.5 1592.1 123.425 1592.1 122.1C1592.1 120.775 1591.03 119.7 1589.7 119.7C1588.37 119.7 1587.3 120.775 1587.3 122.1C1587.3 123.425 1588.37 124.5 1589.7 124.5Z" fill="white"/>
</g>
<g opacity="0.5">
<path opacity="0.5" d="M1514.2 291.3C1515.58 291.3 1516.7 290.181 1516.7 288.8C1516.7 287.419 1515.58 286.3 1514.2 286.3C1512.82 286.3 1511.7 287.419 1511.7 288.8C1511.7 290.181 1512.82 291.3 1514.2 291.3Z" fill="white"/>
</g>
<g opacity="0.5">
<path opacity="0.5" d="M1472.4 158.9C1475.11 158.9 1477.3 156.706 1477.3 154C1477.3 151.294 1475.11 149.1 1472.4 149.1C1469.69 149.1 1467.5 151.294 1467.5 154C1467.5 156.706 1469.69 158.9 1472.4 158.9Z" fill="white"/>
</g>
<g opacity="0.5">
<path opacity="0.5" d="M1457.2 129.9C1459.35 129.9 1461.1 128.154 1461.1 126C1461.1 123.846 1459.35 122.1 1457.2 122.1C1455.05 122.1 1453.3 123.846 1453.3 126C1453.3 128.154 1455.05 129.9 1457.2 129.9Z" fill="white"/>
</g>
<g opacity="0.5">
<path opacity="0.5" d="M1344 71C1346.54 71 1348.6 68.9406 1348.6 66.4001C1348.6 63.8595 1346.54 61.8 1344 61.8C1341.46 61.8 1339.4 63.8595 1339.4 66.4001C1339.4 68.9406 1341.46 71 1344 71Z" fill="white"/>
</g>
<g opacity="0.5">
<path opacity="0.5" d="M1261.6 111.3C1263.81 111.3 1265.6 109.509 1265.6 107.3C1265.6 105.091 1263.81 103.3 1261.6 103.3C1259.39 103.3 1257.6 105.091 1257.6 107.3C1257.6 109.509 1259.39 111.3 1261.6 111.3Z" fill="white"/>
</g>
</g>
</g>
<g opacity="0.5">
<g opacity="0.5">
<g opacity="0.5">
<path opacity="0.5" d="M194.1 898.7C197.635 898.7 200.5 895.835 200.5 892.3C200.5 888.765 197.635 885.9 194.1 885.9C190.565 885.9 187.7 888.765 187.7 892.3C187.7 895.835 190.565 898.7 194.1 898.7Z" fill="white"/>
</g>
<g opacity="0.5">
<path opacity="0.5" d="M251.6 892.3C254.362 892.3 256.6 890.061 256.6 887.3C256.6 884.539 254.362 882.3 251.6 882.3C248.839 882.3 246.6 884.539 246.6 887.3C246.6 890.061 248.839 892.3 251.6 892.3Z" fill="white"/>
</g>
<g opacity="0.5">
<path opacity="0.5" d="M443.8 811.7C445.844 811.7 447.5 810.043 447.5 808C447.5 805.957 445.844 804.3 443.8 804.3C441.757 804.3 440.1 805.957 440.1 808C440.1 810.043 441.757 811.7 443.8 811.7Z" fill="white"/>
</g>
<g opacity="0.5">
<path opacity="0.5" d="M382.5 601.2C384.599 601.2 386.3 599.499 386.3 597.4C386.3 595.301 384.599 593.6 382.5 593.6C380.401 593.6 378.7 595.301 378.7 597.4C378.7 599.499 380.401 601.2 382.5 601.2Z" fill="white"/>
</g>
<g opacity="0.5">
<path opacity="0.5" d="M136.9 731.2C139.827 731.2 142.2 728.827 142.2 725.9C142.2 722.973 139.827 720.6 136.9 720.6C133.973 720.6 131.6 722.973 131.6 725.9C131.6 728.827 133.973 731.2 136.9 731.2Z" fill="white"/>
</g>
<g opacity="0.5">
<path opacity="0.5" d="M77.3 729.8C80.2824 729.8 82.7 727.382 82.7 724.4C82.7 721.418 80.2824 719 77.3 719C74.3177 719 71.9 721.418 71.9 724.4C71.9 727.382 74.3177 729.8 77.3 729.8Z" fill="white"/>
</g>
<g opacity="0.5">
<path opacity="0.5" d="M5.00002 549.8C7.54053 549.8 9.60002 547.741 9.60002 545.2C9.60002 542.66 7.54053 540.6 5.00002 540.6C2.45951 540.6 0.400024 542.66 0.400024 545.2C0.400024 547.741 2.45951 549.8 5.00002 549.8Z" fill="white"/>
</g>
<g opacity="0.5">
<path opacity="0.5" d="M156.7 348C158.412 348 159.8 346.612 159.8 344.9C159.8 343.188 158.412 341.8 156.7 341.8C154.988 341.8 153.6 343.188 153.6 344.9C153.6 346.612 154.988 348 156.7 348Z" fill="white"/>
</g>
<g opacity="0.5">
<path opacity="0.5" d="M316.9 622.8C319.717 622.8 322 620.517 322 617.7C322 614.883 319.717 612.6 316.9 612.6C314.083 612.6 311.8 614.883 311.8 617.7C311.8 620.517 314.083 622.8 316.9 622.8Z" fill="white"/>
</g>
<g opacity="0.5">
<path opacity="0.5" d="M333.8 440.8C336.893 440.8 339.4 438.293 339.4 435.2C339.4 432.107 336.893 429.6 333.8 429.6C330.707 429.6 328.2 432.107 328.2 435.2C328.2 438.293 330.707 440.8 333.8 440.8Z" fill="white"/>
</g>
<g opacity="0.5">
<path opacity="0.5" d="M395.2 613.3C397.906 613.3 400.1 611.106 400.1 608.4C400.1 605.694 397.906 603.5 395.2 603.5C392.494 603.5 390.3 605.694 390.3 608.4C390.3 611.106 392.494 613.3 395.2 613.3Z" fill="white"/>
</g>
<g opacity="0.5">
<path opacity="0.5" d="M368.5 295.1C370.157 295.1 371.5 293.757 371.5 292.1C371.5 290.443 370.157 289.1 368.5 289.1C366.843 289.1 365.5 290.443 365.5 292.1C365.5 293.757 366.843 295.1 368.5 295.1Z" fill="white"/>
</g>
<g opacity="0.5">
<path opacity="0.5" d="M428.2 389.2C430.299 389.2 432 387.499 432 385.4C432 383.301 430.299 381.6 428.2 381.6C426.101 381.6 424.4 383.301 424.4 385.4C424.4 387.499 426.101 389.2 428.2 389.2Z" fill="white"/>
</g>
<g opacity="0.5">
<path opacity="0.5" d="M569.8 454C573.114 454 575.8 451.314 575.8 448C575.8 444.686 573.114 442 569.8 442C566.486 442 563.8 444.686 563.8 448C563.8 451.314 566.486 454 569.8 454Z" fill="white"/>
</g>
<g opacity="0.5">
<path opacity="0.5" d="M529.1 321.2C530.923 321.2 532.4 319.723 532.4 317.9C532.4 316.077 530.923 314.6 529.1 314.6C527.277 314.6 525.8 316.077 525.8 317.9C525.8 319.723 527.277 321.2 529.1 321.2Z" fill="white"/>
</g>
<g opacity="0.5">
<path opacity="0.5" d="M541.3 192.5C543.84 192.5 545.9 190.441 545.9 187.9C545.9 185.36 543.84 183.3 541.3 183.3C538.759 183.3 536.7 185.36 536.7 187.9C536.7 190.441 538.759 192.5 541.3 192.5Z" fill="white"/>
</g>
<g opacity="0.5">
<path opacity="0.5" d="M440.6 132.2C444.135 132.2 447 129.335 447 125.8C447 122.265 444.135 119.4 440.6 119.4C437.065 119.4 434.2 122.265 434.2 125.8C434.2 129.335 437.065 132.2 440.6 132.2Z" fill="white"/>
</g>
<g opacity="0.5">
<path opacity="0.5" d="M294.1 268.2C297.579 268.2 300.4 265.379 300.4 261.9C300.4 258.421 297.579 255.6 294.1 255.6C290.621 255.6 287.8 258.421 287.8 261.9C287.8 265.379 290.621 268.2 294.1 268.2Z" fill="white"/>
</g>
<g opacity="0.5">
<path opacity="0.5" d="M335.7 133.3C338.406 133.3 340.6 131.106 340.6 128.4C340.6 125.694 338.406 123.5 335.7 123.5C332.994 123.5 330.8 125.694 330.8 128.4C330.8 131.106 332.994 133.3 335.7 133.3Z" fill="white"/>
</g>
<g opacity="0.5">
<path opacity="0.5" d="M328.8 39.1C331.561 39.1 333.8 36.8615 333.8 34.1C333.8 31.3386 331.561 29.1 328.8 29.1C326.039 29.1 323.8 31.3386 323.8 34.1C323.8 36.8615 326.039 39.1 328.8 39.1Z" fill="white"/>
</g>
<g opacity="0.5">
<path opacity="0.5" d="M170.8 258.2C174.169 258.2 176.9 255.469 176.9 252.1C176.9 248.731 174.169 246 170.8 246C167.431 246 164.7 248.731 164.7 252.1C164.7 255.469 167.431 258.2 170.8 258.2Z" fill="white"/>
</g>
</g>
</g>
<path opacity="0.5" d="M577.4 556.1C580.217 556.1 582.5 553.817 582.5 551C582.5 548.183 580.217 545.9 577.4 545.9C574.583 545.9 572.3 548.183 572.3 551C572.3 553.817 574.583 556.1 577.4 556.1Z" fill="white"/>
<path opacity="0.5" d="M124 134.4C127.258 134.4 129.9 131.758 129.9 128.5C129.9 125.241 127.258 122.6 124 122.6C120.741 122.6 118.1 125.241 118.1 128.5C118.1 131.758 120.741 134.4 124 134.4Z" fill="white"/>
<path opacity="0.5" d="M29.9 398.9C33.1585 398.9 35.8 396.259 35.8 393C35.8 389.742 33.1585 387.1 29.9 387.1C26.6415 387.1 24 389.742 24 393C24 396.259 26.6415 398.9 29.9 398.9Z" fill="white"/>
<path opacity="0.5" d="M68.9 920.5C71.7167 920.5 74 918.217 74 915.4C74 912.583 71.7167 910.3 68.9 910.3C66.0834 910.3 63.8 912.583 63.8 915.4C63.8 918.217 66.0834 920.5 68.9 920.5Z" fill="white"/>
<path d="M1259.2 575.5C1261.35 575.5 1263.1 573.754 1263.1 571.6C1263.1 569.446 1261.35 567.7 1259.2 567.7C1257.05 567.7 1255.3 569.446 1255.3 571.6C1255.3 573.754 1257.05 575.5 1259.2 575.5Z" fill="white"/>
<path opacity="0.5" d="M1143.1 487.2C1144.37 487.2 1145.4 486.17 1145.4 484.9C1145.4 483.63 1144.37 482.6 1143.1 482.6C1141.83 482.6 1140.8 483.63 1140.8 484.9C1140.8 486.17 1141.83 487.2 1143.1 487.2Z" fill="white"/>
<path opacity="0.5" d="M1273.9 343.1C1275.94 343.1 1277.6 341.443 1277.6 339.4C1277.6 337.357 1275.94 335.7 1273.9 335.7C1271.86 335.7 1270.2 337.357 1270.2 339.4C1270.2 341.443 1271.86 343.1 1273.9 343.1Z" fill="white"/>
<path opacity="0.5" d="M1805.2 116.7C1807.63 116.7 1809.6 114.73 1809.6 112.3C1809.6 109.87 1807.63 107.9 1805.2 107.9C1802.77 107.9 1800.8 109.87 1800.8 112.3C1800.8 114.73 1802.77 116.7 1805.2 116.7Z" fill="white"/>
<path opacity="0.5" d="M8.6 85.8C11.4167 85.8 13.7 83.5166 13.7 80.7C13.7 77.8833 11.4167 75.6 8.6 75.6C5.78335 75.6 3.5 77.8833 3.5 80.7C3.5 83.5166 5.78335 85.8 8.6 85.8Z" fill="white"/>
<path opacity="0.5" d="M1441.2 597.6L1428.4 648.6L1577.8 699.6L1545 605.8L1540.5 450.9" stroke="white" stroke-width="0.5527" stroke-miterlimit="10"/>
<path opacity="0.5" d="M328.8 34L336.1 128.4" stroke="white" stroke-width="0.5527" stroke-miterlimit="10"/>
<path opacity="0.5" d="M124 128.5L170 251L294.9 261.5L371.2 293" stroke="white" stroke-width="0.5527" stroke-miterlimit="10"/>
<path opacity="0.5" d="M75.6 726L137 729.3L254.8 890.3L195 891.9L68.9 915.4L75.6 726Z" stroke="white" stroke-width="0.5527" stroke-miterlimit="10"/>
<path opacity="0.5" d="M75.6 726L195 891.9" stroke="white" stroke-width="0.5527" stroke-miterlimit="10"/>
<g opacity="0.5">
<g opacity="0.5">
<g opacity="0.5">
<path opacity="0.5" d="M208.8 928.5C211.451 928.5 213.6 926.351 213.6 923.7C213.6 921.049 211.451 918.9 208.8 918.9C206.149 918.9 204 921.049 204 923.7C204 926.351 206.149 928.5 208.8 928.5Z" fill="white"/>
</g>
<g opacity="0.5">
<path opacity="0.5" d="M245.4 891.2C247.112 891.2 248.5 889.812 248.5 888.1C248.5 886.388 247.112 885 245.4 885C243.688 885 242.3 886.388 242.3 888.1C242.3 889.812 243.688 891.2 245.4 891.2Z" fill="white"/>
</g>
<g opacity="0.5">
<path opacity="0.5" d="M150.5 949.4C153.096 949.4 155.2 947.296 155.2 944.7C155.2 942.104 153.096 940 150.5 940C147.904 940 145.8 942.104 145.8 944.7C145.8 947.296 147.904 949.4 150.5 949.4Z" fill="white"/>
</g>
<g opacity="0.5">
<path opacity="0.5" d="M29.8 922.5C32.3958 922.5 34.5 920.396 34.5 917.8C34.5 915.204 32.3958 913.1 29.8 913.1C27.2043 913.1 25.1 915.204 25.1 917.8C25.1 920.396 27.2043 922.5 29.8 922.5Z" fill="white"/>
</g>
<g opacity="0.5">
<path opacity="0.5" d="M150 822.7C151.878 822.7 153.4 821.178 153.4 819.3C153.4 817.422 151.878 815.9 150 815.9C148.122 815.9 146.6 817.422 146.6 819.3C146.6 821.178 148.122 822.7 150 822.7Z" fill="white"/>
</g>
<g opacity="0.5">
<path opacity="0.5" d="M76.0001 744.8C77.8226 744.8 79.3001 743.323 79.3001 741.5C79.3001 739.677 77.8226 738.2 76.0001 738.2C74.1775 738.2 72.7001 739.677 72.7001 741.5C72.7001 743.323 74.1775 744.8 76.0001 744.8Z" fill="white"/>
</g>
<g opacity="0.5">
<path opacity="0.5" d="M257.8 754.3C259.346 754.3 260.6 753.046 260.6 751.5C260.6 749.954 259.346 748.7 257.8 748.7C256.254 748.7 255 749.954 255 751.5C255 753.046 256.254 754.3 257.8 754.3Z" fill="white"/>
</g>
<g opacity="0.5">
<path opacity="0.5" d="M93.9001 547.8C95.1704 547.8 96.2001 546.77 96.2001 545.5C96.2001 544.23 95.1704 543.2 93.9001 543.2C92.6298 543.2 91.6001 544.23 91.6001 545.5C91.6001 546.77 92.6298 547.8 93.9001 547.8Z" fill="white"/>
</g>
</g>
</g>
<g opacity="0.5">
<g opacity="0.5">
<g opacity="0.5">
<path opacity="0.5" d="M1553.9 592.9C1556.55 592.9 1558.7 590.751 1558.7 588.1C1558.7 585.449 1556.55 583.3 1553.9 583.3C1551.25 583.3 1549.1 585.449 1549.1 588.1C1549.1 590.751 1551.25 592.9 1553.9 592.9Z" fill="white"/>
</g>
<g opacity="0.5">
<path opacity="0.5" d="M1528.9 720.9C1531.33 720.9 1533.3 718.93 1533.3 716.5C1533.3 714.07 1531.33 712.1 1528.9 712.1C1526.47 712.1 1524.5 714.07 1524.5 716.5C1524.5 718.93 1526.47 720.9 1528.9 720.9Z" fill="white"/>
</g>
<g opacity="0.5">
<path opacity="0.5" d="M1589.9 683.2C1592.5 683.2 1594.6 681.096 1594.6 678.5C1594.6 675.904 1592.5 673.8 1589.9 673.8C1587.3 673.8 1585.2 675.904 1585.2 678.5C1585.2 681.096 1587.3 683.2 1589.9 683.2Z" fill="white"/>
</g>
<g opacity="0.5">
<path opacity="0.5" d="M1684.5 612.9C1686.16 612.9 1687.5 611.557 1687.5 609.9C1687.5 608.243 1686.16 606.9 1684.5 606.9C1682.84 606.9 1681.5 608.243 1681.5 609.9C1681.5 611.557 1682.84 612.9 1684.5 612.9Z" fill="white"/>
</g>
<g opacity="0.5">
<path opacity="0.5" d="M1824.5 678.8C1826.54 678.8 1828.2 677.143 1828.2 675.1C1828.2 673.057 1826.54 671.4 1824.5 671.4C1822.46 671.4 1820.8 673.057 1820.8 675.1C1820.8 677.143 1822.46 678.8 1824.5 678.8Z" fill="white"/>
</g>
<g opacity="0.5">
<path opacity="0.5" d="M1858.3 724C1859.52 724 1860.5 723.015 1860.5 721.8C1860.5 720.585 1859.52 719.6 1858.3 719.6C1857.09 719.6 1856.1 720.585 1856.1 721.8C1856.1 723.015 1857.09 724 1858.3 724Z" fill="white"/>
</g>
<g opacity="0.5">
<path opacity="0.5" d="M1793.3 781.2C1795.56 781.2 1797.4 779.364 1797.4 777.1C1797.4 774.836 1795.56 773 1793.3 773C1791.04 773 1789.2 774.836 1789.2 777.1C1789.2 779.364 1791.04 781.2 1793.3 781.2Z" fill="white"/>
</g>
<g opacity="0.5">
<path opacity="0.5" d="M1804.8 835.8C1807.12 835.8 1809 833.92 1809 831.6C1809 829.28 1807.12 827.4 1804.8 827.4C1802.48 827.4 1800.6 829.28 1800.6 831.6C1800.6 833.92 1802.48 835.8 1804.8 835.8Z" fill="white"/>
</g>
<g opacity="0.5">
<path opacity="0.5" d="M1833 962.5C1834.22 962.5 1835.2 961.515 1835.2 960.3C1835.2 959.085 1834.22 958.1 1833 958.1C1831.78 958.1 1830.8 959.085 1830.8 960.3C1830.8 961.515 1831.78 962.5 1833 962.5Z" fill="white"/>
</g>
<g opacity="0.5">
<path opacity="0.5" d="M1712.5 945.1C1714.43 945.1 1716 943.533 1716 941.6C1716 939.667 1714.43 938.1 1712.5 938.1C1710.57 938.1 1709 939.667 1709 941.6C1709 943.533 1710.57 945.1 1712.5 945.1Z" fill="white"/>
</g>
<g opacity="0.5">
<path opacity="0.5" d="M1618 912.2C1619.77 912.2 1621.2 910.767 1621.2 909C1621.2 907.233 1619.77 905.8 1618 905.8C1616.23 905.8 1614.8 907.233 1614.8 909C1614.8 910.767 1616.23 912.2 1618 912.2Z" fill="white"/>
</g>
<g opacity="0.5">
<path opacity="0.5" d="M1578 889C1579.71 889 1581.1 887.612 1581.1 885.9C1581.1 884.188 1579.71 882.8 1578 882.8C1576.29 882.8 1574.9 884.188 1574.9 885.9C1574.9 887.612 1576.29 889 1578 889Z" fill="white"/>
</g>
</g>
</g>
</svg>
