<?xml version="1.0" encoding="UTF-8"?><svg xmlns="http://www.w3.org/2000/svg" width="1920" height="7734.64" viewBox="0 0 1920 7734.64"><defs><style>.cls-1{fill:#fff;}.cls-2{opacity:.5;}.cls-3{fill:#181233;}.cls-3,.cls-4{opacity:.41;}.cls-5{fill:#130e24;}.cls-6{fill:none;}.cls-4{fill:#0e0b23;}</style></defs><g id="Capa_3"><rect class="cls-5" x="0" y="-42.81" width="2001.17" height="7817.17"/></g><g id="Capa_1"><path class="cls-3" d="M215.62,1469.37c.11,55.37,20.71,108.79,46.78,157.63,17.51,32.8,38,64.68,65.99,89.15,27.99,24.47,64.4,41.02,101.52,39.08,11.16-.58,22.43-2.89,32.09-8.52,20.03-11.67,29.63-35.17,35.85-57.5,19.14-68.71,19.32-142.15,43.68-209.19,12.34-33.97,32.87-67.64,65.86-82.39,26.11-11.67,56.27-9.78,84.32-4.16,28.05,5.62,55.52,14.75,84.04,16.94,16.1,1.24,33.32-.08,46.53-9.35,18.92-13.28,24.36-38.71,25.92-61.78,4.05-60.17-8.48-121.37-35.84-175.12-13.52-26.54-31.16-51.86-55.88-68.47-29.52-19.83-66.39-25.46-101.96-25.83-53.93-.56-111.06,11.45-149.99,48.76-35.58,34.09-50.83,84.1-59.34,132.63-4.51,25.7-9.57,54.99-31.63,68.94-20.17,12.75-46.2,7.25-69.86,4.23-39.6-5.06-83,2.55-100.55,43.06-13.99,32.29-27.59,66.15-27.52,101.86Z"/><path class="cls-3" d="M145.15,3399.58c.11,55.37,20.71,108.79,46.78,157.63,17.51,32.8,38,64.68,65.99,89.15,27.99,24.47,64.4,41.02,101.52,39.08,11.16-.58,22.43-2.89,32.09-8.52,20.03-11.67,29.63-35.17,35.85-57.5,19.14-68.71,19.32-142.15,43.68-209.19,12.34-33.97,32.87-67.64,65.86-82.39,26.11-11.67,56.27-9.78,84.32-4.16,28.05,5.62,55.52,14.75,84.04,16.94,16.1,1.24,33.32-.08,46.53-9.35,18.92-13.28,24.36-38.71,25.92-61.78,4.05-60.17-8.48-121.37-35.84-175.12-13.52-26.54-31.16-51.86-55.88-68.47-29.52-19.83-66.39-25.46-101.96-25.83-53.93-.56-111.06,11.45-149.99,48.76-35.58,34.09-50.83,84.1-59.34,132.63-4.51,25.7-9.57,54.99-31.63,68.94-20.17,12.75-46.2,7.25-69.86,4.23-39.6-5.06-83,2.55-100.55,43.06-13.99,32.29-27.59,66.15-27.52,101.86Z"/><path class="cls-3" d="M1770.33,4355.17c-27.95-47.8-72.64-83.59-119.75-112.69-31.63-19.54-65.38-36.77-101.89-43.83s-76.29-3.05-107.4,17.31c-9.35,6.12-17.93,13.79-23.44,23.5-11.43,20.16-7.91,45.3-2.05,67.73,18.03,69.01,54.83,132.56,67.51,202.76,6.42,35.56,5.63,74.99-15.46,104.34-16.69,23.23-43.71,36.77-70.78,46.02-27.07,9.25-55.4,15.19-81.15,27.64-14.53,7.03-28.75,16.83-35.5,31.5-9.67,21-1.58,45.71,8.69,66.43,26.77,54.04,68.4,100.63,119.09,133.3,25.03,16.14,53.02,29.14,82.74,31.05,35.49,2.28,70.18-11.4,101.11-28.98,46.89-26.65,90.21-65.77,105.09-117.61,13.59-47.36,1.61-98.25-15.46-144.48-9.04-24.48-19.4-52.34-7.35-75.49,11.01-21.16,36.27-29.51,58.25-38.81,36.76-15.55,70.44-43.96,65.23-87.81-4.15-34.94-9.44-71.04-27.47-101.88Z"/><path class="cls-3" d="M1797.6,2094.1c11.86-21.59,16.34-46.45,18.52-70.98,6.27-70.47-5.23-142.45-33.14-207.46-8.26-19.24-18.23-38.27-33.53-52.56-15.3-14.29-36.83-23.24-57.36-19.12-19.88,4-35.34,19-51.1,31.77-31.99,25.94-61.56,29.85-89.23-3.72-11.36-13.77-19.98-29.62-31.26-43.46-16.76-20.54-41.38-36.87-67.86-35.59-30.19,1.46-55.07,25.28-69.5,51.83-21.18,38.97-25.6,86.69-11.94,128.89,6.07,18.77,16.1,37.04,32.22,48.41,22.57,15.92,52.6,15.66,78.25,25.92,44.98,17.99,71.44,67.76,73.46,116.16,2.02,48.4-16.37,95.42-39.39,138.05-23.2,42.97-33.08,83.18-18.44,130.95,12.48,40.71,40.77,81.95,84.91,91.15,31.75,6.62,64.71-4.9,92.56-21.5,95.84-57.11,146.86-180.38,119.42-288.52"/><path class="cls-3" d="M307.53,4872.1c-22.42,10.19-40.89,27.43-57.32,45.78-47.2,52.7-81.06,117.25-97.59,186.04-4.89,20.36-8.3,41.57-4.59,62.18,3.71,20.6,15.6,40.66,34.51,49.64,18.32,8.7,39.68,5.93,59.95,5.12,41.15-1.63,67.18,12.92,69.27,56.38,.86,17.83-1.72,35.69-.96,53.53,1.14,26.48,11.09,54.3,33.07,69.12,25.06,16.9,59.25,12.71,86.7,.06,40.29-18.55,72.39-54.14,86.7-96.12,6.37-18.67,9.26-39.31,3.15-58.07-8.56-26.27-32.77-44.02-47.18-67.59-25.28-41.33-16.69-97.04,10.65-137.03,27.35-39.99,70.22-66.65,114.17-87.03,44.3-20.54,76.28-46.85,93.13-93.88,14.36-40.08,16.38-90.05-13.49-123.84-21.48-24.3-54.77-34.79-87.03-38.16-110.97-11.59-225.61,56.63-268.33,159.7"/><path class="cls-4" d="M370.7,710.8c67.19-10.31,121-72.42,127.38-140.1,5.04-53.46-15.6-108.49-1.58-160.33,12.24-45.25,53.28-82.09,99.95-86.49,46.67-4.4,95.2,25.92,109.06,70.71,14.67,47.36-7.87,97.11-24.94,143.66-6.4,17.45-12.03,37.17-4.43,54.14,8.42,18.81,30.14,27.73,42.73,44.05,11.07,14.35,14.18,33.26,14.84,51.37,.77,21.11-1.33,42.47-7.95,62.52-13.3,40.29-43.73,72.56-76.17,99.92-51,43-109.35,77.46-172.14,100-43.08,15.46-92.92,24.76-133.15,2.93-19.54-10.6-34.79-27.59-48.4-45.17-25.26-32.62-47.18-74.21-35.11-113.67,12.05-39.37,54.15-61.93,94.63-69.45,9.87-1.83,13.69-4.16,15.27-14.08Z"/><path class="cls-4" d="M1650.61,95.47c-14.22,14.5-28.08,30.59-33.19,50.25-3.54,13.62-2.58,28.13,1.02,41.73,8.67,32.77,31.78,59.75,56.57,82.87,24.79,23.13,52.12,43.87,73.19,70.43,33.14,41.78,48.34,94.79,59.74,146.89,7.96,36.37,14.48,73.58,11.5,110.69s-16.36,74.55-43.21,100.36c-24.83,23.87-59.86,36.87-79.65,65.06-25.61,36.47-15.77,91.09,17.06,121.23,32.83,30.14,83.24,36.65,125.42,22.25,7.35-2.51,14.91-5.91,19.29-12.32,3.22-4.72,4.33-10.53,5.37-16.16,7.19-39.05,14.41-78.47,13.12-118.16-2.41-74.22-34.43-145.87-31.15-220.05,1.32-29.84,8.35-59.12,11.55-88.81,3.2-29.7,2.27-61-11.29-87.61-11.77-23.09-31.96-40.59-51.99-57.03-20.04-16.44-40.83-32.89-54.56-54.86-13.73-21.98-19.16-51.13-6.64-73.82,6.93-12.56,18.44-21.79,28.33-32.18,21.99-23.1,24.95-66.04-9.49-79.79-37.11-14.82-75.13,2.65-100.99,29.03Z"/><path class="cls-3" d="M444.87,61.4c-23.9-5.97-49.08-3.97-73.36,.17-69.74,11.89-136.42,41.35-192.17,84.9-16.5,12.89-32.37,27.38-42.28,45.82-9.92,18.44-13.09,41.54-3.87,60.34,8.93,18.21,27.37,29.34,43.74,41.32,33.23,24.33,44.55,51.92,19.14,87.24-10.43,14.49-23.56,26.87-34.06,41.3-15.59,21.44-25.11,49.41-17.13,74.68,9.1,28.82,38.47,46.82,67.83,54.01,43.08,10.55,90.35,2.66,127.68-21.29,16.6-10.66,31.72-25.01,38.6-43.49,9.65-25.89,1.75-54.85,5.13-82.27,5.93-48.08,47.32-86.35,93.61-100.63,46.29-14.29,96.44-8.48,143.53,2.92,47.46,11.49,88.87,10.79,131.33-15.53,36.18-22.44,68.86-60.3,66.51-105.33-1.69-32.38-21.23-61.32-44.38-84.03C695.06,23.38,562.87,5.45,465.29,59.54"/><path class="cls-3" d="M1466,82.4c-53.28-15.06-110.3-9.88-164.42,1.82-36.34,7.86-72.61,18.84-103.81,39.05-31.2,20.22-57.09,50.7-65.39,86.94-2.49,10.89-3.36,22.37-.6,33.19,5.74,22.46,25.71,38.13,45.48,50.23,60.84,37.23,131.42,57.51,189.22,99.3,29.29,21.17,56.06,50.13,61.2,85.91,4.08,28.31-6.01,56.8-19.09,82.24-13.09,25.43-29.39,49.36-39.31,76.19-5.6,15.14-9.05,32.06-3.75,47.31,7.59,21.83,30.56,34.03,52.32,41.84,56.76,20.38,119.06,25.09,178.24,13.49,29.23-5.73,58.41-15.77,81.15-34.99,27.16-22.96,42.67-56.88,52.76-90.98,15.31-51.71,19.41-109.95-5.82-157.62-23.05-43.55-66.96-71.92-111.31-93.39-23.48-11.37-50.27-24.27-57.64-49.3-6.74-22.89,5.68-46.42,15.06-68.35,15.71-36.7,20.28-80.52-13.88-108.5-27.22-22.3-56.06-44.65-90.43-54.37Z"/><line class="cls-6" x1="330.09" y1="5638.33" x2="1601.57" y2="5356.46"/><path class="cls-3" d="M144.76,5517.14c.11,55.37,20.71,108.79,46.78,157.63,17.51,32.8,38,64.68,65.99,89.15,27.99,24.47,64.4,41.02,101.52,39.08,11.16-.58,22.43-2.89,32.09-8.52,20.03-11.67,29.63-35.17,35.85-57.5,19.14-68.71,19.32-142.15,43.68-209.19,12.34-33.97,32.87-67.64,65.86-82.39,26.11-11.67,56.27-9.78,84.32-4.16,28.05,5.62,55.52,14.75,84.04,16.94,16.1,1.24,33.32-.08,46.53-9.35,18.92-13.28,24.36-38.71,25.92-61.78,4.05-60.17-8.48-121.37-35.84-175.12-13.52-26.54-31.16-51.86-55.88-68.47-29.52-19.83-66.39-25.46-101.96-25.83-53.93-.56-111.06,11.45-149.99,48.76-35.58,34.09-50.83,84.1-59.34,132.63-4.51,25.7-9.57,54.99-31.63,68.94-20.17,12.75-46.2,7.25-69.86,4.23-39.6-5.06-83,2.55-100.55,43.06-13.99,32.29-27.59,66.15-27.52,101.86Z"/><path class="cls-3" d="M1769.94,6472.73c-27.95-47.8-72.64-83.59-119.75-112.69-31.63-19.54-65.38-36.77-101.89-43.83-36.5-7.06-76.29-3.05-107.4,17.31-9.35,6.12-17.93,13.79-23.44,23.5-11.43,20.16-7.91,45.3-2.05,67.73,18.03,69.01,54.83,132.56,67.51,202.76,6.42,35.56,5.63,74.99-15.46,104.34-16.69,23.23-43.71,36.77-70.78,46.02-27.07,9.25-55.4,15.19-81.15,27.64-14.53,7.03-28.75,16.83-35.5,31.5-9.67,21-1.58,45.71,8.69,66.43,26.77,54.04,68.4,100.63,119.09,133.3,25.03,16.14,53.02,29.14,82.74,31.05,35.49,2.28,70.18-11.4,101.11-28.98,46.89-26.65,90.21-65.77,105.09-117.61,13.59-47.36,1.61-98.25-15.46-144.48-9.04-24.48-19.4-52.34-7.35-75.49,11.01-21.16,36.27-29.51,58.25-38.81,36.76-15.55,70.44-43.96,65.23-87.81-4.15-34.94-9.44-71.04-27.47-101.88Z"/><path class="cls-3" d="M1797.21,4211.67c11.86-21.59,16.34-46.45,18.52-70.98,6.27-70.47-5.23-142.45-33.14-207.46-8.26-19.24-18.23-38.27-33.53-52.56-15.3-14.29-36.83-23.24-57.36-19.12-19.88,4-35.34,19-51.1,31.77-31.99,25.94-61.56,29.85-89.23-3.72-11.36-13.77-19.98-29.62-31.26-43.46-16.76-20.54-41.38-36.87-67.86-35.59-30.19,1.46-55.07,25.28-69.5,51.83-21.18,38.97-25.6,86.69-11.94,128.89,6.07,18.77,16.1,37.04,32.22,48.41,22.57,15.92,52.6,15.66,78.25,25.92,44.98,17.99,71.44,67.76,73.46,116.16,2.02,48.4-16.37,95.42-39.39,138.05-23.2,42.97-33.08,83.18-18.44,130.95,12.48,40.71,40.77,81.95,84.91,91.15,31.75,6.62,64.71-4.9,92.56-21.5,95.84-57.11,146.86-180.38,119.42-288.52"/><path class="cls-3" d="M307.14,6989.67c-22.42,10.19-40.89,27.43-57.32,45.78-47.2,52.7-81.06,117.25-97.59,186.04-4.89,20.36-8.3,41.57-4.59,62.18,3.71,20.6,15.6,40.66,34.51,49.64,18.32,8.7,39.68,5.93,59.95,5.12,41.15-1.63,67.18,12.92,69.27,56.38,.86,17.83-1.72,35.69-.96,53.53,1.14,26.48,11.09,54.3,33.07,69.12,25.06,16.9,59.25,12.71,86.7,.06,40.29-18.55,72.39-54.14,86.7-96.12,6.37-18.67,9.26-39.31,3.15-58.07-8.56-26.27-32.77-44.02-47.18-67.59-25.28-41.33-16.69-97.04,10.65-137.03,27.35-39.99,70.22-66.65,114.17-87.03,44.3-20.54,76.28-46.85,93.13-93.88,14.36-40.08,16.38-90.05-13.49-123.84-21.48-24.3-54.77-34.79-87.03-38.16-110.97-11.59-225.61,56.63-268.33,159.7"/><line class="cls-6" x1="329.69" y1="7755.89" x2="1601.18" y2="7474.02"/><line class="cls-6" x1="1272.06" y1="3182.54" x2="2543.55" y2="2900.67"/><g><circle class="cls-1" cx="1295.39" cy="327.3" r="4.38"/><circle class="cls-1" cx="554.24" cy="226.81" r="4.38"/><circle class="cls-1" cx="640" cy="573.58" r="4.66"/><circle class="cls-1" cx="678.19" cy="353.15" r="5.31"/><circle class="cls-1" cx="1178.74" cy="486.37" r="4.38"/><circle class="cls-1" cx="288.07" cy="1674.27" r="5.75"/><circle class="cls-1" cx="420.83" cy="2299.29" r="7.99"/><circle class="cls-1" cx="588.32" cy="2316.66" r="7.99"/><circle class="cls-1" cx="397.34" cy="1897.93" r="8.86"/><ellipse class="cls-1" cx="433.09" cy="1692.66" rx="6.87" ry="8.56" transform="translate(-726.83 386.04) rotate(-27.24)"/><ellipse class="cls-1" cx="339.81" cy="1429.22" rx="6.57" ry="6.16" transform="translate(-616.58 314.12) rotate(-27.24)"/><circle class="cls-1" cx="743.84" cy="1000.54" r="2.7"/><circle class="cls-1" cx="1641.77" cy="1283.66" r="6.96"/><circle class="cls-1" cx="1854.2" cy="1378.64" r="6.96"/><g><circle class="cls-1" cx="1261.99" cy="683.11" r="3.21"/><circle class="cls-1" cx="1311.12" cy="492.53" r="3.11"/><circle class="cls-1" cx="1253.06" cy="571.17" r="5.89"/></g><g><circle class="cls-1" cx="1431.6" cy="373.2" r="2.99"/><circle class="cls-1" cx="1617.37" cy="327.14" r="5.72"/></g><g><g class="cls-2"><circle class="cls-1" cx="562.98" cy="640.43" r="1.49"/><circle class="cls-1" cx="486.89" cy="537.11" r="2.39"/><circle class="cls-1" cx="473.42" cy="679.75" r="2.24"/><circle class="cls-1" cx="449.48" cy="702.62" r="2.66"/><circle class="cls-1" cx="401.62" cy="572.45" r="2.32"/><circle class="cls-1" cx="362.74" cy="575.55" r="1.68"/><circle class="cls-1" cx="336.71" cy="675.23" r="2.6"/><circle class="cls-1" cx="301.62" cy="628.66" r="2.93"/><circle class="cls-1" cx="269.18" cy="680.58" r="2.46"/><circle class="cls-1" cx="226.82" cy="604.94" r="3.1"/><circle class="cls-1" cx="228.69" cy="551.85" r="1.65"/><circle class="cls-1" cx="109.78" cy="613.68" r="1.69"/><circle class="cls-1" cx="210.92" cy="513.1" r="2.77"/><circle class="cls-1" cx="58.9" cy="510.22" r="2.91"/><circle class="cls-1" cx="160.8" cy="478.18" r="2.95"/><circle class="cls-1" cx="78.53" cy="432.35" r="1.98"/><circle class="cls-1" cx="242.04" cy="459.42" r="1.59"/><circle class="cls-1" cx="247.07" cy="430.06" r="2.89"/><circle class="cls-1" cx="183.38" cy="367.2" r="2.31"/><circle class="cls-1" cx="161.11" cy="293.53" r="1.67"/><circle class="cls-1" cx="238" cy="329.2" r="2.68"/><circle class="cls-1" cx="187.99" cy="265" r="2.98"/><circle class="cls-1" cx="259.6" cy="252.75" r="3.25"/><circle class="cls-1" cx="324.66" cy="247.37" r="2.4"/><circle class="cls-1" cx="308.2" cy="185.22" r="2.27"/><circle class="cls-1" cx="330.36" cy="194.1" r="2.01"/><circle class="cls-1" cx="370.43" cy="197.87" r="3.18"/><circle class="cls-1" cx="315.38" cy="131.27" r="2.21"/><circle class="cls-1" cx="412.44" cy="197.99" r="2.8"/><circle class="cls-1" cx="418.41" cy="169.1" r="1.45"/><circle class="cls-1" cx="355.48" cy="68.87" r="1.73"/><circle class="cls-1" cx="440.4" cy="96.34" r="1.71"/><circle class="cls-1" cx="492.86" cy="61.7" r="3.02"/></g><g><g class="cls-2"><circle class="cls-1" cx="1416.08" cy="166.88" r="1.94"/><circle class="cls-1" cx="1434.04" cy="47.72" r="2.56"/><circle class="cls-1" cx="1475.95" cy="140.5" r="2.81"/><circle class="cls-1" cx="1504.65" cy="97.63" r="3"/><circle class="cls-1" cx="1529.75" cy="41.24" r="1.84"/><circle class="cls-1" cx="1578.5" cy="54.89" r="3.09"/><circle class="cls-1" cx="1631.7" cy="40.2" r="1.58"/><circle class="cls-1" cx="1681.98" cy="125.85" r="1.96"/><circle class="cls-1" cx="1712.18" cy="134.01" r="2.32"/><circle class="cls-1" cx="1695.58" cy="189.17" r="2.34"/><circle class="cls-1" cx="1773.84" cy="145.66" r="1.87"/><circle class="cls-1" cx="1844.83" cy="161.82" r="2.57"/><circle class="cls-1" cx="1788.4" cy="221.42" r="2.93"/><circle class="cls-1" cx="1808.81" cy="295.83" r="2.03"/><circle class="cls-1" cx="1708.43" cy="319.7" r="3.1"/><circle class="cls-1" cx="1668.23" cy="352.32" r="3.1"/><circle class="cls-1" cx="1696.65" cy="396.59" r="1.81"/><circle class="cls-1" cx="1695.93" cy="430.37" r="2.08"/><circle class="cls-1" cx="1724.89" cy="503.77" r="1.88"/><circle class="cls-1" cx="1661.66" cy="498.76" r="2.15"/><circle class="cls-1" cx="1590.15" cy="503.25" r="3.27"/><circle class="cls-1" cx="1651.39" cy="619" r="2.32"/><circle class="cls-1" cx="1620.54" cy="624.17" r="2.49"/><circle class="cls-1" cx="1578.07" cy="654.94" r="2.15"/><circle class="cls-1" cx="1568.74" cy="657.14" r="3.08"/><circle class="cls-1" cx="1461.5" cy="614.6" r="2.02"/><circle class="cls-1" cx="1505.43" cy="725.51" r="2.27"/><circle class="cls-1" cx="1380.82" cy="651.18" r="2.6"/></g><g class="cls-2"><circle class="cls-1" cx="292.79" cy="1039.74" r="1.84"/><circle class="cls-1" cx="221.86" cy="938.51" r="1.99"/><circle class="cls-1" cx="120.24" cy="1029.91" r="2.92"/><circle class="cls-1" cx="154.11" cy="938.18" r="1.54"/><circle class="cls-1" cx="123.26" cy="961.8" r="1.47"/><circle class="cls-1" cx="130.57" cy="886.23" r="1.86"/><circle class="cls-1" cx="126.21" cy="843.04" r="1.57"/><circle class="cls-1" cx="103.76" cy="808.28" r="1.96"/><circle class="cls-1" cx="98.18" cy="804.54" r="1.81"/><circle class="cls-1" cx="148.64" cy="788.39" r="1.84"/><circle class="cls-1" cx="95.96" cy="755.92" r="1.6"/><circle class="cls-1" cx="62.9" cy="697.68" r="3.2"/></g><g><circle class="cls-1" cx="1772.55" cy="1050.49" r="6.05"/><circle class="cls-1" cx="1714.78" cy="983.56" r="5.66"/><circle class="cls-1" cx="1730" cy="980.74" r="4.82"/><circle class="cls-1" cx="1820.45" cy="980.52" r="4.56"/><circle class="cls-1" cx="1676.06" cy="853.12" r="5.68"/><circle class="cls-1" cx="1717.34" cy="843.77" r="3.33"/><circle class="cls-1" cx="1714.07" cy="802.11" r="4.96"/><circle class="cls-1" cx="1872.45" cy="609.53" r="4.63"/></g></g></g><g><circle class="cls-1" cx="570.31" cy="386.05" r="3.29"/><circle class="cls-1" cx="331.62" cy="138.6" r="3.95"/></g><g><circle class="cls-1" cx="198.13" cy="414.76" r="3.47"/><circle class="cls-1" cx="206.8" cy="627.59" r="6.07"/></g><g><circle class="cls-1" cx="1719.78" cy="417.49" r="5.4"/><circle class="cls-1" cx="1689.37" cy="63.43" r="3.17"/><circle class="cls-1" cx="1745.44" cy="84.61" r="3.98"/><circle class="cls-1" cx="1748.32" cy="185.57" r="3.46"/><circle class="cls-1" cx="1712.74" cy="337.33" r="3.2"/></g><circle class="cls-1" cx="587.93" cy="4434.22" r="7.99"/><g><g class="cls-2"><circle class="cls-1" cx="266.94" cy="1492.63" r="5.73"/><circle class="cls-1" cx="428.21" cy="1613.37" r="3.61"/><circle class="cls-1" cx="312.72" cy="1686.61" r="6.35"/><circle class="cls-1" cx="232.16" cy="1692.55" r="4.34"/><circle class="cls-1" cx="358.59" cy="1853.98" r="3.12"/><circle class="cls-1" cx="34.53" cy="1839.3" r="4.32"/><circle class="cls-1" cx="61.55" cy="1883.8" r="5.78"/><circle class="cls-1" cx="271.33" cy="1986.22" r="5.83"/><circle class="cls-1" cx="162.11" cy="2068" r="3.05"/><circle class="cls-1" cx="222.88" cy="2123.74" r="3.43"/><circle class="cls-1" cx="330.28" cy="1989.37" r="3.69"/><circle class="cls-1" cx="276.04" cy="2260.46" r="6.5"/><circle class="cls-1" cx="454.17" cy="2117.86" r="4.52"/><circle class="cls-1" cx="543.49" cy="2022.82" r="5.81"/><circle class="cls-1" cx="566.09" cy="2097.81" r="4.35"/><circle class="cls-1" cx="440.88" cy="2190.66" r="5.02"/><circle class="cls-1" cx="633.4" cy="2341.25" r="5.97"/><circle class="cls-1" cx="598.15" cy="2372.24" r="5.83"/><circle class="cls-1" cx="536.47" cy="2403.34" r="5.54"/><circle class="cls-1" cx="260.51" cy="2349.59" r="5.26"/><circle class="cls-1" cx="496.31" cy="2539.37" r="3.31"/><circle class="cls-1" cx="347.56" cy="2492.02" r="3.42"/><circle class="cls-1" cx="381.08" cy="2651.41" r="6.54"/><circle class="cls-1" cx="199.71" cy="2607.01" r="3.23"/><circle class="cls-1" cx="98.5" cy="2609.58" r="3.51"/><circle class="cls-1" cx="304.79" cy="2766.22" r="6.19"/><circle class="cls-1" cx="210.79" cy="2801.55" r="6.19"/><circle class="cls-1" cx="97.63" cy="2913.23" r="5.15"/><circle class="cls-1" cx="143.73" cy="2971.3" r="5.25"/><circle class="cls-1" cx="176.26" cy="2891.22" r="6.59"/><circle class="cls-1" cx="220.72" cy="2829.23" r="5.63"/><circle class="cls-1" cx="319.49" cy="2767.33" r="5.96"/><circle class="cls-1" cx="337.29" cy="2794.44" r="6.19"/><circle class="cls-1" cx="355.69" cy="2715.38" r="5.77"/><circle class="cls-1" cx="419.72" cy="2815.02" r="3.64"/><circle class="cls-1" cx="442.15" cy="2668.77" r="3.69"/><circle class="cls-1" cx="563.53" cy="3040.83" r="5.23"/><circle class="cls-1" cx="597.21" cy="2839.67" r="5.47"/><circle class="cls-1" cx="637.29" cy="3011.34" r="5.98"/><circle class="cls-1" cx="700.16" cy="2926.01" r="5.37"/><circle class="cls-1" cx="787.85" cy="2679.54" r="2.9"/><circle class="cls-1" cx="883.45" cy="3048.29" r="5.73"/><circle class="cls-1" cx="909.09" cy="2868.18" r="3.96"/></g><g class="cls-2"><circle class="cls-1" cx="1727.61" cy="1486.26" r="4.15"/><circle class="cls-1" cx="1858.06" cy="1477.68" r="6.04"/><circle class="cls-1" cx="1870.38" cy="1577.78" r="3.39"/><circle class="cls-1" cx="1739.03" cy="1763.36" r="4.93"/><circle class="cls-1" cx="1639.05" cy="1879.83" r="5.44"/><circle class="cls-1" cx="1680.34" cy="1973.59" r="4.54"/><circle class="cls-1" cx="1681.76" cy="1826.32" r="3.28"/><circle class="cls-1" cx="1810.22" cy="2033.1" r="4.48"/><circle class="cls-1" cx="1588.32" cy="1873.83" r="4.56"/><circle class="cls-1" cx="1774.87" cy="2214.81" r="6.04"/><circle class="cls-1" cx="1584.67" cy="2142.91" r="6.45"/><circle class="cls-1" cx="1506.68" cy="2203.9" r="6.44"/><circle class="cls-1" cx="1620.15" cy="2120.61" r="4.51"/><circle class="cls-1" cx="1509.23" cy="2293.67" r="4.72"/><circle class="cls-1" cx="1614.6" cy="2283.91" r="3.94"/><circle class="cls-1" cx="1651.35" cy="2330.06" r="4.55"/><circle class="cls-1" cx="1718.74" cy="2316.45" r="3.79"/><circle class="cls-1" cx="1733.52" cy="2407.44" r="4.45"/><circle class="cls-1" cx="1586.85" cy="2570.64" r="4.97"/><circle class="cls-1" cx="1782.11" cy="2508.54" r="6.54"/><circle class="cls-1" cx="1759.27" cy="2547.19" r="5.33"/><circle class="cls-1" cx="1922.82" cy="2582.65" r="3"/><circle class="cls-1" cx="1877.67" cy="2672.94" r="5.44"/><circle class="cls-1" cx="1743.41" cy="2823.94" r="3"/><circle class="cls-1" cx="1813.21" cy="2877.82" r="4.39"/><circle class="cls-1" cx="1835.16" cy="2695.53" r="4.94"/><circle class="cls-1" cx="1717.68" cy="2653.79" r="2.96"/><circle class="cls-1" cx="1602.92" cy="2965.94" r="4.42"/><circle class="cls-1" cx="1503.9" cy="2649.18" r="4.21"/><circle class="cls-1" cx="1439.97" cy="2962.28" r="4.65"/><circle class="cls-1" cx="1369.59" cy="2917.28" r="2.92"/><circle class="cls-1" cx="1347.55" cy="2762.99" r="3"/><circle class="cls-1" cx="1272.9" cy="2702.09" r="3.22"/><circle class="cls-1" cx="1242.07" cy="2729.59" r="2.91"/><circle class="cls-1" cx="1187.66" cy="2827.24" r="6"/><circle class="cls-1" cx="1141.88" cy="2881.65" r="3.33"/><circle class="cls-1" cx="1095.13" cy="2773.6" r="5.96"/></g><g><g class="cls-2"><circle class="cls-1" cx="266.55" cy="3610.19" r="5.73"/><circle class="cls-1" cx="427.81" cy="3730.93" r="3.61"/><circle class="cls-1" cx="312.33" cy="3804.17" r="6.35"/><circle class="cls-1" cx="231.77" cy="3810.11" r="4.34"/><circle class="cls-1" cx="358.19" cy="3971.54" r="3.12"/><circle class="cls-1" cx="34.14" cy="3956.87" r="4.32"/><circle class="cls-1" cx="61.16" cy="4001.36" r="5.78"/><circle class="cls-1" cx="270.94" cy="4103.78" r="5.83"/><circle class="cls-1" cx="161.71" cy="4185.56" r="3.05"/><circle class="cls-1" cx="222.49" cy="4241.3" r="3.43"/><circle class="cls-1" cx="329.89" cy="4106.93" r="3.69"/><circle class="cls-1" cx="275.65" cy="4378.02" r="6.5"/><circle class="cls-1" cx="453.78" cy="4235.42" r="4.52"/><circle class="cls-1" cx="543.1" cy="4140.38" r="5.81"/><circle class="cls-1" cx="565.69" cy="4215.38" r="4.35"/><circle class="cls-1" cx="440.49" cy="4308.22" r="5.02"/><circle class="cls-1" cx="633" cy="4458.81" r="5.97"/><circle class="cls-1" cx="597.76" cy="4489.8" r="5.83"/><circle class="cls-1" cx="536.07" cy="4520.9" r="5.54"/><circle class="cls-1" cx="260.11" cy="4467.15" r="5.26"/><circle class="cls-1" cx="495.92" cy="4656.94" r="3.31"/><circle class="cls-1" cx="347.17" cy="4609.58" r="3.42"/><circle class="cls-1" cx="380.69" cy="4768.98" r="6.54"/><circle class="cls-1" cx="199.31" cy="4724.58" r="3.23"/><circle class="cls-1" cx="98.11" cy="4727.15" r="3.51"/><circle class="cls-1" cx="304.39" cy="4883.79" r="6.19"/><circle class="cls-1" cx="210.4" cy="4919.11" r="6.19"/><circle class="cls-1" cx="97.23" cy="5030.79" r="5.15"/><circle class="cls-1" cx="143.34" cy="5088.87" r="5.25"/><circle class="cls-1" cx="175.87" cy="5008.79" r="6.59"/><circle class="cls-1" cx="220.33" cy="4946.79" r="5.63"/><circle class="cls-1" cx="319.1" cy="4884.89" r="5.96"/><circle class="cls-1" cx="336.9" cy="4912.01" r="6.19"/><circle class="cls-1" cx="355.29" cy="4832.94" r="5.77"/><circle class="cls-1" cx="419.33" cy="4932.59" r="3.64"/><circle class="cls-1" cx="441.75" cy="4786.34" r="3.69"/><circle class="cls-1" cx="563.13" cy="5158.39" r="5.23"/><circle class="cls-1" cx="596.82" cy="4957.23" r="5.47"/><circle class="cls-1" cx="636.9" cy="5128.91" r="5.98"/><circle class="cls-1" cx="699.77" cy="5043.57" r="5.37"/><circle class="cls-1" cx="787.46" cy="4797.11" r="2.9"/><circle class="cls-1" cx="883.06" cy="5165.86" r="5.73"/><circle class="cls-1" cx="908.69" cy="4985.75" r="3.96"/></g><g class="cls-2"><circle class="cls-1" cx="1727.22" cy="3603.83" r="4.15"/><circle class="cls-1" cx="1857.67" cy="3595.24" r="6.04"/><circle class="cls-1" cx="1869.99" cy="3695.34" r="3.39"/><circle class="cls-1" cx="1738.64" cy="3880.93" r="4.93"/><circle class="cls-1" cx="1638.66" cy="3997.39" r="5.44"/><circle class="cls-1" cx="1679.95" cy="4091.15" r="4.54"/><circle class="cls-1" cx="1681.37" cy="3943.88" r="3.28"/><circle class="cls-1" cx="1809.83" cy="4150.67" r="4.48"/><circle class="cls-1" cx="1587.92" cy="3991.39" r="4.56"/><circle class="cls-1" cx="1774.48" cy="4332.37" r="6.04"/><circle class="cls-1" cx="1584.28" cy="4260.48" r="6.45"/><circle class="cls-1" cx="1506.29" cy="4321.46" r="6.44"/><circle class="cls-1" cx="1619.75" cy="4238.17" r="4.51"/><circle class="cls-1" cx="1508.84" cy="4411.23" r="4.72"/><circle class="cls-1" cx="1614.21" cy="4401.48" r="3.94"/><circle class="cls-1" cx="1650.96" cy="4447.62" r="4.55"/><circle class="cls-1" cx="1718.35" cy="4434.01" r="3.79"/><circle class="cls-1" cx="1733.13" cy="4525.01" r="4.45"/><circle class="cls-1" cx="1586.45" cy="4688.21" r="4.97"/><circle class="cls-1" cx="1781.71" cy="4626.11" r="6.54"/><circle class="cls-1" cx="1758.88" cy="4664.75" r="5.33"/><circle class="cls-1" cx="1922.42" cy="4700.22" r="3"/><circle class="cls-1" cx="1877.28" cy="4790.5" r="5.44"/><circle class="cls-1" cx="1743.02" cy="4941.5" r="3"/><circle class="cls-1" cx="1812.82" cy="4995.38" r="4.39"/><circle class="cls-1" cx="1834.77" cy="4813.1" r="4.94"/><circle class="cls-1" cx="1717.29" cy="4771.35" r="2.96"/><circle class="cls-1" cx="1602.52" cy="5083.5" r="4.42"/><circle class="cls-1" cx="1503.51" cy="4766.74" r="4.21"/><circle class="cls-1" cx="1439.57" cy="5079.84" r="4.65"/><circle class="cls-1" cx="1369.2" cy="5034.85" r="2.92"/><circle class="cls-1" cx="1347.16" cy="4880.56" r="3"/><circle class="cls-1" cx="1272.51" cy="4819.66" r="3.22"/><circle class="cls-1" cx="1241.68" cy="4847.16" r="2.91"/><circle class="cls-1" cx="1187.26" cy="4944.81" r="6"/><circle class="cls-1" cx="1141.49" cy="4999.21" r="3.33"/><circle class="cls-1" cx="1094.73" cy="4891.17" r="5.96"/></g></g></g><g><g class="cls-2"><circle class="cls-1" cx="304.79" cy="7728.89" r="6.19"/><circle class="cls-1" cx="210.79" cy="7693.57" r="6.19"/><circle class="cls-1" cx="97.63" cy="7581.89" r="5.15"/><circle class="cls-1" cx="143.73" cy="7523.81" r="5.25"/><circle class="cls-1" cx="176.26" cy="7603.89" r="6.59"/><circle class="cls-1" cx="220.72" cy="7665.88" r="5.63"/><circle class="cls-1" cx="319.49" cy="7727.79" r="5.96"/><circle class="cls-1" cx="337.29" cy="7700.67" r="6.19"/><circle class="cls-1" cx="419.72" cy="7680.09" r="3.64"/><circle class="cls-1" cx="563.53" cy="7454.29" r="5.23"/><circle class="cls-1" cx="597.21" cy="7655.45" r="5.47"/><circle class="cls-1" cx="637.29" cy="7483.77" r="5.98"/><circle class="cls-1" cx="700.16" cy="7569.11" r="5.37"/><circle class="cls-1" cx="883.45" cy="7446.82" r="5.73"/><circle class="cls-1" cx="909.09" cy="7626.93" r="3.96"/></g><g class="cls-2"><circle class="cls-1" cx="1743.41" cy="7671.18" r="3"/><circle class="cls-1" cx="1813.21" cy="7617.3" r="4.39"/><circle class="cls-1" cx="1602.92" cy="7529.17" r="4.42"/><circle class="cls-1" cx="1439.97" cy="7532.83" r="4.65"/><circle class="cls-1" cx="1369.59" cy="7577.83" r="2.92"/><circle class="cls-1" cx="1347.55" cy="7732.12" r="3"/><circle class="cls-1" cx="1187.66" cy="7667.87" r="6"/><circle class="cls-1" cx="1141.88" cy="7613.47" r="3.33"/><circle class="cls-1" cx="1095.13" cy="7721.51" r="5.96"/></g><g><g class="cls-2"><circle class="cls-1" cx="266.55" cy="6884.92" r="5.73"/><circle class="cls-1" cx="427.81" cy="6764.19" r="3.61"/><circle class="cls-1" cx="312.33" cy="6690.94" r="6.35"/><circle class="cls-1" cx="231.77" cy="6685" r="4.34"/><circle class="cls-1" cx="358.19" cy="6523.57" r="3.12"/><circle class="cls-1" cx="34.14" cy="6538.25" r="4.32"/><circle class="cls-1" cx="61.16" cy="6493.75" r="5.78"/><circle class="cls-1" cx="270.94" cy="6391.33" r="5.83"/><circle class="cls-1" cx="161.71" cy="6309.56" r="3.05"/><circle class="cls-1" cx="222.49" cy="6253.81" r="3.43"/><circle class="cls-1" cx="329.89" cy="6388.18" r="3.69"/><circle class="cls-1" cx="275.65" cy="6117.09" r="6.5"/><circle class="cls-1" cx="453.78" cy="6259.69" r="4.52"/><circle class="cls-1" cx="543.1" cy="6354.73" r="5.81"/><circle class="cls-1" cx="565.69" cy="6279.74" r="4.35"/><circle class="cls-1" cx="440.49" cy="6186.89" r="5.02"/><circle class="cls-1" cx="633" cy="6036.3" r="5.97"/><circle class="cls-1" cx="597.76" cy="6005.31" r="5.83"/><circle class="cls-1" cx="536.07" cy="5974.21" r="5.54"/><circle class="cls-1" cx="260.11" cy="6027.96" r="5.26"/><circle class="cls-1" cx="495.92" cy="5838.18" r="3.31"/><circle class="cls-1" cx="347.17" cy="5885.53" r="3.42"/><circle class="cls-1" cx="380.69" cy="5726.14" r="6.54"/><circle class="cls-1" cx="199.31" cy="5770.54" r="3.23"/><circle class="cls-1" cx="98.11" cy="5767.97" r="3.51"/><circle class="cls-1" cx="304.39" cy="5611.33" r="6.19"/><circle class="cls-1" cx="210.4" cy="5576" r="6.19"/><circle class="cls-1" cx="97.23" cy="5464.32" r="5.15"/><circle class="cls-1" cx="143.34" cy="5406.25" r="5.25"/><circle class="cls-1" cx="175.87" cy="5486.33" r="6.59"/><circle class="cls-1" cx="220.33" cy="5548.32" r="5.63"/><circle class="cls-1" cx="319.1" cy="5610.22" r="5.96"/><circle class="cls-1" cx="336.9" cy="5583.11" r="6.19"/><circle class="cls-1" cx="355.29" cy="5662.17" r="5.77"/><circle class="cls-1" cx="419.33" cy="5562.53" r="3.64"/><circle class="cls-1" cx="441.75" cy="5708.78" r="3.69"/><circle class="cls-1" cx="563.13" cy="5336.72" r="5.23"/><circle class="cls-1" cx="596.82" cy="5537.88" r="5.47"/><circle class="cls-1" cx="636.9" cy="5366.21" r="5.98"/><circle class="cls-1" cx="699.77" cy="5451.54" r="5.37"/><circle class="cls-1" cx="787.46" cy="5698.01" r="2.9"/><circle class="cls-1" cx="883.06" cy="5329.26" r="5.73"/><circle class="cls-1" cx="908.69" cy="5509.37" r="3.96"/></g><g class="cls-2"><circle class="cls-1" cx="1727.22" cy="6891.29" r="4.15"/><circle class="cls-1" cx="1857.67" cy="6899.87" r="6.04"/><circle class="cls-1" cx="1869.99" cy="6799.77" r="3.39"/><circle class="cls-1" cx="1738.64" cy="6614.19" r="4.93"/><circle class="cls-1" cx="1638.66" cy="6497.72" r="5.44"/><circle class="cls-1" cx="1679.95" cy="6403.97" r="4.54"/><circle class="cls-1" cx="1681.37" cy="6551.23" r="3.28"/><circle class="cls-1" cx="1809.83" cy="6344.45" r="4.48"/><circle class="cls-1" cx="1587.92" cy="6503.72" r="4.56"/><circle class="cls-1" cx="1774.48" cy="6162.75" r="6.04"/><circle class="cls-1" cx="1584.28" cy="6234.64" r="6.45"/><circle class="cls-1" cx="1506.29" cy="6173.66" r="6.44"/><circle class="cls-1" cx="1619.75" cy="6256.94" r="4.51"/><circle class="cls-1" cx="1508.84" cy="6083.88" r="4.72"/><circle class="cls-1" cx="1614.21" cy="6093.64" r="3.94"/><circle class="cls-1" cx="1650.96" cy="6047.49" r="4.55"/><circle class="cls-1" cx="1718.35" cy="6061.1" r="3.79"/><circle class="cls-1" cx="1733.13" cy="5970.11" r="4.45"/><circle class="cls-1" cx="1586.45" cy="5806.91" r="4.97"/><circle class="cls-1" cx="1781.71" cy="5869.01" r="6.54"/><circle class="cls-1" cx="1758.88" cy="5830.36" r="5.33"/><circle class="cls-1" cx="1922.42" cy="5794.9" r="3"/><circle class="cls-1" cx="1877.28" cy="5704.61" r="5.44"/><circle class="cls-1" cx="1743.02" cy="5553.61" r="3"/><circle class="cls-1" cx="1812.82" cy="5499.73" r="4.39"/><circle class="cls-1" cx="1834.77" cy="5682.02" r="4.94"/><circle class="cls-1" cx="1717.29" cy="5723.76" r="2.96"/><circle class="cls-1" cx="1602.52" cy="5411.61" r="4.42"/><circle class="cls-1" cx="1503.51" cy="5728.37" r="4.21"/><circle class="cls-1" cx="1439.57" cy="5415.27" r="4.65"/><circle class="cls-1" cx="1369.2" cy="5460.27" r="2.92"/><circle class="cls-1" cx="1347.16" cy="5614.56" r="3"/><circle class="cls-1" cx="1272.51" cy="5675.46" r="3.22"/><circle class="cls-1" cx="1241.68" cy="5647.96" r="2.91"/><circle class="cls-1" cx="1187.26" cy="5550.31" r="6"/><circle class="cls-1" cx="1141.49" cy="5495.9" r="3.33"/><circle class="cls-1" cx="1094.73" cy="5603.95" r="5.96"/></g></g></g><g><path d="M1425.72,4528.17h-2.97l-.3,2c.18-.02,.35-.05,.64-.05,.6,0,1.2,.13,1.68,.42,.61,.35,1.12,1.02,1.12,2,0,1.52-1.21,2.66-2.9,2.66-.85,0-1.57-.24-1.94-.48l.26-.8c.32,.19,.96,.43,1.67,.43,1,0,1.85-.65,1.85-1.69-.01-1.01-.68-1.73-2.24-1.73-.44,0-.79,.05-1.08,.08l.5-3.74h3.73v.89Z"/><path d="M1432.28,4527.28v.7l-3.39,7.1h-1.09l3.38-6.9v-.03h-3.81v-.88h4.92Z"/><path d="M1438.44,4527.28v.7l-3.39,7.1h-1.09l3.38-6.9v-.03h-3.81v-.88h4.92Z"/><path d="M1438.99,4526.68h6v8.4h-6v-8.4Zm.6,7.26l2.04-3.06-2.04-3.06v6.12Zm4.44-6.66h-4.08l2.04,3.06,2.04-3.06Zm0,7.2l-2.04-3.06-2.04,3.06h4.08Zm.36-.54v-6.12l-2.04,3.06,2.04,3.06Z"/></g></g><circle class="cls-1" cx="1295.39" cy="327.3" r="4.38"/><circle class="cls-1" cx="554.24" cy="226.81" r="4.38"/><circle class="cls-1" cx="640" cy="573.58" r="4.66"/><circle class="cls-1" cx="678.19" cy="353.15" r="5.31"/><circle class="cls-1" cx="1178.74" cy="486.37" r="4.38"/><g><circle class="cls-1" cx="1261.99" cy="683.11" r="3.21"/><circle class="cls-1" cx="1311.12" cy="492.53" r="3.11"/><circle class="cls-1" cx="1253.06" cy="571.17" r="5.89"/></g><g><circle class="cls-1" cx="1431.6" cy="373.2" r="2.99"/><circle class="cls-1" cx="1617.37" cy="327.14" r="5.72"/></g><g><circle class="cls-1" cx="570.31" cy="386.05" r="3.29"/><circle class="cls-1" cx="331.62" cy="138.6" r="3.95"/></g><g><circle class="cls-1" cx="198.13" cy="414.76" r="3.47"/><circle class="cls-1" cx="206.8" cy="627.59" r="6.07"/></g><g><circle class="cls-1" cx="1719.78" cy="417.49" r="5.4"/><circle class="cls-1" cx="1689.37" cy="63.43" r="3.17"/><circle class="cls-1" cx="1745.44" cy="84.61" r="3.98"/><circle class="cls-1" cx="1748.32" cy="185.57" r="3.46"/><circle class="cls-1" cx="1712.74" cy="337.33" r="3.2"/></g><circle class="cls-1" cx="288.07" cy="1674.27" r="5.75"/><circle class="cls-1" cx="420.83" cy="2299.29" r="7.99"/><circle class="cls-1" cx="588.32" cy="2316.66" r="7.99"/><circle class="cls-1" cx="397.34" cy="1897.93" r="8.86"/><ellipse class="cls-1" cx="433.09" cy="1692.66" rx="6.87" ry="8.56" transform="translate(-726.83 386.04) rotate(-27.24)"/><ellipse class="cls-1" cx="339.81" cy="1429.22" rx="6.57" ry="6.16" transform="translate(-616.58 314.12) rotate(-27.24)"/><circle class="cls-1" cx="340.15" cy="2012.32" r="1.63"/></g></svg>