<?xml version="1.0" encoding="UTF-8"?><svg id="Capa_1" xmlns="http://www.w3.org/2000/svg" width="873.45" height="41.36" viewBox="0 0 873.45 41.36"><defs><style>.cls-1{fill:#fff;}.cls-2{fill:none;stroke:#fff;stroke-miterlimit:10;stroke-width:1.01px;}</style></defs><polyline class="cls-2" points="5.62 26.62 102.64 10.98 211.91 36.51 303.32 32.94 316.09 14.04 401.87 31.4 462.13 19.15 711.32 24.26 741.96 10.98 868.49 26.62"/><circle class="cls-1" cx="6.13" cy="25.79" r="6.13"/><circle class="cls-1" cx="101.87" cy="11.23" r="3.83"/><circle class="cls-1" cx="231.57" cy="6.13" r="6.13"/><circle class="cls-1" cx="867.32" cy="27.57" r="6.13"/><circle class="cls-1" cx="400.85" cy="30.89" r="3.57"/><circle class="cls-1" cx="302.04" cy="34.21" r="3.83"/><circle class="cls-1" cx="462.13" cy="18.89" r="3.83"/><circle class="cls-1" cx="712.6" cy="25.02" r="4.6"/><circle class="cls-1" cx="317.11" cy="14.04" r="4.6"/><line class="cls-2" x1="212.94" y1="39.06" x2="231.83" y2="6.38"/><circle class="cls-1" cx="213.7" cy="37.53" r="3.83"/><line class="cls-2" x1="230.3" y1="4.34" x2="320.17" y2="13.02"/><circle class="cls-1" cx="742.6" cy="9.32" r="3.57"/></svg>