<?xml version="1.0" encoding="UTF-8"?><svg id="Capa_1" xmlns="http://www.w3.org/2000/svg" width="652.6" height="65.71" viewBox="0 0 652.6 65.71"><defs><style>.cls-1{fill:#fff;}.cls-2{fill:none;stroke:#fff;stroke-miterlimit:10;stroke-width:1.01px;}</style></defs><ellipse class="cls-1" cx="158.15" cy="26.29" rx="6.87" ry="8.56" transform="translate(5.51 75.32) rotate(-27.24)"/><polyline class="cls-2" points="6.28 41.81 103.66 41.81 186.38 29.07 339.06 41.81 422.81 19.11 490.81 41.81 566 26.75 650.55 41.81"/><circle class="cls-1" cx="565.53" cy="26.77" r="6.13"/><circle class="cls-1" cx="184.85" cy="29.07" r="6.13"/><circle class="cls-1" cx="6.13" cy="41.84" r="6.13"/><circle class="cls-1" cx="648.04" cy="42.28" r="4.55"/><circle class="cls-1" cx="490.72" cy="41.58" r="2.41"/><circle class="cls-1" cx="423" cy="20.12" r="7.1"/><circle class="cls-1" cx="239.94" cy="7.1" r="7.1"/><circle class="cls-1" cx="95.17" cy="41.57" r="3.44"/><circle class="cls-1" cx="40.02" cy="56.89" r="5.6"/><circle class="cls-1" cx="338.89" cy="42.6" r="4.81"/><circle class="cls-1" cx="419.23" cy="62.35" r="3.37"/><line class="cls-2" x1="489.7" y1="41.32" x2="420" y2="62.01"/><line class="cls-2" x1="339.4" y1="42.43" x2="419.4" y2="61.84"/><line class="cls-2" x1="184.85" y1="28.3" x2="240.77" y2="5.32"/><line class="cls-2" x1="104.43" y1="41.32" x2="40.09" y2="56.64"/></svg>