<?xml version="1.0" encoding="UTF-8"?><svg id="Capa_1" xmlns="http://www.w3.org/2000/svg" width="604.5" height="982.9" viewBox="0 0 604.5 982.9"><defs><style>.cls-1{fill:#fff;}.cls-2{fill:none;stroke:#fff;stroke-miterlimit:10;stroke-width:1.01px;}</style></defs><circle class="cls-1" cx="335.54" cy="376.25" r="8.18"/><ellipse class="cls-1" cx="260.99" cy="599.91" rx="6.87" ry="8.56" transform="translate(-245.68 186.03) rotate(-27.24)"/><g><ellipse class="cls-1" cx="332.13" cy="202.68" rx="6.57" ry="6.16" transform="translate(-55.94 174.53) rotate(-27.24)"/><g><g><circle class="cls-1" cx="548.46" cy="26.97" r="8.18"/><line class="cls-2" x1="548.66" y1="26.99" x2="604.5" y2="26.99"/></g><circle class="cls-1" cx="205.84" cy="70.88" r="8.18"/><circle class="cls-1" cx="83.28" cy="251.65" r="5.75"/><circle class="cls-1" cx="216.05" cy="876.67" r="7.99"/><circle class="cls-1" cx="83.28" cy="510.03" r="11.23"/><circle class="cls-1" cx="11.23" cy="605.11" r="11.23"/><circle class="cls-1" cx="192.56" cy="475.31" r="8.86"/><ellipse class="cls-1" cx="228.31" cy="270.03" rx="6.87" ry="8.56" transform="translate(-98.29 134.47) rotate(-27.24)"/><ellipse class="cls-1" cx="135.03" cy="6.59" rx="6.57" ry="6.16" transform="translate(11.96 62.54) rotate(-27.24)"/><circle class="cls-1" cx="135.37" cy="589.69" r="3.88"/><polyline class="cls-2" points="545.05 22.34 416.54 .52 209.37 68.14 87 248.05 229.47 266.43 336.7 373.66 196.62 472.91 136.53 590.17 7.85 606.65 215.96 877.15 385.73 892.47 534.83 968.05"/><line class="cls-2" x1="199.85" y1="69.32" x2="334.66" y2="204.13"/><line class="cls-2" x1="194.75" y1="473.75" x2="261.13" y2="598.34"/><line class="cls-2" x1="6.86" y1="605.54" x2="83.43" y2="510.52"/><line class="cls-2" x1="191.68" y1="472.73" x2="89.56" y2="504.39"/><line class="cls-2" x1="203.94" y1="71.37" x2="136.53" y2="6"/></g></g><g><circle class="cls-1" cx="540.46" cy="974.71" r="8.18"/><line class="cls-2" x1="540.66" y1="974.74" x2="596.5" y2="974.74"/></g><circle class="cls-1" cx="383.54" cy="894.03" r="7.99"/></svg>