<?xml version="1.0" encoding="UTF-8"?><svg id="Capa_1" xmlns="http://www.w3.org/2000/svg" width="746.95" height="933.02" viewBox="0 0 746.95 933.02"><defs><style>.cls-1{fill:#fff;}.cls-2{stroke:#fff;stroke-miterlimit:10;stroke-width:1.01px;}.cls-2,.cls-3{fill:none;}</style></defs><line class="cls-3" x1="-790.24" y1="1173.54" x2="481.25" y2="891.67"/><g><g><circle class="cls-1" cx="56.04" cy="50.11" r="8.18"/><line class="cls-2" x1="55.84" y1="50.13" x2="0" y2="50.13"/></g><g><circle class="cls-1" cx="543.07" cy="76.67" r="8.18"/><circle class="cls-1" cx="638.56" cy="374.37" r="8.18"/><circle class="cls-1" cx="665.62" cy="257.43" r="5.75"/><circle class="cls-1" cx="741.19" cy="611.82" r="5.75"/><circle class="cls-1" cx="532.85" cy="882.45" r="7.99"/><circle class="cls-1" cx="232.09" cy="920.75" r="12.26"/><circle class="cls-1" cx="365.36" cy="899.82" r="7.99"/><circle class="cls-1" cx="610.47" cy="594.97" r="7.99"/><circle class="cls-1" cx="665.62" cy="515.82" r="11.23"/><circle class="cls-1" cx="556.34" cy="481.09" r="8.86"/><ellipse class="cls-1" cx="609.17" cy="313.6" rx="8.56" ry="6.87" transform="translate(51.49 711.63) rotate(-62.76)"/><ellipse class="cls-1" cx="613.88" cy="12.38" rx="6.16" ry="6.57" transform="translate(321.85 552.49) rotate(-62.76)"/><ellipse class="cls-1" cx="332.01" cy="6.25" rx="6.16" ry="6.57" transform="translate(174.46 298.56) rotate(-62.76)"/><circle class="cls-1" cx="613.53" cy="595.48" r="1.63"/><polyline class="cls-2" points="54.98 52.63 332.37 6.3 539.53 73.93 661.9 253.83 608.01 310 643.24 374.34 552.28 478.69 612.37 595.96 741.05 612.43 532.94 882.93 363.18 898.26"/><line class="cls-2" x1="734.92" y1="614.34" x2="665.47" y2="516.3"/><line class="cls-2" x1="557.22" y1="478.51" x2="659.35" y2="510.17"/><line class="cls-2" x1="544.96" y1="77.15" x2="612.37" y2="11.79"/><line class="cls-2" x1="232.69" y1="919.7" x2="367.49" y2="896.72"/></g></g></svg>