<?xml version="1.0" encoding="UTF-8"?><svg id="Capa_1" xmlns="http://www.w3.org/2000/svg" width="1076.79" height="40.87" viewBox="0 0 1076.79 40.87"><defs><style>.cls-1{fill:#fff;}.cls-2{fill:none;stroke:#fff;stroke-miterlimit:10;stroke-width:.77px;}</style></defs><polyline class="cls-2" points="4.6 33.1 92.18 17.05 133.79 9.42 238.98 25.31 320.17 21.11 357.96 33.1 466.72 19.62 642.89 18.72 734.81 29.51 906.38 22.91 986.04 33.1 1073.77 33.1"/><circle class="cls-1" cx="6.13" cy="32.17" r="6.13"/><circle class="cls-1" cx="243.06" cy="23.32" r="6.13"/><circle class="cls-1" cx="400.85" cy="6.13" r="6.13"/><circle class="cls-1" cx="159.15" cy="34.04" r="2.72"/><circle class="cls-1" cx="133.28" cy="10.21" r="4.81"/><circle class="cls-1" cx="356.43" cy="32.94" r="4.81"/><circle class="cls-1" cx="731.21" cy="28.94" r="6.82"/><circle class="cls-1" cx="984.49" cy="34.04" r="6.82"/><circle class="cls-1" cx="646.19" cy="19.74" r="4.81"/><circle class="cls-1" cx="907.13" cy="21.79" r="4.81"/><circle class="cls-1" cx="320.17" cy="20.68" r="3.54"/><circle class="cls-1" cx="466.21" cy="19.4" r="3.54"/><line class="cls-2" x1="133.45" y1="9.72" x2="159.32" y2="33.7"/><line class="cls-2" x1="399.83" y1="7.15" x2="464.17" y2="18.72"/><line class="cls-2" x1="317.11" y1="20.66" x2="398.3" y2="8.08"/><circle class="cls-1" cx="1074.06" cy="32.91" r="2.72"/></svg>