<svg width="668" height="293" viewBox="0 0 668 293" fill="none" xmlns="http://www.w3.org/2000/svg">
    <path d="M183.1 241.4C179.3 241.4 174 241 169.9 238.9C166.4 237.1 161 232.6 164.8 223C170.8 208.5 198.5 206.6 224.8 206.6C228.8 206.6 233.2 206.6 238.7 206.8H238.8L238.9 206.7C243.3 200.9 246.7 194.2 250.6 186.5C251.5 184.7 252.5 182.8 253.4 180.9L254.2 179.3L253 180.6C253 180.6 249.9 184.2 248.2 186C243.2 191.1 238.9 194.4 235.2 195.9C235.2 195.9 234.2 196.2 232.8 196.2C231.5 196.2 229.7 195.9 228.5 194.2C226.5 191.5 226.6 186.4 228.8 178.8C234.4 160 257.7 135.7 272.6 133.1C272.8 133.1 273 133.1 273.2 133.1C273.8 133.1 274.4 133.2 275 133.5C276.4 134.2 277.3 135.6 277.4 137.2V137.8L277.8 137.3C279.1 135.5 280.3 133.9 281.5 132.4C282.7 130.7 284.6 129.5 286.6 129.1C286.8 129.1 286.9 129.1 287 129.1C287.4 129.1 287.7 129.2 287.9 129.5C288.2 130.1 287.9 131.3 287.1 132.4C280.8 141.5 263.3 167.9 257.8 180.9C257.6 181.5 257.3 182 257 182.6C256.3 183.9 255.4 186.3 256.3 187.8C256.8 188.6 257.7 189 259.1 189C259.5 189 260 189 260.4 188.9C261.5 188.9 271.4 188 292.9 156.6C294.5 153.6 298.9 148 299.1 147.8H299.2V147.7C301.5 135 314.5 122.9 325.8 122.9H326C329.2 122.9 331.5 124 333 126.2C338.3 134.1 330.4 153.7 330.4 153.9C329.9 155.7 329 157.8 328.3 159.4L328 160L328.5 159.7C335.2 156.3 346 147.1 346.1 147C347.9 144.4 348.8 143 351 138.5C354.4 132.2 358.7 125.1 363.1 118.4L363.3 118.1C364.5 116.1 364.8 115.6 367.1 115.1C367.2 115.1 367.2 115.1 367.3 115.1C367.4 115.1 367.4 115.1 367.5 115.1C367.6 115.1 367.7 115.2 367.8 115.2C368.4 115.5 368.7 115.9 368.9 116.3C369.1 117.1 368.7 118.2 367.7 119.7C362.2 128.1 356.9 137.2 353.5 143.3C349.3 150.8 346.6 162.1 346.6 162.2L347 162.3C352.9 149.3 366.4 129.4 376.5 118.8C381.6 113.6 385.9 111.2 390.3 111.1C391.4 111.1 392.1 111.4 392.5 112.1C394.8 116.4 384.2 132.4 380.9 137.3C379.2 139.8 377.7 142.2 376.4 144.6C370.6 155 368.2 163.1 369.8 166.8C370.3 167.9 371.1 168.6 372.3 169C372.8 169 383.3 168.2 409.3 128.3C413.7 121.3 417.2 115.2 420.1 110.2L420.3 109.9H419.9C414.9 109.7 411.8 108.3 411 105.8C409.8 102.1 413.4 96.7 417.5 93.6C420.6 91.2 424.1 89.8 427 89.8C428.9 89.8 430.4 90.4 431.2 91.5C433.1 93.9 427.3 103.9 425.5 106.9L425.3 107.2H425.7C432.5 107.7 436.7 109.5 438.2 112.5C439.6 115.4 438.6 119.5 435.3 124.6L429.2 135.2C418.1 152.4 413.8 155.2 409.2 158.3C408.2 158.9 407.2 159.6 406.1 160.4L406 160.5L406.1 160.7C406.5 161.6 406.6 163.5 406.7 164.9C406.7 165.6 406.8 166.2 406.8 166.7V167L407.1 166.8C415.8 161.9 421.7 158 427.9 151.8C435.7 144.1 441.7 137.3 446.7 130.6L446.8 130.5C456.4 112.5 474.9 95.9 486.4 95.1C486.4 95.1 486.8 95.1 487.4 95.1C488 95.1 488.8 95.1 489.5 95.3C491.1 95.8 492 96.8 492.5 97.5C492.7 98.1 492.9 98.9 493.2 99.7L493.3 100.2L493.6 99.8C495.1 97.7 496.1 96.2 497.1 95C498.6 93.1 499.8 92.1 502.2 91.7C502.5 91.7 502.8 91.6 503 91.6C503.5 91.6 503.9 91.7 504 92C504.2 92.4 503.9 93.3 503.3 94.3C497 103.5 471.7 142.1 473.7 148.9C473.8 149.4 474.1 149.7 474.5 149.9H474.6C475.2 149.9 488.6 149.4 515.3 108C516 107 516.8 106.5 517.8 106.3C517.9 106.3 518 106.3 518 106.3C518.4 106.3 518.6 106.5 518.8 106.7C519 107.1 519 107.7 518.7 108.3C512.3 118.3 485.8 153.8 473.3 154.3C473.3 154.3 473.1 154.4 472.8 154.4C472.2 154.4 471.3 154.2 470.6 153.3C469.6 152 468.8 148.7 471 140.9L471.3 139.9L470.6 140.7C470.3 141.1 469.9 141.6 469.5 142C469.1 142.4 468.7 142.9 468.4 143.3C461.8 151.1 455.9 156.1 451.1 158.2C451.1 158.2 449.5 158.8 447.7 159.1C447.7 159.1 447.2 159.2 446.5 159.2C445.3 159.2 443.5 158.9 442.3 157.2C440.3 154.7 440.2 149.9 441.9 143.1L442.4 141.8L441.6 142.8C426.3 161 407 170.7 406.8 170.8H406.7V170.9C405.9 175.7 398.7 184.1 392.9 190.2C388.1 195.2 383.1 199.5 377.9 203C366.9 210.4 355.8 214.2 344.1 214.9C344.1 214.9 343.4 214.9 342.2 214.9C339 214.9 330.9 214.6 325.3 211.7C321.8 209.9 316.4 205.4 320.2 195.8C322.6 189.7 329.4 185.5 340.8 182.9C343.8 182.2 347.1 181.7 350.7 181.3C356.6 180.7 371.1 179.3 378.6 177.7C386.1 176.2 394.8 173 403.1 168.8L403.2 168.7V168.4C403.2 166.5 403.3 162.9 402.3 160.9C401.8 160 402.1 158.9 403 158.4C414.6 151.1 421.5 140.9 426.7 132L434.2 119C435.5 116.8 435.7 114.9 434.9 113.5C433.2 110.3 427.1 110 424.5 109.8H424L423.9 109.9C420.5 116.3 416.9 122.2 414.5 126C414.4 126.2 414.4 126.3 414.3 126.5C407.4 137.2 384.1 172.3 372 172.7C372 172.7 371.7 172.7 371.2 172.7C369.8 172.7 367.3 172.4 365.8 170.1C363.6 166.6 364.6 159.9 368.8 150.7C370.9 145.9 378.3 132.7 378.4 132.6C384.1 123.3 386.9 117.6 386.3 116.5C386.2 116.4 386.2 116.3 386.1 116.3C385.9 116.1 385.6 116 385.3 116C382 116 374.1 124.7 365 138.1C353.8 154.5 345.3 175 345.2 175.2C345 175.8 344.9 175.9 344.8 175.9C344.7 175.9 344.6 175.9 344.4 175.8C344.3 175.8 344.1 175.7 343.9 175.7C343.1 175.5 342.5 174.9 342 174.1C340 170.3 341.9 160.7 344.5 153.4L344.9 152.4L344.2 153.2C340.9 156.7 331.3 162.4 326.1 164.5H326V164.6C320.6 174 313.7 183.8 303.4 185C302.7 185.1 302 185.1 301.3 185.1C294.1 185.1 290.5 180.5 289.6 176.6C288.9 173.9 288.9 170.6 289.6 166.8L289.8 165.9L289.2 166.6C284.7 172.6 279.2 180 273.4 184.8C266.1 190.9 261 192.1 257.9 192.1C254.6 192.1 253 190.6 253 190.6L252.8 190.4L252.7 190.6C252.2 191.5 251.7 192.4 251.1 193.5C248.8 197.6 246 202.6 242.7 206.9L242.4 207.2H242.8C245.5 207.3 248.5 207.3 251.9 207.3C259.8 207.3 268.6 207.1 274.3 206.8C288.1 206 297.7 201.9 302 195.1C303.4 192.9 304.8 192.6 305.4 192.6C305.7 192.6 305.8 192.7 305.8 192.7C306.1 192.8 306.4 192.8 306.6 192.9C307.7 193.1 307.9 193.2 308.3 194.3C308.5 195.4 307.6 197.4 307.6 197.4C300.1 209.6 271.9 210.8 271.6 210.8H239.1L239 210.9C238.8 211.2 219.2 237 188.9 241C188.7 241.1 186.3 241.4 183.1 241.4ZM219.6 209.8C208.7 209.8 172.9 210.8 167.7 223.6C166.4 226.7 166.6 229.7 168.2 232.1C170.7 235.8 176.3 237.9 184.2 237.9C185.9 237.9 187.8 237.8 189.7 237.6C201 236.4 219.7 228.7 235.4 210.8L235.7 210.5H235.3C230.7 210 225.1 209.8 219.6 209.8ZM401.4 173.3C395.8 175.7 388.5 178.1 379.7 180.2C367.2 183.3 347.8 185 347.6 185C333.2 187.2 324.8 191.1 322.6 196.6C321.4 199.5 321.6 202.3 323.2 204.6C325.9 208.6 332.2 210.8 340.9 210.8C342.3 210.8 343.8 210.7 345.4 210.6C353.8 210 368.6 205.4 382.7 194.7L389 189.7C395.5 183.1 399.8 177.7 401.7 173.6L402 173.1L401.4 173.3ZM271.5 136.3C268.6 136.3 261.6 138.9 248 156C244.3 160.7 241.2 165.7 238.6 170.9C235.2 178.1 231.3 187.4 232.7 190.9C232.9 191.5 233.3 192 233.9 192.2C234.1 192.2 234.4 192.3 234.6 192.3C234.9 192.3 235.5 192.3 235.9 192.1C239.2 190.4 244.3 186.9 250.3 179.8C251.9 177.9 253.9 175.3 256.3 172.1C258.9 168.7 261.3 165.1 263.5 161.3L271.9 147C273.3 144.5 274.1 141.9 273.9 139.6C273.8 138.7 273.7 137.9 273.4 137.4C273.1 136.9 272.8 136.7 272.5 136.4H272.4C272.4 136.4 272 136.3 271.5 136.3ZM299.1 154.2C293.1 164.1 291.3 171.6 293.8 176.3C295.9 180.3 300.3 180.9 301.6 181C301.7 181 301.9 181 302.1 181C303.1 181 304.9 180.9 305.7 180.7C309.7 179.8 313.6 176.8 317.8 171.6C319.2 170 321.8 165.9 322 165.7L322.2 165.3H321.8C321.8 165.3 319.7 165.4 317.6 165.4C316.4 165.4 315.4 165.4 314.6 165.3C303.3 165 299.7 154.3 299.6 154.2L299.5 153.7L299.1 154.2ZM312.7 137.2C313.4 137.2 313.9 137.5 314.1 138C314.3 138.6 314 139.6 312.9 140.4C308.8 143.5 305.2 147 302.9 150.2V150.3V150.4C302.8 153.2 303.6 155.5 305.3 157.4C309.2 161.7 316.4 162 316.7 162C317.6 162.1 318.6 162.2 319.6 162.2C321.1 162.2 322.6 162.1 324.2 161.8H324.3V161.7C325.3 159.6 326.3 157.4 327.1 155.3C333 138.6 331.7 131.5 329.6 128.6C328 126.4 325.8 126.1 325 126.1C324.7 126.1 324.5 126.1 324.5 126.1C317.1 126.8 308.3 134.1 306 139.6L305.7 140.2L306.3 139.9C309 138.3 311.3 137.3 312.7 137.3V137.2ZM485.9 98.5C484.6 98.5 483.2 98.8 482.1 99.2C478.3 100.8 473.6 103.1 466.5 110.1C458.4 118.1 451.8 127.9 447.8 137.7C443.9 147.1 443.5 152.5 446.4 154.3C446.9 154.6 447.5 154.8 448.2 154.8C450.1 154.8 452.1 153.7 452.4 153.5C456.6 151.3 460.8 147.5 465.8 141.6C470.2 136.4 473.8 131.3 475.5 128.7C485.1 115.2 491.3 101.9 489.1 99.7C489 99.6 488.9 99.4 488.8 99.3C488.1 98.7 486.8 98.5 485.9 98.5ZM426.2 94.2C424.5 94.2 418.6 97.3 415.4 103C415.4 103 414.8 104 415.3 104.9C416 106.1 418 106.8 421.5 106.9H421.6L421.7 106.8C425.5 98.8 427 95.1 426.5 94.4C426.5 94.3 426.4 94.2 426.2 94.2Z" fill="white"/>
    <path d="M426.9 89.9C428.7 89.9 430.2 90.5 430.9 91.5C432.1 93 429.9 98.8 425.2 106.6L424.8 107.2L425.5 107.3C432.2 107.8 436.3 109.5 437.8 112.5C439.2 115.3 438.2 119.3 434.9 124.4L428.8 135C417.7 152.2 413.4 155 408.8 158C407.8 158.6 406.8 159.3 405.7 160.1L405.4 160.3L405.6 160.6C406 161.5 406.1 163.3 406.2 164.8C406.2 165.5 406.3 166.1 406.3 166.6L406.4 167.2L407 166.9C415.7 162 421.6 158.1 427.9 151.9C435.7 144.2 441.7 137.4 446.7 130.6C456.2 112.6 474.7 96.1 486.2 95.3C486.2 95.3 486.6 95.3 487.2 95.3C488 95.3 488.7 95.4 489.2 95.5C490.7 95.9 491.6 96.9 492.1 97.6C492.3 98.3 492.6 99 492.8 99.8L493.1 100.7L493.6 99.9C495 97.8 496.1 96.3 497.1 95.1C498.6 93.3 499.7 92.3 502.1 91.9C502.4 91.9 502.6 91.8 502.9 91.8C503.2 91.8 503.6 91.8 503.7 92.1C503.8 92.4 503.7 93 503 94.2C496.2 104 471.4 142.1 473.4 149C473.6 149.6 473.9 149.9 474.4 150.1H474.5H474.6C475.2 150.1 488.7 149.6 515.5 108.1C516.2 107.1 516.9 106.6 517.9 106.5C518 106.5 518 106.5 518.1 106.5C518.4 106.5 518.6 106.6 518.7 106.8C518.9 107.1 518.9 107.7 518.6 108.2C512.5 117.8 485.6 153.6 473.3 154.1C473.3 154.1 473.1 154.1 472.9 154.1C472.3 154.1 471.5 153.9 470.9 153.1C469.9 151.8 469.2 148.6 471.3 140.9L471.9 138.8L470.6 140.5C470.3 140.9 469.9 141.4 469.5 141.8C469.1 142.2 468.7 142.7 468.4 143.1C461.8 150.9 456 155.9 451.2 157.9C451.2 157.9 449.6 158.5 447.8 158.8C447.8 158.8 447.3 158.9 446.7 158.9C445.5 158.9 443.8 158.6 442.6 157C440.7 154.6 440.6 149.7 442.2 143.1L442.3 142.9L443.2 140.5L441.6 142.4C426.4 160.6 407.1 170.3 406.9 170.4L406.7 170.5V170.7C406.1 174.4 401.2 181.2 392.9 189.9C388.1 194.9 383.1 199.2 377.9 202.7C366.9 210 355.9 213.9 344.2 214.5C344.2 214.5 343.5 214.5 342.3 214.5C339.1 214.5 331.1 214.2 325.5 211.3C319.5 208.2 317.8 202.7 320.5 195.7C322.9 189.7 329.6 185.5 341 182.9C344 182.2 347.3 181.7 350.9 181.3C356.8 180.7 371.3 179.2 378.8 177.7C386.3 176.2 395 173 403.3 168.7L403.5 168.6V168.3V168.1C403.5 166.2 403.6 162.6 402.6 160.5C402.2 159.7 402.4 158.8 403.2 158.3C414.9 150.9 421.8 140.8 426.9 131.8L434.4 118.8C435.7 116.5 435.9 114.6 435.1 113C433.3 109.7 427.1 109.4 424.5 109.2H424.2H423.9L423.8 109.4C420.4 115.8 416.8 121.7 414.4 125.5C414.4 125.6 414.3 125.8 414.2 125.9C407.4 136.6 384.1 171.6 372.1 172C372.1 172 371.8 172 371.4 172C370.1 172 367.6 171.7 366.2 169.5C364.7 167.1 364 161.9 369.2 150.3C371.3 145.5 378.7 132.3 378.8 132.2C384.7 122.5 387.4 117 386.8 115.8C386.7 115.7 386.6 115.6 386.5 115.5C386.2 115.3 385.9 115.2 385.6 115.2C382.2 115.2 374.4 123.7 365.1 137.4C353.9 153.9 345.4 174.4 345.3 174.6C345.1 175 345.1 175.1 345.1 175.1C345 175.1 344.9 175.1 344.7 175C344.6 175 344.4 174.9 344.2 174.9C343.5 174.7 342.9 174.2 342.5 173.4C340.5 169.6 342.4 160.1 345 152.9L345.7 150.9L344.3 152.4C341 155.9 331.5 161.6 326.3 163.6L326.2 163.7L326.1 163.8C320.8 173.2 313.9 182.9 303.6 184.1C302.9 184.2 302.2 184.2 301.5 184.2C294.5 184.2 290.9 179.7 290 175.8C289.3 173.1 289.3 169.8 290 166.1L290.3 164.3L289.2 165.8C284.7 171.8 279.2 179.2 273.4 184C266.2 190 261.1 191.3 258.1 191.3C254.9 191.3 253.4 189.9 253.3 189.9L252.9 189.5L252.6 190C252.1 190.9 251.6 191.8 251 192.9C248.8 197 246 202 242.6 206.3L242.1 207H243C245.7 207.1 248.7 207.1 252.2 207.1C260.1 207.1 268.9 206.9 274.6 206.6C288.5 205.8 298.1 201.7 302.5 194.8C303.9 192.7 305.1 192.4 305.7 192.4C305.9 192.4 306 192.4 306 192.4C306.3 192.5 306.6 192.5 306.8 192.6C307.9 192.8 308 192.8 308.3 193.9C308.5 194.7 307.9 196.3 307.7 196.9C300.2 209 272.2 210.2 271.9 210.2H239.5H239.3L239.2 210.4C239 210.7 219.5 236.4 189.2 240.4C189.2 240.4 186.8 240.7 183.6 240.7C179.9 240.7 174.6 240.3 170.5 238.2C164.5 235.1 162.8 229.6 165.5 222.6C168.1 216.2 175.2 211.8 187.1 209.2C196.3 207.2 208.5 206.2 225.2 206.2C229.2 206.2 233.6 206.2 239.1 206.4H239.3L239.4 206.2C243.9 200.4 247.2 193.7 251.1 186C252 184.2 253 182.3 253.9 180.4L255.5 177.2L253.1 179.9C253.1 179.9 250 183.5 248.3 185.3C243.3 190.4 239.1 193.6 235.4 195.2C235.4 195.2 234.4 195.5 233.1 195.5C231.3 195.5 229.9 194.9 228.9 193.6C226.9 191 227 185.9 229.2 178.4C231.9 169.2 238.7 158.6 247.8 149.2C256.6 140.1 265.9 134 272.8 132.8C273 132.8 273.2 132.8 273.3 132.8C273.9 132.8 274.4 132.9 275 133.2C276.4 133.9 277.2 135.2 277.3 136.8L277.4 138L278.1 137C279.4 135.2 280.6 133.6 281.8 132.1C283 130.5 284.8 129.3 286.8 128.9C286.9 128.9 287.1 128.9 287.2 128.9C287.7 128.9 287.8 129.1 287.9 129.2C288.2 129.7 287.9 130.8 287.1 131.9C280.8 141 263.3 167.4 257.8 180.4C257.5 181 257.3 181.6 257 182.1C256.3 183.5 255.3 186 256.3 187.5C256.8 188.3 257.8 188.8 259.3 188.8C259.7 188.8 260.2 188.8 260.6 188.7C261.7 188.7 271.7 187.8 293.3 156.3C294.8 153.5 299.1 147.9 299.4 147.6L299.5 147.5V147.4C301.8 134.8 314.6 122.8 325.9 122.8H326.1C329.2 122.8 331.5 123.9 332.9 126C338.1 133.8 330.3 153.3 330.2 153.5C329.7 155.3 328.8 157.4 328.2 158.9L327.7 160L328.8 159.4C335.6 156 346.4 146.8 346.5 146.7C348.3 144.1 349.1 142.7 351.3 138.3C354.7 132 359 124.9 363.4 118.2L363.6 117.9C364.8 115.9 365.1 115.5 367.2 115H367.3H367.4C367.4 115 367.5 115 367.6 115.1C368.1 115.4 368.4 115.7 368.6 116.1C368.8 116.8 368.4 117.9 367.5 119.3C362 127.7 356.7 136.8 353.3 142.9C349.1 150.4 346.4 161.7 346.3 161.8L347.1 162.1C353 149.1 366.5 129.2 376.6 118.7C381.7 113.5 385.9 111.2 390.3 111.1H390.4C391.4 111.1 392 111.4 392.3 112C393.8 114.8 389.5 124.1 380.7 136.9C379 139.4 377.5 141.8 376.2 144.2C370.4 154.7 368 162.8 369.6 166.6C370.1 167.8 371 168.6 372.2 168.9H372.3H372.4C372.8 168.9 383.4 168 409.5 128.1C413.9 121.1 417.4 115 420.3 110L420.7 109.4H420C415.1 109.2 412.1 107.8 411.3 105.4C410.2 101.9 413.8 96.4 417.7 93.4C420.6 91.3 424 89.9 426.9 89.9ZM421.8 107.1L421.9 106.8C427 96.2 427.1 94.8 426.7 94.2C426.6 94 426.4 93.9 426.2 93.9H426.1C424.4 93.9 418.4 97 415.1 102.8C415.1 102.8 414.4 103.9 415 105C415.7 106.3 417.8 107 421.4 107.2L421.8 107.1ZM448.2 155.1C450.1 155.1 452 154.1 452.5 153.8C456.7 151.5 460.9 147.9 466 141.9C470.4 136.7 474 131.6 475.7 129C484.2 117 491.8 102.5 489.3 99.7C489.2 99.6 489.1 99.4 488.9 99.2C488.1 98.5 486.8 98.3 485.8 98.3C484.5 98.3 483 98.6 481.9 99C478 100.6 473.3 103 466.3 110C458.2 118.1 451.5 127.9 447.5 137.7C443.6 147.2 443.2 152.7 446.2 154.5C446.8 154.9 447.5 155.1 448.2 155.1ZM305.1 140.6L306.2 139.9C308.9 138.3 311.2 137.4 312.5 137.4H312.6H312.7C313.3 137.4 313.7 137.6 313.9 138C314.1 138.5 313.8 139.4 312.7 140.2C308.6 143.3 305 146.9 302.7 150.1L302.6 150.2V150.3C302.5 153.1 303.3 155.5 305 157.4C309 161.7 316.3 162 316.5 162C317.5 162.1 318.4 162.2 319.4 162.2C320.9 162.2 322.5 162.1 324 161.8H324.2L324.3 161.6C325.3 159.5 326.3 157.3 327.1 155.2C331.8 141.7 332.7 132.7 329.6 128.3C328 126 325.7 125.7 324.8 125.7C324.5 125.7 324.3 125.7 324.3 125.7C316.8 126.4 307.9 133.7 305.6 139.3L305.1 140.6ZM234.7 192.6C235.1 192.6 235.6 192.6 236.1 192.3C239.4 190.6 244.5 187.1 250.5 179.9C252.1 178 254.1 175.4 256.5 172.2C259.1 168.8 261.5 165.1 263.7 161.4L272.1 147.1C273.6 144.6 274.3 141.9 274.2 139.5C274.1 138.5 274 137.8 273.7 137.2C273.4 136.7 273.1 136.5 272.8 136.2L272.7 136.1H272.6C272.4 136.1 272.1 136 271.6 136C268.6 136 261.6 138.6 248 155.8C244.3 160.5 241.1 165.5 238.6 170.8C235.1 178 231.3 187.4 232.7 191C233 191.7 233.4 192.2 234 192.4H234.1H234.2C234.2 192.5 234.4 192.6 234.7 192.6ZM302 181.3C303 181.3 304.8 181.2 305.6 181C309.6 180.1 313.6 177.1 317.8 171.8C319.2 170.2 321.9 166 322 165.9L322.5 165.2L321.6 165.3C321.6 165.3 319.5 165.4 317.4 165.4C316.2 165.4 315.2 165.4 314.4 165.3C303.3 165 299.7 154.4 299.7 154.3L299.4 153.4L298.9 154.2C292.9 164.2 291.1 171.7 293.5 176.5C295.6 180.6 300.1 181.3 301.4 181.4C301.6 181.3 301.8 181.3 302 181.3ZM341 211C342.4 211 343.9 210.9 345.5 210.8C353.9 210.2 368.8 205.6 382.9 194.8L389.2 189.8C395.7 183.2 400 177.7 401.9 173.7L402.4 172.6L401.3 173.1C395.7 175.5 388.5 177.9 379.7 180C367.2 183.1 347.8 184.8 347.6 184.8C333.2 187 324.7 191 322.5 196.5C321.3 199.5 321.5 202.3 323.1 204.7C325.9 208.8 332.2 211 341 211ZM184.1 238.1C185.8 238.1 187.7 238 189.6 237.8C200.9 236.6 219.7 228.9 235.4 210.9L236 210.3L235.1 210.2C230.6 209.8 225 209.6 219.5 209.6C205.5 209.6 172.5 211 167.4 223.5C166.1 226.7 166.2 229.7 167.9 232.2C170.5 236 176.2 238.1 184.1 238.1ZM426.9 89.5C424.2 89.5 420.7 90.7 417.2 93.4C411.1 98.1 404.6 109.6 419.7 110.2C416.8 115.2 413.4 121.2 408.9 128.3C382.6 168.5 372.1 168.9 372.1 168.9C366.7 167.5 369.6 157.1 376.4 144.9C377.8 142.4 379.3 140 380.9 137.7C385.5 130.9 398.3 111.2 390.2 111.2C390.2 111.2 390.2 111.2 390.1 111.2C385.1 111.3 380.7 114.2 376.1 118.9C365.8 129.6 352.4 149.5 346.5 162.4C346.5 162.4 349.1 151.1 353.4 143.6C357 137.3 362.2 128.3 367.6 120C369.1 117.8 369.5 116.1 367.6 115.1C367.5 115 367.4 115 367.3 115C367.2 115 367.2 115 367.1 115C367 115 367 115 366.9 115C364.5 115.5 364.2 116.1 362.8 118.4C358.8 124.4 354.4 131.6 350.7 138.5C348.5 142.9 347.6 144.3 345.9 146.9C345.9 146.9 335.1 156.1 328.3 159.6C329.1 157.8 329.9 155.9 330.4 154.1C330.4 154.1 343.1 122.9 325.9 122.9C325.8 122.9 325.8 122.9 325.7 122.9C313.7 122.9 301 135.7 298.8 147.8C298.5 148.1 294.1 153.8 292.6 156.7C270.8 188.4 260.9 188.9 260.3 188.9C259.8 189 259.4 189 259 189C254.6 189 256.2 184.7 257.1 182.9C257.4 182.3 257.6 181.8 257.9 181.2C263.2 168.7 279.8 143.3 287.2 132.8C288.4 131.1 288.6 129.1 286.9 129.1C286.8 129.1 286.6 129.1 286.4 129.1C284.4 129.5 282.4 130.7 281.2 132.4C280.2 133.6 278.9 135.2 277.5 137.3C277.4 135.5 276.4 134.1 274.9 133.4C274.2 133 273.5 132.9 273 132.9C272.8 132.9 272.6 132.9 272.4 133C257.9 135.5 234.3 159.2 228.5 178.9C224 194.3 229.4 196.5 232.8 196.5C234.2 196.5 235.2 196.1 235.2 196.1C239 194.5 243.4 191.2 248.3 186.1C250 184.3 253.1 180.7 253.1 180.7C247.8 191 244 199.3 238.6 206.5C234 206.4 229.4 206.3 224.7 206.3C197.1 206.3 170.4 208.7 164.5 222.9C161.2 231.2 164.4 236.3 169.7 239C173.8 241.1 179 241.6 183 241.6C186.3 241.6 188.7 241.3 188.7 241.3C219.5 237.3 239 211.2 239 211.2H271.4C271.4 211.2 299.9 210.1 307.6 197.6C307.6 197.6 308.5 195.5 308.3 194.3C307.8 192.7 307.4 192.9 305.7 192.5C305.7 192.5 305.5 192.4 305.2 192.4C304.5 192.4 303.1 192.7 301.6 195C297.6 201.3 288.6 205.7 274 206.6C268.5 206.9 259.7 207.1 251.6 207.1C248.4 207.1 245.2 207.1 242.5 207C246.7 201.6 250.1 194.9 252.5 190.7C252.5 190.7 254.1 192.2 257.6 192.2C261 192.2 266.1 190.7 273.2 184.8C278.9 180 284.3 172.9 289.1 166.5C288.5 169.6 288.3 173.2 289.1 176.4C290.2 181 294.2 185.1 301 185.1C301.7 185.1 302.4 185.1 303.2 185C313.1 183.9 320.1 174.9 326 164.5C331.5 162.4 340.9 156.6 344.2 153.2C341.1 161.7 338.7 174.5 343.7 175.8C344.2 175.9 344.4 176.1 344.7 176.1C344.9 176.1 345.1 175.9 345.3 175.3C345.3 175.3 353.7 154.8 365 138.2C375.1 123.3 382.4 116.2 385.1 116.2C385.4 116.2 385.6 116.3 385.8 116.4C385.8 116.4 387.6 116.5 377.9 132.4C377.9 132.4 370.5 145.6 368.3 150.5C358.8 171.4 368 172.9 370.9 172.9C371.4 172.9 371.7 172.9 371.7 172.9C384 172.4 407.6 136.7 414.1 126.6C414.2 126.4 414.3 126.3 414.3 126.1C417.1 121.6 420.5 115.9 423.7 109.9C426.9 110.1 438.3 110.5 433.6 118.8L426.1 131.8C419.9 142.5 413.2 151.5 402.5 158.2C401.5 158.8 401.3 160 401.8 161C402.8 163.1 402.7 166.8 402.7 168.6C395.3 172.4 386.4 175.8 378.3 177.5C370.9 179 356.9 180.5 350.5 181.1C347.2 181.4 343.8 181.9 340.5 182.7C330.1 185.1 322.4 189.1 319.7 195.8C316.4 204.1 319.6 209.2 324.9 211.9C330.5 214.8 338.3 215.1 341.9 215.1C343.1 215.1 343.8 215.1 343.8 215.1C356.9 214.4 368.1 209.6 377.7 203.2C383.2 199.5 388.2 195.2 392.7 190.4C398.2 184.6 405.7 175.9 406.6 171C406.6 171 425.9 161.4 441.4 142.9L441.3 143.1C437.6 157.9 443.5 159.4 446.2 159.4C446.9 159.4 447.4 159.3 447.4 159.3C449.3 159 450.9 158.4 450.9 158.4C455.7 156.4 461.6 151.4 468.3 143.4C469 142.5 469.9 141.6 470.6 140.7C467.1 153.4 471.1 154.5 472.6 154.5C472.9 154.5 473.1 154.4 473.1 154.4C485.6 153.9 512.2 118.5 518.7 108.3C519.4 107.1 518.9 105.9 517.8 105.9C517.7 105.9 517.6 105.9 517.5 105.9C516.4 106.1 515.6 106.7 514.9 107.7C488.3 149 475 149.5 474.4 149.5C468.8 147.2 493.8 107.9 503.2 94.2C504.3 92.5 504.5 91.2 502.8 91.2C502.6 91.2 502.3 91.2 502 91.3C499.4 91.7 498.2 92.9 496.8 94.6C495.8 95.8 494.7 97.4 493.3 99.4C493.1 98.5 492.8 97.8 492.6 97.1C492.1 96.3 491.1 95.3 489.4 94.8C488.7 94.6 487.9 94.6 487.2 94.6C486.6 94.6 486.2 94.6 486.2 94.6C474.2 95.4 455.6 112.8 446.4 130.1L446.3 130.2C440.7 137.8 434.3 144.7 427.5 151.4C421 157.9 414.7 161.8 406.7 166.3C406.5 164.9 406.6 161.6 406 160.2C412.3 155.6 415.7 155.8 429.1 135L435.2 124.4C444.2 110.7 434.6 107.3 425.5 106.6C428.1 102.4 433.1 93.4 431.2 91C430.4 90.1 428.9 89.5 426.9 89.5ZM421.5 106.7C413.4 106.5 415.6 103.1 415.6 103.1C418.9 97.3 424.8 94.4 426.2 94.4C427.3 94.5 423.2 103.1 421.5 106.7ZM448.2 154.6C447.6 154.6 447 154.5 446.5 154.2C443.2 152.2 445 145.1 448 137.9C452.1 128 458.7 118.4 466.7 110.4C473.6 103.5 478.2 101.2 482.2 99.5C483.2 99.1 484.6 98.8 485.9 98.8C487 98.8 488.1 99 488.7 99.6C488.9 99.7 489 99.9 489 100C491.1 102 485.2 115 475.5 128.8C473.5 131.7 470 136.7 465.8 141.7C460.5 148 456.3 151.5 452.5 153.5C452.3 153.4 450.2 154.6 448.2 154.6ZM306 139.6C308.2 134.4 316.8 127 324.4 126.2C324.4 126.2 324.6 126.2 324.9 126.2C327.2 126.2 336.4 127.8 326.9 155.1C326.1 157.2 325.1 159.3 324.1 161.5C322.6 161.8 321.1 161.9 319.6 161.9C318.7 161.9 317.7 161.8 316.7 161.7C316.7 161.7 302.6 161.2 303.1 150.4C305.6 146.9 309.4 143.4 313.1 140.6C315 139.2 314.9 137 312.8 137H312.7C312.7 137 312.7 137 312.6 137C311 137 308.5 138 306 139.6ZM234.7 192.1C234.5 192.1 234.3 192.1 234.1 192.1C230.4 190.5 235.1 179.1 238.9 171C241.4 165.8 244.5 160.8 248.2 156.1C262.2 138.3 269.1 136.5 271.5 136.5C272 136.5 272.3 136.6 272.5 136.6C272.8 136.9 273.1 137.1 273.3 137.5C273.6 138 273.7 138.8 273.8 139.6C273.9 142 273.2 144.5 271.8 146.9L263.4 161.2C261.2 164.9 258.9 168.5 256.2 172C254.3 174.5 252.1 177.4 250.2 179.7C244.8 186.1 239.8 189.9 235.9 192C235.5 192.1 235.1 192.1 234.7 192.1ZM302 180.8C301.8 180.8 301.7 180.8 301.5 180.8C297.5 180.5 285.6 176.9 299.2 154.3C299.2 154.3 302.8 165.3 314.3 165.6C315.2 165.7 316.3 165.7 317.3 165.7C319.4 165.7 321.5 165.6 321.5 165.6C321.5 165.6 318.7 169.9 317.4 171.5C313.6 176.2 309.7 179.6 305.4 180.6C304.7 180.7 303 180.8 302 180.8ZM341 210.5C326 210.5 319.9 204 322.9 196.6C325.3 190.6 335.5 187.1 347.7 185.2C347.7 185.2 367.1 183.5 379.8 180.4C386.8 178.7 394.9 176.4 401.5 173.5C399 178.7 392.9 185.3 388.9 189.5L382.6 194.5C369.8 204.3 355.1 209.7 345.5 210.4C343.9 210.5 342.4 210.5 341 210.5ZM184.1 237.6C169.8 237.6 164.8 230.9 167.9 223.7C172.3 212.9 199.1 210 219.6 210C225.6 210 231 210.2 235.2 210.6C220.7 227.2 202.4 236 189.7 237.3C187.7 237.5 185.8 237.6 184.1 237.6Z" fill="#130E24"/>
    <path d="M267.6 123.8C266.5 123.8 265.5 123.7 264.5 123.5C259.7 122.4 257.5 118.5 257.4 110.8C257.3 101.8 264.6 90.7 264.7 90.6C273.8 75.7 288 60.3 299.4 59.6C299.4 59.6 299.8 59.6 300.4 59.6C301 59.6 301.8 59.6 302.5 59.8C304.1 60.3 305 61.3 305.5 62C306.4 63.6 306.5 65.8 305.7 68.7C305.7 68.8 303 78.1 298.8 78.1C298.5 78.1 298.2 78 297.8 77.9C297 77.6 296.5 77.2 296.3 76.6C295.8 75 297.5 72.6 297.5 72.6C298 71.8 298.7 70.9 299.3 70C299.8 69.3 300.4 68.6 300.7 68.1C301.8 66.4 302.2 65.1 301.9 64.2C301.7 63.6 301.2 63.4 301.2 63.4C300.8 63.3 300.3 63.2 299.7 63.2C296.5 63.2 287.1 65.7 270.1 89.1C263.5 99 261 107.1 262.7 113.1C264.1 117.8 267.5 119.4 267.6 119.4C268.5 119.7 269.5 119.9 270.5 119.9C274 119.9 278.3 118 282.9 114.3C289.8 108.9 295.7 101.4 295.7 101.3C301.9 93.8 308.2 84.9 314.6 74.9C318.4 68.8 321.4 63.6 324.1 58.9L324.3 58.6H323.9C318.8 58.4 315.8 57 315 54.5C313.7 50.5 318 45 321.4 42.3C324.6 39.8 328 38.4 330.9 38.4C332.8 38.4 334.3 39 335.1 40.1C336.5 41.7 334.4 47.4 329.6 55.5L329.4 55.8H329.8C335.5 56.2 339.4 58.1 340.8 61C342.3 64.1 341 68.5 337.2 73.9C327.6 87.5 316.9 104.8 318.2 109.1C318.3 109.5 318.6 109.8 319 110C319.2 110.2 319.8 110.8 321.1 110.8C324.8 110.8 334.2 106 355.9 73.8C360.3 66 365.9 57.7 372.5 49.1L372.9 48.6C373.5 47.8 373.9 47.3 374.9 46.9C375.4 46.7 376 46.6 376.4 46.6C377 46.6 377.4 46.8 377.7 47.2C378.1 47.7 378.1 48.2 377.7 48.8C377.4 49.3 345.3 96.5 347.6 104.1C347.7 104.6 348 104.9 348.4 105.1C348.4 105.1 348.9 105.4 349.9 105.4C353.7 105.4 365.3 101.2 390.2 62C390.3 61.9 390.9 61 391.6 59.8C393.2 57.4 395.7 53.3 396.9 51.3L397 51.2L396.9 51.1C393.3 46 392.1 41.4 393.4 37.7C394.4 34.7 397 32.5 400.6 31.4C401.4 31.2 402.2 31 402.9 31C404 31 404.9 31.3 405.6 32C406.9 33.3 406.8 35.4 406.8 35.4C407.3 39.3 404 45 402.2 48.1L402 48.4L402.1 48.5C402.7 49 403.4 49.6 404.2 50.2C405 50.8 405.9 51.4 406.8 52.2C412.1 56.7 414.2 61.9 414.6 72.3V72.6L414.9 72.5C418.4 71.1 424.8 68.1 428.4 62.9C429.5 61.4 430.5 59.9 431.5 58.3C432.4 57 433.3 55.6 434.3 54.2C434.8 53.2 435.6 52.7 436.6 52.5C436.7 52.5 436.8 52.5 436.8 52.5C437.2 52.5 437.4 52.7 437.6 52.9C437.8 53.3 437.8 53.9 437.5 54.5C436.7 55.8 435.4 57.6 434 59.8C431.1 64.3 427.4 68.3 423.4 71.3C420.4 73.6 417.4 75.3 414.4 76.3H414.3V76.4C413.3 80 412 83.9 409.4 88.1C403.9 96.7 394.5 102.7 386.6 102.7C385.2 102.7 383.9 102.5 382.6 102.1C382.6 102.1 378.8 101.1 377.2 97.9C376 95.5 376.1 92.5 377.6 89C377.7 88.8 383.1 74.2 404.6 73.9C404.7 73.9 405 73.9 406.7 73.9C407.7 73.9 408.7 73.9 408.7 73.9H408.9V73.7C408.9 73.6 410.4 61.1 399.2 53.9L399 53.8L398.9 54C395.3 59.6 392 64.4 389.7 67.6L389.3 68.2C389.2 68.3 389.1 68.4 389 68.5C379.1 83.3 361.1 108.1 351 108.5C351 108.5 350.5 108.6 349.8 108.6C348.4 108.6 346.5 108.2 345.3 106.4C343.4 103.4 344.4 97.5 348.1 89.3L348.9 87.6L347.7 89.1C336 104.4 325.7 113.7 320.1 113.9C320.1 113.9 319.6 114 319 114C318 114 316.7 113.7 315.9 112.4C314.7 110.4 314.7 105.4 321.3 93.1C325.4 85.6 335.5 69.3 335.6 69.1C337.2 66.9 337.6 64.8 336.8 63.1C335.2 59.7 329.6 58.7 327.7 58.6H327.6L327.5 58.7C324.8 63.7 321.7 69.2 318 75V75.1C318 75.2 318 75.2 317.9 75.3L316.7 77.2C315.7 78.8 314.8 80.2 314.1 81.3C314 81.4 313.9 81.6 313.7 81.7C308 90.3 302.6 97.6 297.8 103.5C297.7 103.6 291 112.3 282.3 118.4C277.6 121.8 272.2 123.8 267.6 123.8ZM407.9 76.6C395.6 76.6 385.7 80.9 382.1 87.9L382 88.1C380.7 90.7 380.6 93.4 381.8 95.5C382.8 97.2 384.5 98.2 386.7 98.4C387.1 98.4 387.5 98.4 387.9 98.4C404.2 98.4 408.9 77.2 408.9 76.9L409 76.6H407.9ZM330.5 42.8C328.8 42.8 322.9 45.9 319.7 51.6C319.7 51.6 319.2 52.5 319.7 53.5C320.4 54.8 322.5 55.4 326 55.6H326.1L326.2 55.5C327.8 52.1 331.5 44.2 330.9 43.1C330.8 42.9 330.6 42.9 330.5 42.8ZM401.1 34.1C400.8 34.1 400.4 34.2 400.1 34.2C398.8 34.6 397.7 35.8 397.2 37.4C396.3 40.2 397.2 43.7 399.7 46.9L399.9 47.1L400.1 46.8C401.1 45.2 402.4 42.6 403 40.4C403.8 37.7 403.7 35.8 402.9 34.8C402.5 34.4 401.9 34.1 401.1 34.1Z" fill="white"/>
    <path d="M403 31C404.1 31 404.9 31.3 405.5 31.9C406.7 33.1 406.6 35.1 406.6 35.2C407.1 39 403.8 44.7 402 47.8V48L401.8 48.3L402.1 48.5C402.7 49 403.5 49.6 404.3 50.2C405.1 50.8 406 51.4 406.8 52.2C412.1 56.6 414.1 61.8 414.5 72.2V72.8L415.1 72.6C419.4 70.9 425.2 67.9 428.7 62.9C429.8 61.4 430.8 59.9 431.8 58.3C432.7 57 433.6 55.6 434.6 54.2C435.1 53.3 435.8 52.8 436.8 52.6C436.9 52.6 436.9 52.6 437 52.6C437.3 52.6 437.5 52.7 437.6 52.9C437.8 53.2 437.8 53.8 437.5 54.3C436.6 55.6 435.4 57.4 434 59.6C431.1 64.1 427.4 68 423.5 71C420.5 73.3 417.5 75 414.5 76L414.3 76.1L414.2 76.3C413.2 79.9 411.9 83.8 409.3 87.9C403.8 96.5 394.5 102.4 386.7 102.4C385.3 102.4 384 102.2 382.8 101.8C382.8 101.8 379.1 100.9 377.5 97.7C376.3 95.4 376.5 92.5 377.9 89C378 88.9 383.4 74.3 404.7 74C404.7 74 405 74 406.8 74C407.8 74 408.8 74 408.8 74H409.2V73.6C409.2 73.5 410.7 60.8 399.4 53.6L399 53.4L398.8 53.8C395.2 59.4 391.9 64.2 389.6 67.4L389.2 68C389.1 68.1 389 68.2 388.9 68.3C379.1 83 361.1 107.7 351.1 108.1C351.1 108.1 350.7 108.2 350 108.2C348.6 108.2 346.8 107.8 345.7 106.1C344.4 104.1 343.8 99.5 348.5 89.2L350.1 85.8L347.8 88.8C336.1 104 325.8 113.3 320.4 113.5C320.4 113.5 320 113.6 319.4 113.6C318.5 113.6 317.2 113.3 316.5 112.1C315.3 110.1 315.3 105.2 321.9 93C326 85.5 336.1 69.2 336.2 69C337.9 66.7 338.3 64.6 337.4 62.8C335.7 59.3 330 58.3 328.1 58.2H327.8L327.7 58.4C325 63.4 321.9 68.9 318.2 74.7V74.8V74.9L317 76.8C316 78.4 315.1 79.8 314.4 80.8C314.3 80.9 314.2 81 314.1 81.2C308.4 89.7 303.1 97 298.2 102.9C298.1 103 291.5 111.6 282.7 117.8C277.7 121.4 272.4 123.4 267.8 123.4C266.7 123.4 265.7 123.3 264.7 123.1C260 122 257.8 118.2 257.8 110.6C257.7 101.7 265 90.7 265.1 90.5C274.1 75.7 288.3 60.4 299.7 59.6C299.7 59.6 300.1 59.6 300.7 59.6C301.5 59.6 302.2 59.7 302.7 59.8C304.2 60.2 305.1 61.2 305.6 61.9C306.5 63.5 306.5 65.6 305.8 68.5C305.8 68.6 303.2 77.8 299.1 77.8C298.8 77.8 298.5 77.7 298.2 77.6C297.5 77.4 297 77 296.8 76.5C296.4 75.2 297.5 73.3 298 72.6C298.5 71.8 299.1 70.9 299.8 70.1C300.3 69.4 300.9 68.7 301.2 68.1C302.3 66.4 302.7 65 302.4 64C302.2 63.3 301.7 63 301.6 63C301.2 62.9 300.6 62.8 300 62.8C295.9 62.8 286.6 66.2 270.2 88.8C263.5 98.8 261.1 106.9 262.8 113C264.2 117.8 267.7 119.4 267.9 119.5C268.8 119.8 269.8 120 270.8 120C274.3 120 278.6 118.1 283.4 114.4C290.3 109 296.2 101.5 296.2 101.4C302.4 93.9 308.7 85 315 75C318.8 69 321.8 63.8 324.5 59L324.9 58.4H324.2C319.3 58.2 316.2 56.9 315.5 54.4C314.4 50.9 317.9 45.5 321.8 42.4C325 39.9 328.4 38.6 331.2 38.6C333 38.6 334.4 39.2 335.2 40.2C336.5 41.7 334.4 47.5 329.6 55.3L329.2 55.9L329.9 56C335.5 56.4 339.4 58.2 340.7 61.1C342.1 64.1 340.9 68.4 337.1 73.8C327.5 87.4 316.8 104.8 318.1 109.2C318.2 109.7 318.5 110 318.9 110.2C319.1 110.5 319.8 111 321.1 111C324.8 111 334.3 106.2 356.1 73.9C360.5 66.2 366.1 57.9 372.6 49.2C372.7 49 372.8 48.9 373 48.7C373.6 47.9 374 47.5 374.9 47C375.4 46.8 375.9 46.7 376.3 46.7C376.8 46.7 377.2 46.9 377.5 47.2C377.8 47.6 377.8 48 377.5 48.5C377.2 49 345.1 96.3 347.4 104C347.6 104.5 347.9 104.9 348.3 105.1C348.4 105.2 349 105.4 349.9 105.4C353.7 105.4 365.4 101.2 390.4 61.9C390.5 61.8 391.1 60.8 391.8 59.7C393.5 57.1 395.9 53.2 397.1 51.2L397.2 51L397 50.8C393.5 45.8 392.3 41.3 393.5 37.6C394.9 33.5 398.9 31.9 400.5 31.5C401.6 31.1 402.4 31 403 31ZM400 47.7L400.3 47.2C401.3 45.6 402.6 43 403.3 40.7C404.1 38 404 36 403.2 34.9C402.7 34.3 402 33.9 401.2 33.9C400.9 33.9 400.5 34 400.2 34.1C398.8 34.5 397.7 35.8 397.1 37.5C396.2 40.4 397.1 43.9 399.7 47.2L400 47.7ZM326.2 55.8L326.3 55.5C328.8 50.3 331.6 44 331 42.9C330.9 42.7 330.7 42.6 330.5 42.6H330.4C328.7 42.6 322.7 45.7 319.4 51.5C319.4 51.5 318.8 52.5 319.4 53.6C320.1 54.9 322.3 55.7 325.9 55.8H326.2ZM387.7 98.5C404.2 98.5 408.9 77.1 408.9 76.9L409 76.4H408.5C408.3 76.4 408.1 76.4 407.9 76.4C395.5 76.4 385.5 80.8 381.9 87.8L381.8 88C380.5 90.6 380.4 93.5 381.6 95.6C382.6 97.4 384.4 98.4 386.6 98.6C387 98.5 387.3 98.5 387.7 98.5ZM403 30.5C402.3 30.5 401.6 30.6 400.7 30.9C394.6 32.7 388.7 39.2 396.9 50.9C395.1 53.9 390.3 61.3 390.2 61.6C365.3 100.8 353.8 104.9 350.1 104.9C349.1 104.9 348.7 104.6 348.7 104.6C343.1 102.3 368.8 62.4 378.1 48.7C378.6 47.9 378.4 47.3 378.1 46.9C377.7 46.4 377.2 46.3 376.6 46.3C376 46.3 375.4 46.5 375 46.7C373.8 47.2 373.5 47.8 372.6 48.9C369.2 53.4 362.1 62.9 356 73.6C334.2 105.9 324.9 110.5 321.4 110.5C320 110.5 319.5 109.8 319.5 109.8C315.6 108.4 326.3 90.2 337.7 74C347.1 60.7 339.3 56.2 330.1 55.5C332.7 51.3 337.7 42.3 335.6 39.9C334.7 38.8 333.2 38.2 331.2 38.1C328.5 38.1 325.1 39.3 321.5 42C315.5 46.7 308.9 58.2 324.2 58.7C321.6 63.2 318.6 68.5 314.7 74.7C307.3 86.4 300.9 94.9 295.9 101.1C295.9 101.1 290.1 108.6 283.1 114C279.1 117.1 274.7 119.5 270.8 119.5C269.8 119.5 268.9 119.3 268 119C268 119 254.5 113 270.5 89C287.4 65.8 296.6 63.2 299.9 63.2C300.7 63.2 301.2 63.4 301.3 63.4C301.3 63.4 303.1 64.1 300.7 67.9C300 69.1 298.4 70.9 297.5 72.4C297.5 72.4 294.1 76.9 297.9 78.1C298.3 78.2 298.6 78.3 298.9 78.3C303.3 78.3 306 68.7 306 68.7C306.8 65.7 306.7 63.5 305.7 61.8C305.2 61 304.2 60 302.5 59.5C301.8 59.3 301 59.3 300.3 59.3C299.7 59.3 299.3 59.3 299.3 59.3C288.2 60 274.1 74.5 264.4 90.4C264.4 90.4 256.9 101.6 257.1 110.7C257.2 117.2 258.7 122.4 264.4 123.7C265.4 123.9 266.5 124 267.6 124C272.6 124 278.1 121.6 282.7 118.3C291.6 112.1 298.3 103.4 298.3 103.4C304.4 96 310.1 87.8 314.2 81.7C314.3 81.6 314.5 81.4 314.6 81.3C315.3 80.2 316.2 78.8 317.2 77.2C317.6 76.5 318.1 75.9 318.4 75.3C318.5 75.2 318.5 75.1 318.5 75C321.3 70.5 324.7 64.7 328 58.7C331.4 58.9 341 61.4 335.7 68.8C335.7 68.8 325.5 85.2 321.4 92.8C310.9 112.1 316.6 114 319.3 114C319.9 114 320.4 113.9 320.4 113.9C327.3 113.6 339.2 100.7 348.1 89C340 106.9 347 108.6 350 108.6C350.7 108.6 351.2 108.5 351.2 108.5C361.6 108.1 380 82.5 389.4 68.5C389.5 68.4 389.6 68.3 389.7 68.2C391.8 65.1 395.5 59.9 399.3 54C410.5 61.2 408.9 73.6 408.9 73.6C408.9 73.6 407.9 73.6 406.9 73.6C405.9 73.6 404.9 73.6 404.8 73.6C383 73.9 377.6 88.9 377.6 88.9C373 100 382.7 102.3 382.7 102.3C384 102.7 385.3 102.9 386.7 102.9C394.8 102.9 404.3 96.6 409.7 88.2C412.4 84 413.7 80 414.6 76.5C418 75.3 421.1 73.4 423.7 71.4C427.9 68.2 431.5 64.2 434.3 59.8C435.7 57.6 436.9 55.8 437.8 54.5C438.5 53.3 438 52.1 436.9 52.1C436.8 52.1 436.7 52.1 436.6 52.1C435.5 52.3 434.7 52.9 434.1 53.9C432 57 430.1 59.9 428.2 62.6C424.6 67.8 418.4 70.7 414.8 72.1C414.4 61.7 412.3 56.3 406.9 51.8C405.2 50.3 403.3 49.2 402.2 48.2C404 45 407.5 39.1 407 35.2C407.1 35.2 407.3 30.5 403 30.5ZM399.9 46.9C395.2 40.8 397.2 35.4 400.2 34.5C400.5 34.4 400.8 34.4 401.1 34.4C402.6 34.4 404.2 35.7 402.8 40.6C402.2 42.7 400.9 45.3 399.9 46.9ZM325.9 55.3C317.8 55.1 319.8 51.7 319.8 51.7C323.1 45.9 329 43 330.4 43C331.6 43.2 327.7 51.7 325.9 55.3ZM387.7 98.1C387.3 98.1 386.9 98.1 386.6 98.1C381.8 97.8 379.7 93 382.1 88.2C382.1 88.1 382.2 88.1 382.2 88C386 80.7 396.2 76.9 407.9 76.9C408.1 76.9 408.3 76.9 408.5 76.9C408.5 76.8 404.1 98.1 387.7 98.1Z" fill="#130E24"/>
    <path d="M454.3 86C450.5 86 448.2 85.2 446.9 84.5C441.4 81.9 441.9 74.9 443.4 71.1C446.1 64.6 452.1 59.2 462.3 54L462.4 53.9V53.8C462.3 49.9 463.1 46.6 463.5 45.2C465.7 36.4 472.4 29.1 479.5 27.9C480.4 27.8 481.2 27.7 481.9 27.7C485.5 27.7 487.2 29.5 487.2 33.3C487.2 33.4 487.5 37.8 483.8 42.8C482.4 45 475.8 50.7 467.5 55.1L467.4 55.2V55.3C468.1 62.5 473.8 66.3 473.8 66.3L474.1 66.5L474.2 66.2C474.6 64.2 474.3 61.5 474.1 59.6C474 58.7 473.9 57.9 473.9 57.4C473.9 57.1 474.1 55.7 475.7 55.7C475.9 55.7 476.1 55.7 476.3 55.8C477.4 56.1 478.3 57 478.9 58.2C480.3 61.3 479.5 66.2 478.5 68.8H478.4V69C478.4 69.5 485.6 71.4 487 71.4H487.1H487.2C487.4 71.4 487.6 71.4 487.7 71.7C487.6 72.8 484.4 76.2 482 76.3C482 76.3 482 76.3 481.9 76.3C481.8 76.3 481.7 76.3 481.6 76.3C479.6 76 476 74.4 476 74.4L475.8 74.3L475.7 74.5C474.1 77.2 469.4 83.7 460 85.5C458 85.8 456.1 86 454.3 86ZM462.7 57.5C456 60.5 452.4 64.7 450.5 67.6C449.6 69 449 70.3 448.8 71.6C448.2 74.5 448.6 76.9 449.9 78.5C451.2 80.1 453.5 81 456.6 81C457.6 81 458.6 80.9 459.7 80.8C468.2 79.6 472.6 72.2 472.6 72.1L472.7 71.9L472.6 71.8C468.1 68.1 463.9 61.9 463.1 57.7V57.4L462.7 57.5ZM479.8 31.3C479.1 31.3 477 31.6 474.1 34.2C473.6 34.6 471.3 36.8 469.7 40.6C468.8 42.9 467.2 46.7 467.2 51V51.4L467.5 51.2C468 50.9 468.5 50.6 469.2 50.2C474 47.4 481.2 43.3 483.2 37.3C483.9 35.2 483.5 33.7 483.1 33C483.1 32.9 482.4 31.3 480 31.3C480 31.3 479.9 31.3 479.8 31.3Z" fill="white"/>
    <path d="M481.9 27.9C483.8 27.9 485.2 28.5 486 29.6C486.6 30.5 486.9 31.7 486.9 33.3C486.9 33.3 487.2 37.6 483.6 42.7C482.2 44.9 475.7 50.5 467.4 54.9L467.1 55V55.3C467.8 62.6 473.4 66.3 473.6 66.5L474.1 66.9L474.2 66.3C474.6 64.3 474.3 61.6 474.1 59.6C474 58.7 473.9 57.9 473.9 57.5C473.9 57.2 474.1 56 475.5 56C475.7 56 475.8 56 476 56C477.1 56.3 477.9 57.1 478.4 58.3C479.8 61.3 479 66 478 68.6H477.8V69C477.8 69.3 477.8 69.5 481.5 70.5C482.9 70.9 485.3 71.6 486.6 71.6H486.7H486.8C487 71.6 487 71.6 487.1 71.7C486.9 72.9 483.9 76 481.6 76.1H481.5C481.4 76.1 481.3 76.1 481.3 76.1C479.4 75.8 475.8 74.2 475.7 74.2L475.3 74L475.1 74.3C473.5 77 468.8 83.5 459.6 85.2C457.6 85.6 455.7 85.7 453.9 85.7C450.2 85.7 447.9 84.9 446.6 84.2C441.3 81.6 441.7 74.8 443.2 71C445.9 64.6 451.9 59.2 462 54L462.2 53.9V53.6C462.1 49.7 462.9 46.4 463.3 45.1C465.5 36.5 472.3 29.2 479.1 28C480.4 27.9 481.2 27.9 481.9 27.9ZM467.1 51.7L467.7 51.3C468.2 51 468.7 50.7 469.3 50.3C474.1 47.5 481.3 43.3 483.4 37.3C484.1 35.1 483.7 33.6 483.3 32.9C483.3 32.8 482.5 31.1 480 31C479.9 31 479.8 31 479.7 31C478.8 31 476.7 31.4 473.9 34C473.4 34.4 471.1 36.7 469.5 40.5C468.6 42.8 467 46.6 467 51L467.1 51.7ZM456.5 81.2C457.5 81.2 458.5 81.1 459.6 81C468.2 79.8 472.5 72.5 472.7 72.2L472.9 71.9L472.6 71.7C468.1 68 464 61.9 463.2 57.7L463.1 57.2L462.6 57.4C455.9 60.4 452.2 64.6 450.3 67.6C449.4 69 448.8 70.4 448.5 71.7C447.9 74.7 448.3 77.1 449.6 78.8C451 80.3 453.3 81.2 456.5 81.2ZM481.9 27.4C481.2 27.4 480.4 27.5 479.5 27.6C472.5 28.8 465.6 36.2 463.4 45.1C463 46.4 462.2 49.7 462.3 53.8C451.5 59.3 445.9 64.8 443.3 71C441.5 75.4 441.6 82.2 446.9 84.7C448.5 85.5 450.9 86.2 454.4 86.2C456.1 86.2 458 86 460.2 85.7C470.1 83.8 474.7 76.8 476 74.6C476 74.6 479.7 76.2 481.7 76.5C481.8 76.5 481.9 76.5 482 76.5H482.1C484.6 76.3 487.9 73 488 71.6C487.9 71.2 487.6 71.1 487.3 71.1C487.2 71.1 487.2 71.1 487.1 71.1C487.1 71.1 487.1 71.1 487 71.1C484.9 71.1 478.4 68.9 478.7 68.9C480.3 65.2 481.2 57 476.4 55.5C476.2 55.5 476 55.4 475.8 55.4C474.2 55.4 473.8 56.7 473.8 57.3C473.8 59 474.7 63.3 474.1 66.1C474.1 66.1 468.5 62.4 467.8 55.2C476 50.9 482.7 45.2 484.2 42.8C487.6 38.1 487.7 33.9 487.6 33.2C487.4 30.5 486.5 27.4 481.9 27.4ZM467.5 51C467.4 46.8 468.9 43.1 469.9 40.7C471.3 37.3 473.4 35.1 474.2 34.4C476.7 32.2 478.6 31.6 479.7 31.6C479.8 31.6 479.9 31.6 480 31.6C482.3 31.7 482.9 33.2 482.9 33.2C483.2 33.8 483.7 35.2 482.9 37.3C480.8 43.9 471.8 48.4 467.5 51ZM456.5 80.8C449.7 80.8 447.9 76.8 449 71.7C449.3 70.4 449.9 69 450.7 67.8C452.5 64.9 456.2 60.8 462.8 57.8C463.6 62.2 467.9 68.4 472.4 72C472.4 72 468.1 79.4 459.6 80.6C458.4 80.7 457.4 80.8 456.5 80.8Z" fill="#130E24"/>
    <path d="M286.881 240.232C287.112 240.184 287.308 240.226 287.467 240.356C287.627 240.486 287.707 240.677 287.707 240.928C287.707 241.18 287.627 241.403 287.467 241.598C287.308 241.793 287.112 241.915 286.881 241.962C286.634 242.012 286.431 241.972 286.272 241.842C286.113 241.712 286.033 241.521 286.033 241.269C286.033 241.018 286.113 240.795 286.272 240.6C286.431 240.404 286.634 240.282 286.881 240.232ZM286.402 244.189L287.25 244.016L287.359 255.772L286.272 255.993L286.402 244.189ZM302.29 249.448L301.312 249.647L292.357 237.541V251.471L291.379 251.67V236.121L292.357 235.922L301.312 247.983V234.098L302.29 233.899V249.448ZM311.071 247.837C309.97 248.061 308.977 248.012 308.093 247.689C307.209 247.366 306.514 246.791 306.007 245.962C305.514 245.116 305.268 244.065 305.268 242.808C305.268 241.566 305.521 240.427 306.028 239.392C306.536 238.343 307.231 237.484 308.115 236.816C309.013 236.13 310.013 235.675 311.114 235.451C312.216 235.226 313.208 235.275 314.092 235.598C314.976 235.906 315.664 236.476 316.157 237.307C316.664 238.135 316.918 239.178 316.918 240.435C316.918 241.692 316.664 242.845 316.157 243.895C315.65 244.93 314.947 245.79 314.049 246.476C313.165 247.159 312.172 247.612 311.071 247.837ZM311.071 246.949C311.926 246.775 312.723 246.421 313.462 245.886C314.215 245.333 314.817 244.611 315.266 243.721C315.715 242.831 315.94 241.802 315.94 240.634C315.94 239.481 315.715 238.55 315.266 237.843C314.817 237.136 314.223 236.666 313.484 236.432C312.745 236.183 311.948 236.146 311.093 236.32C310.238 236.494 309.441 236.856 308.702 237.406C307.977 237.938 307.391 238.649 306.941 239.539C306.492 240.429 306.268 241.451 306.268 242.604C306.268 243.772 306.485 244.712 306.92 245.422C307.369 246.129 307.956 246.608 308.68 246.86C309.419 247.094 310.216 247.123 311.071 246.949ZM323.819 245.24C322.501 245.508 321.421 245.433 320.581 245.012C319.755 244.589 319.291 243.841 319.19 242.767L320.19 242.563C320.262 243.332 320.61 243.883 321.233 244.214C321.87 244.543 322.733 244.596 323.819 244.375C324.718 244.192 325.428 243.818 325.949 243.253C326.485 242.671 326.753 242.04 326.753 241.359C326.753 240.886 326.609 240.531 326.319 240.294C326.043 240.04 325.696 239.874 325.276 239.797C324.855 239.72 324.283 239.659 323.558 239.615C322.689 239.555 321.986 239.469 321.45 239.356C320.914 239.229 320.458 238.974 320.081 238.593C319.704 238.211 319.516 237.636 319.516 236.867C319.516 236.305 319.682 235.753 320.016 235.212C320.349 234.656 320.813 234.178 321.407 233.776C322.001 233.374 322.675 233.096 323.428 232.942C324.66 232.691 325.652 232.807 326.406 233.29C327.174 233.754 327.587 234.535 327.645 235.632L326.667 235.832C326.623 235.042 326.319 234.453 325.754 234.066C325.189 233.678 324.406 233.586 323.406 233.79C322.566 233.961 321.87 234.324 321.32 234.88C320.769 235.436 320.494 236.032 320.494 236.668C320.494 237.23 320.646 237.657 320.95 237.95C321.269 238.225 321.653 238.413 322.102 238.514C322.566 238.597 323.174 238.665 323.928 238.719C324.754 238.772 325.413 238.86 325.906 238.981C326.413 239.085 326.84 239.308 327.188 239.652C327.536 239.98 327.71 240.484 327.71 241.165C327.71 241.786 327.543 242.381 327.21 242.952C326.877 243.523 326.413 244.009 325.819 244.411C325.225 244.813 324.558 245.089 323.819 245.24ZM336.215 236.504C336.215 235.247 336.454 234.104 336.932 233.075C337.425 232.043 338.098 231.196 338.953 230.534C339.823 229.854 340.815 229.401 341.931 229.173C343.409 228.872 344.619 229.003 345.561 229.565C346.517 230.125 347.111 231.017 347.343 232.241L346.321 232.449C346.133 231.452 345.64 230.739 344.843 230.31C344.061 229.878 343.09 229.78 341.931 230.016C341.062 230.193 340.272 230.554 339.562 231.098C338.852 231.627 338.28 232.342 337.845 233.244C337.425 234.128 337.214 235.147 337.214 236.301C337.214 237.469 337.425 238.409 337.845 239.122C338.28 239.832 338.852 240.315 339.562 240.569C340.272 240.824 341.062 240.863 341.931 240.686C343.09 240.449 344.061 239.956 344.843 239.205C345.64 238.451 346.133 237.537 346.321 236.464L347.343 236.256C347.111 237.56 346.517 238.694 345.561 239.658C344.604 240.622 343.394 241.252 341.931 241.551C340.815 241.778 339.823 241.729 338.953 241.403C338.098 241.074 337.425 240.494 336.932 239.663C336.454 238.814 336.215 237.761 336.215 236.504ZM349.714 233.754C349.714 232.512 349.953 231.377 350.431 230.348C350.924 229.316 351.598 228.461 352.453 227.784C353.322 227.104 354.308 226.652 355.409 226.428C356.655 226.174 357.713 226.269 358.582 226.713C359.451 227.157 360.06 227.824 360.408 228.715V225.565L361.386 225.366V237.41L360.408 237.61V234.438C360.06 235.484 359.444 236.416 358.56 237.232C357.691 238.03 356.64 238.554 355.409 238.805C354.308 239.03 353.322 238.979 352.453 238.653C351.598 238.31 350.924 237.722 350.431 236.891C349.953 236.042 349.714 234.997 349.714 233.754ZM360.408 231.576C360.408 230.526 360.19 229.646 359.756 228.936C359.336 228.209 358.756 227.706 358.017 227.427C357.278 227.134 356.452 227.081 355.539 227.267C354.583 227.461 353.742 227.847 353.018 228.423C352.293 228.985 351.728 229.706 351.323 230.588C350.917 231.469 350.714 232.456 350.714 233.551C350.714 234.645 350.917 235.55 351.323 236.266C351.728 236.982 352.293 237.48 353.018 237.762C353.757 238.04 354.597 238.083 355.539 237.891C356.452 237.705 357.278 237.323 358.017 236.743C358.77 236.146 359.357 235.406 359.777 234.522C360.198 233.623 360.408 232.641 360.408 231.576ZM368.881 236.061C367.563 236.33 366.483 236.254 365.643 235.833C364.817 235.41 364.353 234.662 364.252 233.588L365.251 233.384C365.324 234.153 365.672 234.704 366.295 235.035C366.932 235.364 367.794 235.417 368.881 235.196C369.78 235.013 370.49 234.639 371.011 234.074C371.547 233.492 371.815 232.861 371.815 232.18C371.815 231.707 371.671 231.352 371.381 231.116C371.105 230.861 370.758 230.695 370.337 230.618C369.917 230.541 369.345 230.48 368.62 230.436C367.751 230.376 367.048 230.29 366.512 230.178C365.976 230.05 365.52 229.796 365.143 229.414C364.766 229.032 364.578 228.457 364.578 227.688C364.578 227.126 364.744 226.575 365.078 226.033C365.411 225.478 365.875 224.999 366.469 224.597C367.063 224.195 367.737 223.917 368.49 223.763C369.722 223.513 370.714 223.628 371.468 224.111C372.236 224.575 372.649 225.356 372.707 226.454L371.729 226.653C371.685 225.863 371.381 225.274 370.816 224.887C370.251 224.499 369.468 224.407 368.468 224.611C367.628 224.782 366.932 225.145 366.382 225.701C365.831 226.257 365.556 226.853 365.556 227.489C365.556 228.051 365.708 228.478 366.012 228.771C366.331 229.046 366.715 229.234 367.164 229.335C367.628 229.418 368.236 229.486 368.99 229.54C369.816 229.593 370.475 229.681 370.968 229.802C371.475 229.906 371.902 230.129 372.25 230.473C372.598 230.801 372.772 231.305 372.772 231.986C372.772 232.607 372.605 233.203 372.272 233.773C371.939 234.344 371.475 234.83 370.881 235.232C370.287 235.634 369.62 235.91 368.881 236.061ZM375.142 228.575C375.142 227.333 375.382 226.197 375.86 225.168C376.352 224.136 377.026 223.282 377.881 222.605C378.75 221.925 379.736 221.473 380.837 221.248C382.083 220.995 383.141 221.09 384.01 221.534C384.88 221.978 385.488 222.645 385.836 223.535V220.385L386.814 220.186V232.231L385.836 232.43V229.258C385.488 230.305 384.873 231.236 383.989 232.052C383.119 232.85 382.069 233.375 380.837 233.626C379.736 233.85 378.75 233.799 377.881 233.474C377.026 233.13 376.352 232.543 375.86 231.712C375.382 230.863 375.142 229.817 375.142 228.575ZM385.836 226.397C385.836 225.347 385.619 224.467 385.184 223.757C384.764 223.029 384.184 222.526 383.445 222.248C382.706 221.955 381.88 221.901 380.967 222.087C380.011 222.282 379.171 222.667 378.446 223.244C377.722 223.805 377.157 224.527 376.751 225.408C376.345 226.289 376.142 227.277 376.142 228.371C376.142 229.465 376.345 230.371 376.751 231.086C377.157 231.802 377.722 232.301 378.446 232.582C379.185 232.86 380.026 232.904 380.967 232.712C381.88 232.526 382.706 232.143 383.445 231.564C384.199 230.967 384.786 230.226 385.206 229.342C385.626 228.443 385.836 227.461 385.836 226.397ZM404.329 216.374C405.677 216.1 406.778 216.319 407.633 217.032C408.488 217.731 408.915 218.945 408.915 220.675V227.729L407.959 227.924V220.936C407.959 219.502 407.619 218.477 406.938 217.862C406.271 217.229 405.351 217.031 404.177 217.271C402.96 217.518 401.982 218.147 401.243 219.155C400.504 220.163 400.135 221.48 400.135 223.107V229.517L399.178 229.712V222.725C399.178 221.291 398.838 220.266 398.157 219.65C397.49 219.017 396.57 218.82 395.396 219.059C394.179 219.307 393.201 219.935 392.462 220.943C391.723 221.952 391.354 223.269 391.354 224.896V231.306L390.375 231.505V219.461L391.354 219.262V221.879C391.687 220.865 392.223 220.046 392.962 219.422C393.715 218.78 394.578 218.361 395.548 218.163C396.621 217.945 397.541 218.046 398.309 218.466C399.091 218.868 399.627 219.595 399.917 220.645C400.192 219.48 400.729 218.535 401.526 217.811C402.323 217.072 403.257 216.593 404.329 216.374ZM417.581 226.141C416.48 226.365 415.487 226.316 414.603 225.993C413.72 225.671 413.024 225.095 412.517 224.267C412.024 223.421 411.778 222.369 411.778 221.112C411.778 219.87 412.031 218.732 412.539 217.697C413.046 216.647 413.741 215.788 414.625 215.12C415.524 214.434 416.523 213.979 417.625 213.755C418.726 213.531 419.718 213.58 420.602 213.903C421.486 214.211 422.174 214.78 422.667 215.611C423.174 216.44 423.428 217.482 423.428 218.739C423.428 219.996 423.174 221.15 422.667 222.199C422.16 223.234 421.457 224.095 420.559 224.78C419.675 225.463 418.682 225.917 417.581 226.141ZM417.581 225.254C418.436 225.08 419.233 224.725 419.972 224.19C420.725 223.637 421.327 222.916 421.776 222.026C422.225 221.136 422.45 220.107 422.45 218.939C422.45 217.785 422.225 216.855 421.776 216.148C421.327 215.441 420.733 214.97 419.994 214.736C419.255 214.488 418.458 214.45 417.603 214.625C416.748 214.799 415.951 215.161 415.212 215.71C414.488 216.242 413.901 216.954 413.451 217.844C413.002 218.734 412.778 219.755 412.778 220.909C412.778 222.077 412.995 223.016 413.43 223.726C413.879 224.433 414.466 224.912 415.19 225.164C415.929 225.398 416.726 225.428 417.581 225.254ZM430.329 223.544C429.011 223.813 427.931 223.737 427.091 223.317C426.265 222.893 425.801 222.145 425.7 221.071L426.7 220.868C426.772 221.637 427.12 222.187 427.743 222.518C428.38 222.847 429.243 222.901 430.329 222.679C431.228 222.496 431.938 222.122 432.459 221.558C432.996 220.975 433.264 220.344 433.264 219.664C433.264 219.191 433.119 218.836 432.829 218.599C432.554 218.344 432.206 218.179 431.786 218.102C431.365 218.025 430.793 217.964 430.069 217.919C429.199 217.86 428.496 217.773 427.96 217.661C427.424 217.533 426.968 217.279 426.591 216.897C426.214 216.516 426.026 215.94 426.026 215.171C426.026 214.609 426.193 214.058 426.526 213.517C426.859 212.961 427.323 212.482 427.917 212.08C428.511 211.678 429.185 211.4 429.938 211.247C431.17 210.996 432.162 211.112 432.916 211.594C433.684 212.059 434.097 212.84 434.155 213.937L433.177 214.136C433.133 213.346 432.829 212.758 432.264 212.37C431.699 211.982 430.916 211.89 429.916 212.094C429.076 212.265 428.38 212.629 427.83 213.185C427.279 213.74 427.004 214.336 427.004 214.972C427.004 215.534 427.156 215.961 427.46 216.254C427.779 216.53 428.163 216.717 428.612 216.818C429.076 216.901 429.685 216.97 430.438 217.023C431.264 217.077 431.923 217.164 432.416 217.286C432.923 217.389 433.351 217.613 433.698 217.956C434.046 218.284 434.22 218.789 434.22 219.469C434.22 220.09 434.053 220.686 433.72 221.257C433.387 221.827 432.923 222.314 432.329 222.716C431.735 223.118 431.068 223.394 430.329 223.544ZM438.634 206.104L438.525 217.904L437.677 218.077L437.547 206.325L438.634 206.104ZM438.156 221.839C437.909 221.889 437.706 221.849 437.547 221.719C437.388 221.589 437.308 221.398 437.308 221.147C437.308 220.895 437.388 220.672 437.547 220.477C437.706 220.282 437.909 220.159 438.156 220.109C438.387 220.062 438.583 220.103 438.742 220.234C438.902 220.364 438.981 220.555 438.981 220.806C438.981 221.057 438.902 221.281 438.742 221.476C438.583 221.671 438.387 221.792 438.156 221.839Z" fill="white"/>
    <path d="M379.9 42.2C382.054 42.2 383.8 40.4539 383.8 38.3C383.8 36.1461 382.054 34.4 379.9 34.4C377.746 34.4 376 36.1461 376 38.3C376 40.4539 377.746 42.2 379.9 42.2Z" fill="white"/>
    <path d="M466.7 292.2C469.351 292.2 471.5 290.051 471.5 287.4C471.5 284.749 469.351 282.6 466.7 282.6C464.049 282.6 461.9 284.749 461.9 287.4C461.9 290.051 464.049 292.2 466.7 292.2Z" fill="white"/>
    <path d="M623.2 224.8C625.851 224.8 628 222.651 628 220C628 217.349 625.851 215.2 623.2 215.2C620.549 215.2 618.4 217.349 618.4 220C618.4 222.651 620.549 224.8 623.2 224.8Z" fill="white"/>
    <path d="M530.1 176.1C532.751 176.1 534.9 173.951 534.9 171.3C534.9 168.649 532.751 166.5 530.1 166.5C527.449 166.5 525.3 168.649 525.3 171.3C525.3 173.951 527.449 176.1 530.1 176.1Z" fill="white"/>
    <path d="M528.9 77.6C531.551 77.6 533.7 75.451 533.7 72.8C533.7 70.149 531.551 68 528.9 68C526.249 68 524.1 70.149 524.1 72.8C524.1 75.451 526.249 77.6 528.9 77.6Z" fill="white"/>
    <path d="M545.4 256.4C546.947 256.4 548.2 255.146 548.2 253.6C548.2 252.054 546.947 250.8 545.4 250.8C543.854 250.8 542.6 252.054 542.6 253.6C542.6 255.146 543.854 256.4 545.4 256.4Z" fill="white"/>
    <path d="M576.5 181.7C578.046 181.7 579.3 180.446 579.3 178.9C579.3 177.354 578.046 176.1 576.5 176.1C574.954 176.1 573.7 177.354 573.7 178.9C573.7 180.446 574.954 181.7 576.5 181.7Z" fill="white"/>
    <path d="M635.6 184.7C637.146 184.7 638.4 183.446 638.4 181.9C638.4 180.354 637.146 179.1 635.6 179.1C634.054 179.1 632.8 180.354 632.8 181.9C632.8 183.446 634.054 184.7 635.6 184.7Z" fill="white"/>
    <path d="M657.1 182C658.646 182 659.9 180.746 659.9 179.2C659.9 177.654 658.646 176.4 657.1 176.4C655.554 176.4 654.3 177.654 654.3 179.2C654.3 180.746 655.554 182 657.1 182Z" fill="white"/>
    <path d="M664.6 161.3C666.146 161.3 667.4 160.046 667.4 158.5C667.4 156.954 666.146 155.7 664.6 155.7C663.054 155.7 661.8 156.954 661.8 158.5C661.8 160.046 663.054 161.3 664.6 161.3Z" fill="white"/>
    <path d="M627.6 81.5C629.146 81.5 630.4 80.2464 630.4 78.7C630.4 77.1536 629.146 75.9 627.6 75.9C626.054 75.9 624.8 77.1536 624.8 78.7C624.8 80.2464 626.054 81.5 627.6 81.5Z" fill="white"/>
    <path d="M604 114.7C605.546 114.7 606.8 113.446 606.8 111.9C606.8 110.354 605.546 109.1 604 109.1C602.454 109.1 601.2 110.354 601.2 111.9C601.2 113.446 602.454 114.7 604 114.7Z" fill="white"/>
    <path d="M563 113C564.546 113 565.8 111.746 565.8 110.2C565.8 108.654 564.546 107.4 563 107.4C561.454 107.4 560.2 108.654 560.2 110.2C560.2 111.746 561.454 113 563 113Z" fill="white"/>
    <path d="M466.7 287.4L545.4 253.6L623.2 220L635.6 181.9L657.1 179.2L664.6 158.5L627.6 78.7L604 111.9L563 110.2L528.9 72.8" stroke="white" stroke-width="0.5527" stroke-miterlimit="10"/>
    <path d="M623.2 220L576.5 178.9L530.1 171.3" stroke="white" stroke-width="0.5527" stroke-miterlimit="10"/>
    <path d="M124.5 116.9C127.151 116.9 129.3 114.751 129.3 112.1C129.3 109.449 127.151 107.3 124.5 107.3C121.849 107.3 119.7 109.449 119.7 112.1C119.7 114.751 121.849 116.9 124.5 116.9Z" fill="white"/>
    <path d="M151.9 146.6C154.551 146.6 156.7 144.451 156.7 141.8C156.7 139.149 154.551 137 151.9 137C149.249 137 147.1 139.149 147.1 141.8C147.1 144.451 149.249 146.6 151.9 146.6Z" fill="white"/>
    <path d="M73.9 193C76.551 193 78.7 190.851 78.7 188.2C78.7 185.549 76.551 183.4 73.9 183.4C71.2491 183.4 69.1 185.549 69.1 188.2C69.1 190.851 71.2491 193 73.9 193Z" fill="white"/>
    <path d="M229.3 97.6C231.951 97.6 234.1 95.451 234.1 92.8C234.1 90.149 231.951 88 229.3 88C226.649 88 224.5 90.149 224.5 92.8C224.5 95.451 226.649 97.6 229.3 97.6Z" fill="white"/>
    <path d="M219.9 291.9C222.551 291.9 224.7 289.751 224.7 287.1C224.7 284.449 222.551 282.3 219.9 282.3C217.249 282.3 215.1 284.449 215.1 287.1C215.1 289.751 217.249 291.9 219.9 291.9Z" fill="white"/>
    <path d="M152.6 277.5C154.146 277.5 155.4 276.246 155.4 274.7C155.4 273.154 154.146 271.9 152.6 271.9C151.054 271.9 149.8 273.154 149.8 274.7C149.8 276.246 151.054 277.5 152.6 277.5Z" fill="white"/>
    <path d="M74.9 256.5C76.4464 256.5 77.7 255.246 77.7 253.7C77.7 252.154 76.4464 250.9 74.9 250.9C73.3536 250.9 72.1 252.154 72.1 253.7C72.1 255.246 73.3536 256.5 74.9 256.5Z" fill="white"/>
    <path d="M125.2 141.2C126.746 141.2 128 139.946 128 138.4C128 136.854 126.746 135.6 125.2 135.6C123.654 135.6 122.4 136.854 122.4 138.4C122.4 139.946 123.654 141.2 125.2 141.2Z" fill="white"/>
    <path d="M142 100.1C143.546 100.1 144.8 98.8464 144.8 97.3C144.8 95.7536 143.546 94.5 142 94.5C140.454 94.5 139.2 95.7536 139.2 97.3C139.2 98.8464 140.454 100.1 142 100.1Z" fill="white"/>
    <path d="M63.1 120.1C64.6464 120.1 65.9001 118.846 65.9001 117.3C65.9001 115.754 64.6464 114.5 63.1 114.5C61.5536 114.5 60.3 115.754 60.3 117.3C60.3 118.846 61.5536 120.1 63.1 120.1Z" fill="white"/>
    <path d="M145.6 57.4C147.146 57.4 148.4 56.1464 148.4 54.6C148.4 53.0536 147.146 51.8 145.6 51.8C144.054 51.8 142.8 53.0536 142.8 54.6C142.8 56.1464 144.054 57.4 145.6 57.4Z" fill="white"/>
    <path d="M125.2 5.6C126.746 5.6 128 4.3464 128 2.8C128 1.2536 126.746 0 125.2 0C123.654 0 122.4 1.2536 122.4 2.8C122.4 4.3464 123.654 5.6 125.2 5.6Z" fill="white"/>
    <path d="M193.2 67.7C194.746 67.7 196 66.4464 196 64.9C196 63.3536 194.746 62.1 193.2 62.1C191.654 62.1 190.4 63.3536 190.4 64.9C190.4 66.4464 191.654 67.7 193.2 67.7Z" fill="white"/>
    <path d="M216.6 40C218.146 40 219.4 38.7464 219.4 37.2C219.4 35.6536 218.146 34.4 216.6 34.4C215.054 34.4 213.8 35.6536 213.8 37.2C213.8 38.7464 215.054 40 216.6 40Z" fill="white"/>
    <path d="M257.4 97.9C258.946 97.9 260.2 96.6464 260.2 95.1C260.2 93.5536 258.946 92.3 257.4 92.3C255.854 92.3 254.6 93.5536 254.6 95.1C254.6 96.6464 255.854 97.9 257.4 97.9Z" fill="white"/>
    <path d="M265.1 243C266.646 243 267.9 241.746 267.9 240.2C267.9 238.654 266.646 237.4 265.1 237.4C263.554 237.4 262.3 238.654 262.3 240.2C262.3 241.746 263.554 243 265.1 243Z" fill="white"/>
    <path d="M228.1 230.5C229.646 230.5 230.9 229.246 230.9 227.7C230.9 226.154 229.646 224.9 228.1 224.9C226.554 224.9 225.3 226.154 225.3 227.7C225.3 229.246 226.554 230.5 228.1 230.5Z" fill="white"/>
    <path d="M22.7 131C24.2464 131 25.5 129.746 25.5 128.2C25.5 126.654 24.2464 125.4 22.7 125.4C21.1536 125.4 19.9 126.654 19.9 128.2C19.9 129.746 21.1536 131 22.7 131Z" fill="white"/>
    <path d="M3.40002 122.6C4.94642 122.6 6.20001 121.346 6.20001 119.8C6.20001 118.254 4.94642 117 3.40002 117C1.85363 117 0.599976 118.254 0.599976 119.8C0.599976 121.346 1.85363 122.6 3.40002 122.6Z" fill="white"/>
    <path d="M265.1 240.2L219.9 287.1L152.6 274.7L75.6 252.8L73.9 188.2L125.2 138.4L124.5 112.1L142 97.3L145.6 54.6L125.2 2.79999" stroke="white" stroke-width="0.5527" stroke-miterlimit="10"/>
    <path d="M3.40002 119.8L22.7 128.2L63.1 117.3L125.2 138.4L150.6 140.9L142 97.3" stroke="white" stroke-width="0.5527" stroke-miterlimit="10"/>
    <path d="M146.2 53.8L193.2 64.9L229.3 92.8L256.3 94.3" stroke="white" stroke-width="0.5527" stroke-miterlimit="10"/>
    <path d="M228.1 227.7L219.9 287.1" stroke="white" stroke-width="0.5527" stroke-miterlimit="10"/>
    <path d="M216.6 37.2L193.2 64.9" stroke="white" stroke-width="0.5527" stroke-miterlimit="10"/>
</svg>