<svg width="1854" height="1831" viewBox="0 0 1854 1831" fill="none" xmlns="http://www.w3.org/2000/svg">
<g opacity="0.5">
<g opacity="0.5">
<g opacity="0.5">
<path opacity="0.5" d="M281.8 285.621C284.617 285.621 286.9 283.338 286.9 280.521C286.9 277.705 284.617 275.421 281.8 275.421C278.983 275.421 276.7 277.705 276.7 280.521C276.7 283.338 278.983 285.621 281.8 285.621Z" fill="white"/>
</g>
<g opacity="0.5">
<path opacity="0.5" d="M298.3 421.421C301.558 421.421 304.2 418.78 304.2 415.521C304.2 412.263 301.558 409.621 298.3 409.621C295.042 409.621 292.4 412.263 292.4 415.521C292.4 418.78 295.042 421.421 298.3 421.421Z" fill="white"/>
</g>
<g opacity="0.5">
<path opacity="0.5" d="M221.8 522.021C225.169 522.021 227.9 519.29 227.9 515.921C227.9 512.552 225.169 509.821 221.8 509.821C218.431 509.821 215.7 512.552 215.7 515.921C215.7 519.29 218.431 522.021 221.8 522.021Z" fill="white"/>
</g>
<g opacity="0.5">
<path opacity="0.5" d="M66.3 498.921C69.3928 498.921 71.9 496.414 71.9 493.321C71.9 490.228 69.3928 487.721 66.3 487.721C63.2072 487.721 60.7 490.228 60.7 493.321C60.7 496.414 63.2072 498.921 66.3 498.921Z" fill="white"/>
</g>
<g opacity="0.5">
<path opacity="0.5" d="M6.3 607.521C9.77939 607.521 12.6 604.701 12.6 601.221C12.6 597.742 9.77939 594.921 6.3 594.921C2.82061 594.921 0 597.742 0 601.221C0 604.701 2.82061 607.521 6.3 607.521Z" fill="white"/>
</g>
<g opacity="0.5">
<path opacity="0.5" d="M169.3 638.421C171.233 638.421 172.8 636.854 172.8 634.921C172.8 632.988 171.233 631.421 169.3 631.421C167.367 631.421 165.8 632.988 165.8 634.921C165.8 636.854 167.367 638.421 169.3 638.421Z" fill="white"/>
</g>
<g opacity="0.5">
<path opacity="0.5" d="M76.4 805.121C78.6092 805.121 80.4 803.33 80.4 801.121C80.4 798.912 78.6092 797.121 76.4 797.121C74.1909 797.121 72.4 798.912 72.4 801.121C72.4 803.33 74.1909 805.121 76.4 805.121Z" fill="white"/>
</g>
<g opacity="0.5">
<path opacity="0.5" d="M276.3 628.221C278.62 628.221 280.5 626.341 280.5 624.021C280.5 621.702 278.62 619.821 276.3 619.821C273.98 619.821 272.1 621.702 272.1 624.021C272.1 626.341 273.98 628.221 276.3 628.221Z" fill="white"/>
</g>
<g opacity="0.5">
<path opacity="0.5" d="M343.5 697.821C345.764 697.821 347.6 695.986 347.6 693.721C347.6 691.457 345.764 689.621 343.5 689.621C341.236 689.621 339.4 691.457 339.4 693.721C339.4 695.986 341.236 697.821 343.5 697.821Z" fill="white"/>
</g>
<g opacity="0.5">
<path opacity="0.5" d="M348.2 791.221C350.52 791.221 352.4 789.341 352.4 787.021C352.4 784.702 350.52 782.821 348.2 782.821C345.88 782.821 344 784.702 344 787.021C344 789.341 345.88 791.221 348.2 791.221Z" fill="white"/>
</g>
<g opacity="0.5">
<path opacity="0.5" d="M418.5 794.821C422.09 794.821 425 791.911 425 788.321C425 784.731 422.09 781.821 418.5 781.821C414.91 781.821 412 784.731 412 788.321C412 791.911 414.91 794.821 418.5 794.821Z" fill="white"/>
</g>
<g opacity="0.5">
<path opacity="0.5" d="M430 886.421C432.982 886.421 435.4 884.004 435.4 881.021C435.4 878.039 432.982 875.621 430 875.621C427.018 875.621 424.6 878.039 424.6 881.021C424.6 884.004 427.018 886.421 430 886.421Z" fill="white"/>
</g>
<g opacity="0.5">
<path opacity="0.5" d="M531.4 1061.92C533.72 1061.92 535.6 1060.04 535.6 1057.72C535.6 1055.4 533.72 1053.52 531.4 1053.52C529.08 1053.52 527.2 1055.4 527.2 1057.72C527.2 1060.04 529.08 1061.92 531.4 1061.92Z" fill="white"/>
</g>
<g opacity="0.5">
<path opacity="0.5" d="M319.3 944.821C322.835 944.821 325.7 941.956 325.7 938.421C325.7 934.887 322.835 932.021 319.3 932.021C315.765 932.021 312.9 934.887 312.9 938.421C312.9 941.956 315.765 944.821 319.3 944.821Z" fill="white"/>
</g>
<g opacity="0.5">
<path opacity="0.5" d="M496.7 1091.72C499.075 1091.72 501 1089.8 501 1087.42C501 1085.05 499.075 1083.12 496.7 1083.12C494.325 1083.12 492.4 1085.05 492.4 1087.42C492.4 1089.8 494.325 1091.72 496.7 1091.72Z" fill="white"/>
</g>
<g opacity="0.5">
<path opacity="0.5" d="M459.2 1127.62C462.238 1127.62 464.7 1125.16 464.7 1122.12C464.7 1119.08 462.238 1116.62 459.2 1116.62C456.162 1116.62 453.7 1119.08 453.7 1122.12C453.7 1125.16 456.162 1127.62 459.2 1127.62Z" fill="white"/>
</g>
<g opacity="0.5">
<path opacity="0.5" d="M233.5 1057.32C236.372 1057.32 238.7 1054.99 238.7 1052.12C238.7 1049.25 236.372 1046.92 233.5 1046.92C230.628 1046.92 228.3 1049.25 228.3 1052.12C228.3 1054.99 230.628 1057.32 233.5 1057.32Z" fill="white"/>
</g>
<g opacity="0.5">
<path opacity="0.5" d="M393.4 1177.72C395.775 1177.72 397.7 1175.8 397.7 1173.42C397.7 1171.05 395.775 1169.12 393.4 1169.12C391.025 1169.12 389.1 1171.05 389.1 1173.42C389.1 1175.8 391.025 1177.72 393.4 1177.72Z" fill="white"/>
</g>
<g opacity="0.5">
<path opacity="0.5" d="M243.6 1225.62C245.588 1225.62 247.2 1224.01 247.2 1222.02C247.2 1220.03 245.588 1218.42 243.6 1218.42C241.612 1218.42 240 1220.03 240 1222.02C240 1224.01 241.612 1225.62 243.6 1225.62Z" fill="white"/>
</g>
<g opacity="0.5">
<path opacity="0.5" d="M216.1 1310.22C219.469 1310.22 222.2 1307.49 222.2 1304.12C222.2 1300.75 219.469 1298.02 216.1 1298.02C212.731 1298.02 210 1300.75 210 1304.12C210 1307.49 212.731 1310.22 216.1 1310.22Z" fill="white"/>
</g>
<g opacity="0.5">
<path opacity="0.5" d="M45.1 1336.32C47.6958 1336.32 49.8 1334.22 49.8 1331.62C49.8 1329.03 47.6958 1326.92 45.1 1326.92C42.5043 1326.92 40.4 1329.03 40.4 1331.62C40.4 1334.22 42.5043 1336.32 45.1 1336.32Z" fill="white"/>
</g>
<g opacity="0.5">
<path opacity="0.5" d="M108.3 1512.02C111.724 1512.02 114.5 1509.25 114.5 1505.82C114.5 1502.4 111.724 1499.62 108.3 1499.62C104.876 1499.62 102.1 1502.4 102.1 1505.82C102.1 1509.25 104.876 1512.02 108.3 1512.02Z" fill="white"/>
</g>
<g opacity="0.5">
<path opacity="0.5" d="M32.6 1522.82C35.6928 1522.82 38.2 1520.31 38.2 1517.22C38.2 1514.13 35.6928 1511.62 32.6 1511.62C29.5072 1511.62 27 1514.13 27 1517.22C27 1520.31 29.5072 1522.82 32.6 1522.82Z" fill="white"/>
</g>
<g opacity="0.5">
<path opacity="0.5" d="M40.2 1515.32C42.7957 1515.32 44.9 1513.22 44.9 1510.62C44.9 1508.03 42.7957 1505.92 40.2 1505.92C37.6043 1505.92 35.5 1508.03 35.5 1510.62C35.5 1513.22 37.6043 1515.32 40.2 1515.32Z" fill="white"/>
</g>
<g opacity="0.5">
<path opacity="0.5" d="M132.3 1542.12C135.503 1542.12 138.1 1539.52 138.1 1536.32C138.1 1533.12 135.503 1530.52 132.3 1530.52C129.097 1530.52 126.5 1533.12 126.5 1536.32C126.5 1539.52 129.097 1542.12 132.3 1542.12Z" fill="white"/>
</g>
<g opacity="0.5">
<path opacity="0.5" d="M231.1 1477.12C234.082 1477.12 236.5 1474.7 236.5 1471.72C236.5 1468.74 234.082 1466.32 231.1 1466.32C228.118 1466.32 225.7 1468.74 225.7 1471.72C225.7 1474.7 228.118 1477.12 231.1 1477.12Z" fill="white"/>
</g>
<g opacity="0.5">
<path opacity="0.5" d="M278.4 1495.22C280.112 1495.22 281.5 1493.83 281.5 1492.12C281.5 1490.41 280.112 1489.02 278.4 1489.02C276.688 1489.02 275.3 1490.41 275.3 1492.12C275.3 1493.83 276.688 1495.22 278.4 1495.22Z" fill="white"/>
</g>
<g opacity="0.5">
<path opacity="0.5" d="M296.7 1621.82C298.743 1621.82 300.4 1620.16 300.4 1618.12C300.4 1616.08 298.743 1614.42 296.7 1614.42C294.657 1614.42 293 1616.08 293 1618.12C293 1620.16 294.657 1621.82 296.7 1621.82Z" fill="white"/>
</g>
<g opacity="0.5">
<path opacity="0.5" d="M390.8 1590.42C394.058 1590.42 396.7 1587.78 396.7 1584.52C396.7 1581.26 394.058 1578.62 390.8 1578.62C387.542 1578.62 384.9 1581.26 384.9 1584.52C384.9 1587.78 387.542 1590.42 390.8 1590.42Z" fill="white"/>
</g>
<g opacity="0.5">
<path opacity="0.5" d="M452 1781.82C454.817 1781.82 457.1 1779.54 457.1 1776.72C457.1 1773.9 454.817 1771.62 452 1771.62C449.183 1771.62 446.9 1773.9 446.9 1776.72C446.9 1779.54 449.183 1781.82 452 1781.82Z" fill="white"/>
</g>
<g opacity="0.5">
<path opacity="0.5" d="M467.7 1462.62C469.302 1462.62 470.6 1461.32 470.6 1459.72C470.6 1458.12 469.302 1456.82 467.7 1456.82C466.098 1456.82 464.8 1458.12 464.8 1459.72C464.8 1461.32 466.098 1462.62 467.7 1462.62Z" fill="white"/>
</g>
<g opacity="0.5">
<path opacity="0.5" d="M574.4 1615.82C576.72 1615.82 578.6 1613.94 578.6 1611.62C578.6 1609.3 576.72 1607.42 574.4 1607.42C572.08 1607.42 570.2 1609.3 570.2 1611.62C570.2 1613.94 572.08 1615.82 574.4 1615.82Z" fill="white"/>
</g>
<g opacity="0.5">
<path opacity="0.5" d="M682.3 1773.32C685.282 1773.32 687.7 1770.9 687.7 1767.92C687.7 1764.94 685.282 1762.52 682.3 1762.52C679.318 1762.52 676.9 1764.94 676.9 1767.92C676.9 1770.9 679.318 1773.32 682.3 1773.32Z" fill="white"/>
</g>
<g opacity="0.5">
<path opacity="0.5" d="M693.3 1492.72C695.288 1492.72 696.9 1491.11 696.9 1489.12C696.9 1487.13 695.288 1485.52 693.3 1485.52C691.312 1485.52 689.7 1487.13 689.7 1489.12C689.7 1491.11 691.312 1492.72 693.3 1492.72Z" fill="white"/>
</g>
<g opacity="0.5">
<path opacity="0.5" d="M782.8 1446.62C785.23 1446.62 787.2 1444.65 787.2 1442.22C787.2 1439.79 785.23 1437.82 782.8 1437.82C780.37 1437.82 778.4 1439.79 778.4 1442.22C778.4 1444.65 780.37 1446.62 782.8 1446.62Z" fill="white"/>
</g>
<g opacity="0.5">
<path opacity="0.5" d="M810.1 1648.12C812.309 1648.12 814.1 1646.33 814.1 1644.12C814.1 1641.91 812.309 1640.12 810.1 1640.12C807.891 1640.12 806.1 1641.91 806.1 1644.12C806.1 1646.33 807.891 1648.12 810.1 1648.12Z" fill="white"/>
</g>
<g opacity="0.5">
<path opacity="0.5" d="M840 1658.82C842.541 1658.82 844.6 1656.76 844.6 1654.22C844.6 1651.68 842.541 1649.62 840 1649.62C837.459 1649.62 835.4 1651.68 835.4 1654.22C835.4 1656.76 837.459 1658.82 840 1658.82Z" fill="white"/>
</g>
</g>
</g>
<g opacity="0.5">
<g opacity="0.5">
<g opacity="0.5">
<path opacity="0.5" d="M1454.9 373.821C1458.27 373.821 1461 371.09 1461 367.721C1461 364.352 1458.27 361.621 1454.9 361.621C1451.53 361.621 1448.8 364.352 1448.8 367.721C1448.8 371.09 1451.53 373.821 1454.9 373.821Z" fill="white"/>
</g>
<g opacity="0.5">
<path opacity="0.5" d="M1583.6 402.321C1585.81 402.321 1587.6 400.53 1587.6 398.321C1587.6 396.112 1585.81 394.321 1583.6 394.321C1581.39 394.321 1579.6 396.112 1579.6 398.321C1579.6 400.53 1581.39 402.321 1583.6 402.321Z" fill="white"/>
</g>
<g opacity="0.5">
<path opacity="0.5" d="M1557.9 506.321C1560.88 506.321 1563.3 503.904 1563.3 500.921C1563.3 497.939 1560.88 495.521 1557.9 495.521C1554.92 495.521 1552.5 497.939 1552.5 500.921C1552.5 503.904 1554.92 506.321 1557.9 506.321Z" fill="white"/>
</g>
<g opacity="0.5">
<path opacity="0.5" d="M1682.2 506.521C1685.62 506.521 1688.4 503.745 1688.4 500.321C1688.4 496.897 1685.62 494.121 1682.2 494.121C1678.78 494.121 1676 496.897 1676 500.321C1676 503.745 1678.78 506.521 1682.2 506.521Z" fill="white"/>
</g>
<g opacity="0.5">
<path opacity="0.5" d="M1709.6 574.321C1712.58 574.321 1715 571.904 1715 568.921C1715 565.939 1712.58 563.521 1709.6 563.521C1706.62 563.521 1704.2 565.939 1704.2 568.921C1704.2 571.904 1706.62 574.321 1709.6 574.321Z" fill="white"/>
</g>
<g opacity="0.5">
<path opacity="0.5" d="M1609.7 632.121C1612.52 632.121 1614.8 629.838 1614.8 627.021C1614.8 624.205 1612.52 621.921 1609.7 621.921C1606.88 621.921 1604.6 624.205 1604.6 627.021C1604.6 629.838 1606.88 632.121 1609.7 632.121Z" fill="white"/>
</g>
<g opacity="0.5">
<path opacity="0.5" d="M1828.3 755.621C1831.72 755.621 1834.5 752.846 1834.5 749.421C1834.5 745.997 1831.72 743.221 1828.3 743.221C1824.88 743.221 1822.1 745.997 1822.1 749.421C1822.1 752.846 1824.88 755.621 1828.3 755.621Z" fill="white"/>
</g>
<g opacity="0.5">
<path opacity="0.5" d="M1674 611.821C1675.93 611.821 1677.5 610.254 1677.5 608.321C1677.5 606.388 1675.93 604.821 1674 604.821C1672.07 604.821 1670.5 606.388 1670.5 608.321C1670.5 610.254 1672.07 611.821 1674 611.821Z" fill="white"/>
</g>
<g opacity="0.5">
<path opacity="0.5" d="M1553.9 600.721C1557.05 600.721 1559.6 598.169 1559.6 595.021C1559.6 591.873 1557.05 589.321 1553.9 589.321C1550.75 589.321 1548.2 591.873 1548.2 595.021C1548.2 598.169 1550.75 600.721 1553.9 600.721Z" fill="white"/>
</g>
<g opacity="0.5">
<path opacity="0.5" d="M1637.6 742.921C1639.37 742.921 1640.8 741.489 1640.8 739.721C1640.8 737.954 1639.37 736.521 1637.6 736.521C1635.83 736.521 1634.4 737.954 1634.4 739.721C1634.4 741.489 1635.83 742.921 1637.6 742.921Z" fill="white"/>
</g>
<g opacity="0.5">
<path opacity="0.5" d="M1444.8 685.421C1447.62 685.421 1449.9 683.138 1449.9 680.321C1449.9 677.505 1447.62 675.221 1444.8 675.221C1441.98 675.221 1439.7 677.505 1439.7 680.321C1439.7 683.138 1441.98 685.421 1444.8 685.421Z" fill="white"/>
</g>
<g opacity="0.5">
<path opacity="0.5" d="M1362.5 759.721C1365.81 759.721 1368.5 757.035 1368.5 753.721C1368.5 750.407 1365.81 747.721 1362.5 747.721C1359.19 747.721 1356.5 750.407 1356.5 753.721C1356.5 757.035 1359.19 759.721 1362.5 759.721Z" fill="white"/>
</g>
<g opacity="0.5">
<path opacity="0.5" d="M1333.8 1014.52C1335.84 1014.52 1337.5 1012.86 1337.5 1010.82C1337.5 1008.78 1335.84 1007.12 1333.8 1007.12C1331.76 1007.12 1330.1 1008.78 1330.1 1010.82C1330.1 1012.86 1331.76 1014.52 1333.8 1014.52Z" fill="white"/>
</g>
<g opacity="0.5">
<path opacity="0.5" d="M1616.4 925.121C1619.82 925.121 1622.6 922.346 1622.6 918.921C1622.6 915.497 1619.82 912.721 1616.4 912.721C1612.98 912.721 1610.2 915.497 1610.2 918.921C1610.2 922.346 1612.98 925.121 1616.4 925.121Z" fill="white"/>
</g>
<g opacity="0.5">
<path opacity="0.5" d="M1509.7 1042.22C1513.07 1042.22 1515.8 1039.49 1515.8 1036.12C1515.8 1032.75 1513.07 1030.02 1509.7 1030.02C1506.33 1030.02 1503.6 1032.75 1503.6 1036.12C1503.6 1039.49 1506.33 1042.22 1509.7 1042.22Z" fill="white"/>
</g>
<g opacity="0.5">
<path opacity="0.5" d="M1601.9 1061.12C1604.22 1061.12 1606.1 1059.24 1606.1 1056.92C1606.1 1054.6 1604.22 1052.72 1601.9 1052.72C1599.58 1052.72 1597.7 1054.6 1597.7 1056.92C1597.7 1059.24 1599.58 1061.12 1601.9 1061.12Z" fill="white"/>
</g>
<g opacity="0.5">
<path opacity="0.5" d="M1738.5 1101.72C1740.76 1101.72 1742.6 1099.89 1742.6 1097.62C1742.6 1095.36 1740.76 1093.52 1738.5 1093.52C1736.24 1093.52 1734.4 1095.36 1734.4 1097.62C1734.4 1099.89 1736.24 1101.72 1738.5 1101.72Z" fill="white"/>
</g>
<g opacity="0.5">
<path opacity="0.5" d="M1494.5 1294.02C1497.21 1294.02 1499.4 1291.83 1499.4 1289.12C1499.4 1286.41 1497.21 1284.22 1494.5 1284.22C1491.79 1284.22 1489.6 1286.41 1489.6 1289.12C1489.6 1291.83 1491.79 1294.02 1494.5 1294.02Z" fill="white"/>
</g>
<g opacity="0.5">
<path opacity="0.5" d="M1622.9 1299.42C1626.32 1299.42 1629.1 1296.65 1629.1 1293.22C1629.1 1289.8 1626.32 1287.02 1622.9 1287.02C1619.48 1287.02 1616.7 1289.8 1616.7 1293.22C1616.7 1296.65 1619.48 1299.42 1622.9 1299.42Z" fill="white"/>
</g>
<g opacity="0.5">
<path opacity="0.5" d="M1644.3 1406.52C1647.01 1406.52 1649.2 1404.33 1649.2 1401.62C1649.2 1398.91 1647.01 1396.72 1644.3 1396.72C1641.59 1396.72 1639.4 1398.91 1639.4 1401.62C1639.4 1404.33 1641.59 1406.52 1644.3 1406.52Z" fill="white"/>
</g>
<g opacity="0.5">
<path opacity="0.5" d="M1847 1296.12C1850.37 1296.12 1853.1 1293.39 1853.1 1290.02C1853.1 1286.65 1850.37 1283.92 1847 1283.92C1843.63 1283.92 1840.9 1286.65 1840.9 1290.02C1840.9 1293.39 1843.63 1296.12 1847 1296.12Z" fill="white"/>
</g>
<g opacity="0.5">
<path opacity="0.5" d="M1804.9 1453.02C1808.43 1453.02 1811.3 1450.16 1811.3 1446.62C1811.3 1443.09 1808.43 1440.22 1804.9 1440.22C1801.37 1440.22 1798.5 1443.09 1798.5 1446.62C1798.5 1450.16 1801.37 1453.02 1804.9 1453.02Z" fill="white"/>
</g>
<g opacity="0.5">
<path opacity="0.5" d="M1651.4 1623.12C1654.05 1623.12 1656.2 1620.97 1656.2 1618.32C1656.2 1615.67 1654.05 1613.52 1651.4 1613.52C1648.75 1613.52 1646.6 1615.67 1646.6 1618.32C1646.6 1620.97 1648.75 1623.12 1651.4 1623.12Z" fill="white"/>
</g>
<g opacity="0.5">
<path opacity="0.5" d="M1799.2 1441.22C1802.51 1441.22 1805.2 1438.53 1805.2 1435.22C1805.2 1431.91 1802.51 1429.22 1799.2 1429.22C1795.89 1429.22 1793.2 1431.91 1793.2 1435.22C1793.2 1438.53 1795.89 1441.22 1799.2 1441.22Z" fill="white"/>
</g>
<g opacity="0.5">
<path opacity="0.5" d="M1786.6 1449.02C1788.2 1449.02 1789.5 1447.72 1789.5 1446.12C1789.5 1444.52 1788.2 1443.22 1786.6 1443.22C1785 1443.22 1783.7 1444.52 1783.7 1446.12C1783.7 1447.72 1785 1449.02 1786.6 1449.02Z" fill="white"/>
</g>
<g opacity="0.5">
<path opacity="0.5" d="M1688.8 1638.62C1690.73 1638.62 1692.3 1637.05 1692.3 1635.12C1692.3 1633.19 1690.73 1631.62 1688.8 1631.62C1686.87 1631.62 1685.3 1633.19 1685.3 1635.12C1685.3 1637.05 1686.87 1638.62 1688.8 1638.62Z" fill="white"/>
</g>
<g opacity="0.5">
<path opacity="0.5" d="M1638.1 1613.32C1640.47 1613.32 1642.4 1611.4 1642.4 1609.02C1642.4 1606.65 1640.47 1604.72 1638.1 1604.72C1635.73 1604.72 1633.8 1606.65 1633.8 1609.02C1633.8 1611.4 1635.73 1613.32 1638.1 1613.32Z" fill="white"/>
</g>
<g opacity="0.5">
<path opacity="0.5" d="M1543.2 1443.72C1545.41 1443.72 1547.2 1441.93 1547.2 1439.72C1547.2 1437.51 1545.41 1435.72 1543.2 1435.72C1540.99 1435.72 1539.2 1437.51 1539.2 1439.72C1539.2 1441.93 1540.99 1443.72 1543.2 1443.72Z" fill="white"/>
</g>
<g opacity="0.5">
<path opacity="0.5" d="M1470.4 1440.12C1472.72 1440.12 1474.6 1438.24 1474.6 1435.92C1474.6 1433.6 1472.72 1431.72 1470.4 1431.72C1468.08 1431.72 1466.2 1433.6 1466.2 1435.92C1466.2 1438.24 1468.08 1440.12 1470.4 1440.12Z" fill="white"/>
</g>
<g opacity="0.5">
<path opacity="0.5" d="M1381.8 1570.92C1383.95 1570.92 1385.7 1569.18 1385.7 1567.02C1385.7 1564.87 1383.95 1563.12 1381.8 1563.12C1379.65 1563.12 1377.9 1564.87 1377.9 1567.02C1377.9 1569.18 1379.65 1570.92 1381.8 1570.92Z" fill="white"/>
</g>
<g opacity="0.5">
<path opacity="0.5" d="M1255.8 1756.32C1259.45 1756.32 1262.4 1753.37 1262.4 1749.72C1262.4 1746.08 1259.45 1743.12 1255.8 1743.12C1252.15 1743.12 1249.2 1746.08 1249.2 1749.72C1249.2 1753.37 1252.15 1756.32 1255.8 1756.32Z" fill="white"/>
</g>
<g opacity="0.5">
<path opacity="0.5" d="M1166.1 1623.62C1168.86 1623.62 1171.1 1621.38 1171.1 1618.62C1171.1 1615.86 1168.86 1613.62 1166.1 1613.62C1163.34 1613.62 1161.1 1615.86 1161.1 1618.62C1161.1 1621.38 1163.34 1623.62 1166.1 1623.62Z" fill="white"/>
</g>
<g opacity="0.5">
<path opacity="0.5" d="M1109.7 1712.22C1112.41 1712.22 1114.6 1710.03 1114.6 1707.32C1114.6 1704.62 1112.41 1702.42 1109.7 1702.42C1106.99 1702.42 1104.8 1704.62 1104.8 1707.32C1104.8 1710.03 1106.99 1712.22 1109.7 1712.22Z" fill="white"/>
</g>
<g opacity="0.5">
<path opacity="0.5" d="M1096 1475.62C1098.43 1475.62 1100.4 1473.65 1100.4 1471.22C1100.4 1468.79 1098.43 1466.82 1096 1466.82C1093.57 1466.82 1091.6 1468.79 1091.6 1471.22C1091.6 1473.65 1093.57 1475.62 1096 1475.62Z" fill="white"/>
</g>
<g opacity="0.5">
<path opacity="0.5" d="M1025.9 1701.42C1028.66 1701.42 1030.9 1699.18 1030.9 1696.42C1030.9 1693.66 1028.66 1691.42 1025.9 1691.42C1023.14 1691.42 1020.9 1693.66 1020.9 1696.42C1020.9 1699.18 1023.14 1701.42 1025.9 1701.42Z" fill="white"/>
</g>
</g>
</g>
<path d="M946.5 1824.92C497.2 1824.92 133 1460.72 133 1011.42C133 562.121 497.2 197.921 946.5 197.921C1395.8 197.921 1760 562.121 1760 1011.42C1760 1460.72 1395.8 1824.92 946.5 1824.92Z" fill="#2B263A"/>
<path d="M139.5 1010.92H1758.5" stroke="#130E24" stroke-miterlimit="10"/>
<path d="M591.2 688.721C593.63 688.721 595.6 686.751 595.6 684.321C595.6 681.891 593.63 679.921 591.2 679.921C588.77 679.921 586.8 681.891 586.8 684.321C586.8 686.751 588.77 688.721 591.2 688.721Z" fill="#130E24"/>
<path d="M689.4 391.421C692.051 391.421 694.2 389.272 694.2 386.621C694.2 383.97 692.051 381.821 689.4 381.821C686.749 381.821 684.6 383.97 684.6 386.621C684.6 389.272 686.749 391.421 689.4 391.421Z" fill="#130E24"/>
<path d="M688.2 656.421C690.63 656.421 692.6 654.451 692.6 652.021C692.6 649.591 690.63 647.621 688.2 647.621C685.77 647.621 683.8 649.591 683.8 652.021C683.8 654.451 685.77 656.421 688.2 656.421Z" fill="#130E24"/>
<path d="M750 739.321C753.258 739.321 755.9 736.68 755.9 733.421C755.9 730.163 753.258 727.521 750 727.521C746.742 727.521 744.1 730.163 744.1 733.421C744.1 736.68 746.742 739.321 750 739.321Z" fill="#130E24"/>
<path d="M900.5 577.521C902.985 577.521 905 575.507 905 573.021C905 570.536 902.985 568.521 900.5 568.521C898.015 568.521 896 570.536 896 573.021C896 575.507 898.015 577.521 900.5 577.521Z" fill="#130E24"/>
<path d="M766 168.321C768.43 168.321 770.4 166.351 770.4 163.921C770.4 161.491 768.43 159.521 766 159.521C763.57 159.521 761.6 161.491 761.6 163.921C761.6 166.351 763.57 168.321 766 168.321Z" fill="#130E24"/>
<path d="M1074 656.021C1077.53 656.021 1080.4 653.156 1080.4 649.621C1080.4 646.087 1077.53 643.221 1074 643.221C1070.47 643.221 1067.6 646.087 1067.6 649.621C1067.6 653.156 1070.47 656.021 1074 656.021Z" fill="#130E24"/>
<path d="M765.2 37.4214C767.575 37.4214 769.5 35.4962 769.5 33.1213C769.5 30.7465 767.575 28.8213 765.2 28.8213C762.825 28.8213 760.9 30.7465 760.9 33.1213C760.9 35.4962 762.825 37.4214 765.2 37.4214Z" fill="#130E24"/>
<path d="M1104.2 537.021C1107.18 537.021 1109.6 534.604 1109.6 531.621C1109.6 528.639 1107.18 526.221 1104.2 526.221C1101.22 526.221 1098.8 528.639 1098.8 531.621C1098.8 534.604 1101.22 537.021 1104.2 537.021Z" fill="#130E24"/>
<path d="M918 106.421C920.43 106.421 922.4 104.451 922.4 102.021C922.4 99.5912 920.43 97.6213 918 97.6213C915.57 97.6213 913.6 99.5912 913.6 102.021C913.6 104.451 915.57 106.421 918 106.421Z" fill="#130E24"/>
<path d="M910 8.62134C912.264 8.62134 914.1 6.78561 914.1 4.52124C914.1 2.25687 912.264 0.421387 910 0.421387C907.736 0.421387 905.9 2.25687 905.9 4.52124C905.9 6.78561 907.736 8.62134 910 8.62134Z" fill="#130E24"/>
<path d="M786.1 446.221C789.579 446.221 792.4 443.401 792.4 439.921C792.4 436.442 789.579 433.621 786.1 433.621C782.621 433.621 779.8 436.442 779.8 439.921C779.8 443.401 782.621 446.221 786.1 446.221Z" fill="#130E24"/>
<path d="M1427.6 222.321C1431.25 222.321 1434.2 219.366 1434.2 215.721C1434.2 212.076 1431.25 209.121 1427.6 209.121C1423.95 209.121 1421 212.076 1421 215.721C1421 219.366 1423.95 222.321 1427.6 222.321Z" fill="#130E24"/>
<path d="M883.4 541.221C885.112 541.221 886.5 539.833 886.5 538.121C886.5 536.409 885.112 535.021 883.4 535.021C881.688 535.021 880.3 536.409 880.3 538.121C880.3 539.833 881.688 541.221 883.4 541.221Z" fill="#130E24"/>
<path d="M1264.8 437.421C1266.57 437.421 1268 435.989 1268 434.221C1268 432.454 1266.57 431.021 1264.8 431.021C1263.03 431.021 1261.6 432.454 1261.6 434.221C1261.6 435.989 1263.03 437.421 1264.8 437.421Z" fill="#130E24"/>
<path d="M1059.1 596.221C1061.53 596.221 1063.5 594.251 1063.5 591.821C1063.5 589.391 1061.53 587.421 1059.1 587.421C1056.67 587.421 1054.7 589.391 1054.7 591.821C1054.7 594.251 1056.67 596.221 1059.1 596.221Z" fill="#130E24"/>
<path d="M1496.1 453.721C1499.75 453.721 1502.7 450.766 1502.7 447.121C1502.7 443.476 1499.75 440.521 1496.1 440.521C1492.45 440.521 1489.5 443.476 1489.5 447.121C1489.5 450.766 1492.45 453.721 1496.1 453.721Z" fill="#130E24"/>
<path d="M1510.2 472.221C1512.41 472.221 1514.2 470.43 1514.2 468.221C1514.2 466.012 1512.41 464.221 1510.2 464.221C1507.99 464.221 1506.2 466.012 1506.2 468.221C1506.2 470.43 1507.99 472.221 1510.2 472.221Z" fill="#130E24"/>
<path d="M1407.4 479.421C1410.6 479.421 1413.2 476.825 1413.2 473.621C1413.2 470.418 1410.6 467.821 1407.4 467.821C1404.2 467.821 1401.6 470.418 1401.6 473.621C1401.6 476.825 1404.2 479.421 1407.4 479.421Z" fill="#130E24"/>
<path d="M1152.8 942.521C1156.06 942.521 1158.7 939.88 1158.7 936.621C1158.7 933.363 1156.06 930.721 1152.8 930.721C1149.54 930.721 1146.9 933.363 1146.9 936.621C1146.9 939.88 1149.54 942.521 1152.8 942.521Z" fill="#130E24"/>
<path d="M1248.9 951.521C1251.5 951.521 1253.6 949.417 1253.6 946.821C1253.6 944.226 1251.5 942.121 1248.9 942.121C1246.3 942.121 1244.2 944.226 1244.2 946.821C1244.2 949.417 1246.3 951.521 1248.9 951.521Z" fill="#130E24"/>
<path d="M1528.1 653.521C1530.92 653.521 1533.2 651.238 1533.2 648.421C1533.2 645.605 1530.92 643.321 1528.1 643.321C1525.28 643.321 1523 645.605 1523 648.421C1523 651.238 1525.28 653.521 1528.1 653.521Z" fill="#130E24"/>
<path d="M1403.6 912.921C1405.64 912.921 1407.3 911.265 1407.3 909.221C1407.3 907.178 1405.64 905.521 1403.6 905.521C1401.56 905.521 1399.9 907.178 1399.9 909.221C1399.9 911.265 1401.56 912.921 1403.6 912.921Z" fill="#130E24"/>
<path d="M1699.9 585.921C1701.61 585.921 1703 584.533 1703 582.821C1703 581.109 1701.61 579.721 1699.9 579.721C1698.19 579.721 1696.8 581.109 1696.8 582.821C1696.8 584.533 1698.19 585.921 1699.9 585.921Z" fill="#130E24"/>
<path d="M1497.5 973.521C1500.15 973.521 1502.3 971.372 1502.3 968.721C1502.3 966.07 1500.15 963.921 1497.5 963.921C1494.85 963.921 1492.7 966.07 1492.7 968.721C1492.7 971.372 1494.85 973.521 1497.5 973.521Z" fill="#130E24"/>
<path d="M1450.9 706.521C1453.16 706.521 1455 704.686 1455 702.421C1455 700.157 1453.16 698.321 1450.9 698.321C1448.64 698.321 1446.8 700.157 1446.8 702.421C1446.8 704.686 1448.64 706.521 1450.9 706.521Z" fill="#130E24"/>
<path d="M1374.7 688.321C1377.19 688.321 1379.2 686.307 1379.2 683.821C1379.2 681.336 1377.19 679.321 1374.7 679.321C1372.21 679.321 1370.2 681.336 1370.2 683.821C1370.2 686.307 1372.21 688.321 1374.7 688.321Z" fill="#130E24"/>
<path d="M1433.1 844.621C1435.14 844.621 1436.8 842.965 1436.8 840.921C1436.8 838.878 1435.14 837.221 1433.1 837.221C1431.06 837.221 1429.4 838.878 1429.4 840.921C1429.4 842.965 1431.06 844.621 1433.1 844.621Z" fill="#130E24"/>
<path d="M1270.3 745.421C1273.17 745.421 1275.5 743.093 1275.5 740.221C1275.5 737.349 1273.17 735.021 1270.3 735.021C1267.43 735.021 1265.1 737.349 1265.1 740.221C1265.1 743.093 1267.43 745.421 1270.3 745.421Z" fill="#130E24"/>
<path d="M1313.5 812.821C1315.49 812.821 1317.1 811.209 1317.1 809.221C1317.1 807.233 1315.49 805.621 1313.5 805.621C1311.51 805.621 1309.9 807.233 1309.9 809.221C1309.9 811.209 1311.51 812.821 1313.5 812.821Z" fill="#130E24"/>
<path d="M1553.1 1139.62C1556.75 1139.62 1559.7 1136.67 1559.7 1133.02C1559.7 1129.38 1556.75 1126.42 1553.1 1126.42C1549.45 1126.42 1546.5 1129.38 1546.5 1133.02C1546.5 1136.67 1549.45 1139.62 1553.1 1139.62Z" fill="#130E24"/>
<path d="M1605.3 1231.92C1606.96 1231.92 1608.3 1230.58 1608.3 1228.92C1608.3 1227.26 1606.96 1225.92 1605.3 1225.92C1603.64 1225.92 1602.3 1227.26 1602.3 1228.92C1602.3 1230.58 1603.64 1231.92 1605.3 1231.92Z" fill="#130E24"/>
<path d="M1579.9 1329.02C1583.27 1329.02 1586 1326.29 1586 1322.92C1586 1319.55 1583.27 1316.82 1579.9 1316.82C1576.53 1316.82 1573.8 1319.55 1573.8 1322.92C1573.8 1326.29 1576.53 1329.02 1579.9 1329.02Z" fill="#130E24"/>
<path d="M1240.8 1107.72C1243.95 1107.72 1246.5 1105.17 1246.5 1102.02C1246.5 1098.87 1243.95 1096.32 1240.8 1096.32C1237.65 1096.32 1235.1 1098.87 1235.1 1102.02C1235.1 1105.17 1237.65 1107.72 1240.8 1107.72Z" fill="#130E24"/>
<path d="M1340.6 1207.52C1342.75 1207.52 1344.5 1205.78 1344.5 1203.62C1344.5 1201.47 1342.75 1199.72 1340.6 1199.72C1338.45 1199.72 1336.7 1201.47 1336.7 1203.62C1336.7 1205.78 1338.45 1207.52 1340.6 1207.52Z" fill="#130E24"/>
<path d="M1081.2 1353.72C1083.96 1353.72 1086.2 1351.48 1086.2 1348.72C1086.2 1345.96 1083.96 1343.72 1081.2 1343.72C1078.44 1343.72 1076.2 1345.96 1076.2 1348.72C1076.2 1351.48 1078.44 1353.72 1081.2 1353.72Z" fill="#130E24"/>
<path d="M1127.3 1404.82C1129.01 1404.82 1130.4 1403.43 1130.4 1401.72C1130.4 1400.01 1129.01 1398.62 1127.3 1398.62C1125.59 1398.62 1124.2 1400.01 1124.2 1401.72C1124.2 1403.43 1125.59 1404.82 1127.3 1404.82Z" fill="#130E24"/>
<path d="M1466.9 1421.72C1470.54 1421.72 1473.5 1418.77 1473.5 1415.12C1473.5 1411.48 1470.54 1408.52 1466.9 1408.52C1463.25 1408.52 1460.3 1411.48 1460.3 1415.12C1460.3 1418.77 1463.25 1421.72 1466.9 1421.72Z" fill="#130E24"/>
<path d="M1255.4 1482.92C1258.44 1482.92 1260.9 1480.46 1260.9 1477.42C1260.9 1474.38 1258.44 1471.92 1255.4 1471.92C1252.36 1471.92 1249.9 1474.38 1249.9 1477.42C1249.9 1480.46 1252.36 1482.92 1255.4 1482.92Z" fill="#130E24"/>
<path d="M1341 1545.12C1344.15 1545.12 1346.7 1542.57 1346.7 1539.42C1346.7 1536.27 1344.15 1533.72 1341 1533.72C1337.85 1533.72 1335.3 1536.27 1335.3 1539.42C1335.3 1542.57 1337.85 1545.12 1341 1545.12Z" fill="#130E24"/>
<path d="M1085.3 1723.02C1087.9 1723.02 1090 1720.92 1090 1718.32C1090 1715.73 1087.9 1713.62 1085.3 1713.62C1082.7 1713.62 1080.6 1715.73 1080.6 1718.32C1080.6 1720.92 1082.7 1723.02 1085.3 1723.02Z" fill="#130E24"/>
<path d="M1097.4 1664.92C1099.06 1664.92 1100.4 1663.58 1100.4 1661.92C1100.4 1660.26 1099.06 1658.92 1097.4 1658.92C1095.74 1658.92 1094.4 1660.26 1094.4 1661.92C1094.4 1663.58 1095.74 1664.92 1097.4 1664.92Z" fill="#130E24"/>
<path d="M1347.2 1385.72C1350.79 1385.72 1353.7 1382.81 1353.7 1379.22C1353.7 1375.63 1350.79 1372.72 1347.2 1372.72C1343.61 1372.72 1340.7 1375.63 1340.7 1379.22C1340.7 1382.81 1343.61 1385.72 1347.2 1385.72Z" fill="#130E24"/>
<path d="M1123.8 1507.92C1126.51 1507.92 1128.7 1505.73 1128.7 1503.02C1128.7 1500.32 1126.51 1498.12 1123.8 1498.12C1121.09 1498.12 1118.9 1500.32 1118.9 1503.02C1118.9 1505.73 1121.09 1507.92 1123.8 1507.92Z" fill="#130E24"/>
<path d="M995.6 1601.02C998.859 1601.02 1001.5 1598.38 1001.5 1595.12C1001.5 1591.86 998.859 1589.22 995.6 1589.22C992.342 1589.22 989.7 1591.86 989.7 1595.12C989.7 1598.38 992.342 1601.02 995.6 1601.02Z" fill="#130E24"/>
<path d="M1175.2 1367.62C1176.91 1367.62 1178.3 1366.23 1178.3 1364.52C1178.3 1362.81 1176.91 1361.42 1175.2 1361.42C1173.49 1361.42 1172.1 1362.81 1172.1 1364.52C1172.1 1366.23 1173.49 1367.62 1175.2 1367.62Z" fill="#130E24"/>
<path d="M1058.1 1387.62C1060.64 1387.62 1062.7 1385.56 1062.7 1383.02C1062.7 1380.48 1060.64 1378.42 1058.1 1378.42C1055.56 1378.42 1053.5 1380.48 1053.5 1383.02C1053.5 1385.56 1055.56 1387.62 1058.1 1387.62Z" fill="#130E24"/>
<path d="M1207.7 1216.02C1210.13 1216.02 1212.1 1214.05 1212.1 1211.62C1212.1 1209.19 1210.13 1207.22 1207.7 1207.22C1205.27 1207.22 1203.3 1209.19 1203.3 1211.62C1203.3 1214.05 1205.27 1216.02 1207.7 1216.02Z" fill="#130E24"/>
<path d="M1333.2 1031.02C1336.46 1031.02 1339.1 1028.38 1339.1 1025.12C1339.1 1021.86 1336.46 1019.22 1333.2 1019.22C1329.94 1019.22 1327.3 1021.86 1327.3 1025.12C1327.3 1028.38 1329.94 1031.02 1333.2 1031.02Z" fill="#130E24"/>
<path d="M1095.7 1391.62C1097.41 1391.62 1098.8 1390.23 1098.8 1388.52C1098.8 1386.81 1097.41 1385.42 1095.7 1385.42C1093.99 1385.42 1092.6 1386.81 1092.6 1388.52C1092.6 1390.23 1093.99 1391.62 1095.7 1391.62Z" fill="#130E24"/>
<path d="M1037.3 1389.52C1039.9 1389.52 1042 1387.42 1042 1384.82C1042 1382.23 1039.9 1380.12 1037.3 1380.12C1034.7 1380.12 1032.6 1382.23 1032.6 1384.82C1032.6 1387.42 1034.7 1389.52 1037.3 1389.52Z" fill="#130E24"/>
<path d="M1111.1 1600.52C1114.75 1600.52 1117.7 1597.57 1117.7 1593.92C1117.7 1590.28 1114.75 1587.32 1111.1 1587.32C1107.45 1587.32 1104.5 1590.28 1104.5 1593.92C1104.5 1597.57 1107.45 1600.52 1111.1 1600.52Z" fill="#130E24"/>
<path d="M843.1 1341.52C846.138 1341.52 848.6 1339.06 848.6 1336.02C848.6 1332.98 846.138 1330.52 843.1 1330.52C840.062 1330.52 837.6 1332.98 837.6 1336.02C837.6 1339.06 840.062 1341.52 843.1 1341.52Z" fill="#130E24"/>
<path d="M760.7 1255.12C763.185 1255.12 765.2 1253.11 765.2 1250.62C765.2 1248.14 763.185 1246.12 760.7 1246.12C758.215 1246.12 756.2 1248.14 756.2 1250.62C756.2 1253.11 758.215 1255.12 760.7 1255.12Z" fill="#130E24"/>
<path d="M915 1551.02C917.982 1551.02 920.4 1548.6 920.4 1545.62C920.4 1542.64 917.982 1540.22 915 1540.22C912.018 1540.22 909.6 1542.64 909.6 1545.62C909.6 1548.6 912.018 1551.02 915 1551.02Z" fill="#130E24"/>
<path d="M698.7 1371.52C700.688 1371.52 702.3 1369.91 702.3 1367.92C702.3 1365.93 700.688 1364.32 698.7 1364.32C696.712 1364.32 695.1 1365.93 695.1 1367.92C695.1 1369.91 696.712 1371.52 698.7 1371.52Z" fill="#130E24"/>
<path d="M745.3 1536.52C747.896 1536.52 750 1534.42 750 1531.82C750 1529.23 747.896 1527.12 745.3 1527.12C742.704 1527.12 740.6 1529.23 740.6 1531.82C740.6 1534.42 742.704 1536.52 745.3 1536.52Z" fill="#130E24"/>
<path d="M557.2 1380.42C560.017 1380.42 562.3 1378.14 562.3 1375.32C562.3 1372.5 560.017 1370.22 557.2 1370.22C554.383 1370.22 552.1 1372.5 552.1 1375.32C552.1 1378.14 554.383 1380.42 557.2 1380.42Z" fill="#130E24"/>
<path d="M816.4 1830.22C819.935 1830.22 822.8 1827.36 822.8 1823.82C822.8 1820.29 819.935 1817.42 816.4 1817.42C812.865 1817.42 810 1820.29 810 1823.82C810 1827.36 812.865 1830.22 816.4 1830.22Z" fill="#130E24"/>
<path d="M564.9 1576.82C567.772 1576.82 570.1 1574.49 570.1 1571.62C570.1 1568.75 567.772 1566.42 564.9 1566.42C562.028 1566.42 559.7 1568.75 559.7 1571.62C559.7 1574.49 562.028 1576.82 564.9 1576.82Z" fill="#130E24"/>
<path d="M203.7 1588.42C207.124 1588.42 209.9 1585.65 209.9 1582.22C209.9 1578.8 207.124 1576.02 203.7 1576.02C200.276 1576.02 197.5 1578.8 197.5 1582.22C197.5 1585.65 200.276 1588.42 203.7 1588.42Z" fill="#130E24"/>
<path d="M791.6 1600.22C793.423 1600.22 794.9 1598.74 794.9 1596.92C794.9 1595.1 793.423 1593.62 791.6 1593.62C789.777 1593.62 788.3 1595.1 788.3 1596.92C788.3 1598.74 789.777 1600.22 791.6 1600.22Z" fill="#130E24"/>
<path d="M464.9 1534.02C467.109 1534.02 468.9 1532.23 468.9 1530.02C468.9 1527.81 467.109 1526.02 464.9 1526.02C462.691 1526.02 460.9 1527.81 460.9 1530.02C460.9 1532.23 462.691 1534.02 464.9 1534.02Z" fill="#130E24"/>
<path d="M252.1 1423.92C253.812 1423.92 255.2 1422.53 255.2 1420.82C255.2 1419.11 253.812 1417.72 252.1 1417.72C250.388 1417.72 249 1419.11 249 1420.82C249 1422.53 250.388 1423.92 252.1 1423.92Z" fill="#130E24"/>
<path d="M458.1 1371.22C461.248 1371.22 463.8 1368.67 463.8 1365.52C463.8 1362.37 461.248 1359.82 458.1 1359.82C454.952 1359.82 452.4 1362.37 452.4 1365.52C452.4 1368.67 454.952 1371.22 458.1 1371.22Z" fill="#130E24"/>
<path d="M907.6 1338.52C910.914 1338.52 913.6 1335.84 913.6 1332.52C913.6 1329.21 910.914 1326.52 907.6 1326.52C904.286 1326.52 901.6 1329.21 901.6 1332.52C901.6 1335.84 904.286 1338.52 907.6 1338.52Z" fill="#130E24"/>
<path d="M455.8 1323.22C458.341 1323.22 460.4 1321.16 460.4 1318.62C460.4 1316.08 458.341 1314.02 455.8 1314.02C453.26 1314.02 451.2 1316.08 451.2 1318.62C451.2 1321.16 453.26 1323.22 455.8 1323.22Z" fill="#130E24"/>
<path d="M418.2 1305.42C421.182 1305.42 423.6 1303 423.6 1300.02C423.6 1297.04 421.182 1294.62 418.2 1294.62C415.218 1294.62 412.8 1297.04 412.8 1300.02C412.8 1303 415.218 1305.42 418.2 1305.42Z" fill="#130E24"/>
<path d="M826.4 962.321C829.769 962.321 832.5 959.59 832.5 956.221C832.5 952.852 829.769 950.121 826.4 950.121C823.031 950.121 820.3 952.852 820.3 956.221C820.3 959.59 823.031 962.321 826.4 962.321Z" fill="#130E24"/>
<path d="M713.6 976.621C715.643 976.621 717.3 974.965 717.3 972.921C717.3 970.878 715.643 969.221 713.6 969.221C711.557 969.221 709.9 970.878 709.9 972.921C709.9 974.965 711.557 976.621 713.6 976.621Z" fill="#130E24"/>
<path d="M696.2 895.621C698.63 895.621 700.6 893.651 700.6 891.221C700.6 888.791 698.63 886.821 696.2 886.821C693.77 886.821 691.8 888.791 691.8 891.221C691.8 893.651 693.77 895.621 696.2 895.621Z" fill="#130E24"/>
<path d="M246.5 1122.92C249.593 1122.92 252.1 1120.41 252.1 1117.32C252.1 1114.23 249.593 1111.72 246.5 1111.72C243.407 1111.72 240.9 1114.23 240.9 1117.32C240.9 1120.41 243.407 1122.92 246.5 1122.92Z" fill="#130E24"/>
<path d="M605.5 806.621C608.317 806.621 610.6 804.338 610.6 801.521C610.6 798.705 608.317 796.421 605.5 796.421C602.683 796.421 600.4 798.705 600.4 801.521C600.4 804.338 602.683 806.621 605.5 806.621Z" fill="#130E24"/>
<path d="M338.2 933.221C340.685 933.221 342.7 931.206 342.7 928.721C342.7 926.236 340.685 924.221 338.2 924.221C335.715 924.221 333.7 926.236 333.7 928.721C333.7 931.206 335.715 933.221 338.2 933.221Z" fill="#130E24"/>
<path d="M203.2 977.321C205.52 977.321 207.4 975.441 207.4 973.121C207.4 970.802 205.52 968.921 203.2 968.921C200.88 968.921 199 970.802 199 973.121C199 975.441 200.88 977.321 203.2 977.321Z" fill="#130E24"/>
<path d="M224.6 704.921C227.085 704.921 229.1 702.907 229.1 700.421C229.1 697.936 227.085 695.921 224.6 695.921C222.115 695.921 220.1 697.936 220.1 700.421C220.1 702.907 222.115 704.921 224.6 704.921Z" fill="#130E24"/>
<path d="M206.8 600.721C209.506 600.721 211.7 598.527 211.7 595.821C211.7 593.115 209.506 590.921 206.8 590.921C204.094 590.921 201.9 593.115 201.9 595.821C201.9 598.527 204.094 600.721 206.8 600.721Z" fill="#130E24"/>
<path d="M475.9 845.721C478.22 845.721 480.1 843.841 480.1 841.521C480.1 839.202 478.22 837.321 475.9 837.321C473.58 837.321 471.7 839.202 471.7 841.521C471.7 843.841 473.58 845.721 475.9 845.721Z" fill="#130E24"/>
<path d="M432.6 718.721C434.809 718.721 436.6 716.93 436.6 714.721C436.6 712.512 434.809 710.721 432.6 710.721C430.391 710.721 428.6 712.512 428.6 714.721C428.6 716.93 430.391 718.721 432.6 718.721Z" fill="#130E24"/>
<path d="M664.5 1008.62C668.035 1008.62 670.9 1005.76 670.9 1002.22C670.9 998.687 668.035 995.821 664.5 995.821C660.965 995.821 658.1 998.687 658.1 1002.22C658.1 1005.76 660.965 1008.62 664.5 1008.62Z" fill="#130E24"/>
<path d="M642.3 920.721C644.399 920.721 646.1 919.02 646.1 916.921C646.1 914.823 644.399 913.121 642.3 913.121C640.201 913.121 638.5 914.823 638.5 916.921C638.5 919.02 640.201 920.721 642.3 920.721Z" fill="#130E24"/>
<path d="M627.8 772.521C630.009 772.521 631.8 770.73 631.8 768.521C631.8 766.312 630.009 764.521 627.8 764.521C625.591 764.521 623.8 766.312 623.8 768.521C623.8 770.73 625.591 772.521 627.8 772.521Z" fill="#130E24"/>
<path d="M497.7 514.321C500.13 514.321 502.1 512.351 502.1 509.921C502.1 507.491 500.13 505.521 497.7 505.521C495.27 505.521 493.3 507.491 493.3 509.921C493.3 512.351 495.27 514.321 497.7 514.321Z" fill="#130E24"/>
<path d="M445.3 399.321C448.558 399.321 451.2 396.68 451.2 393.421C451.2 390.163 448.558 387.521 445.3 387.521C442.042 387.521 439.4 390.163 439.4 393.421C439.4 396.68 442.042 399.321 445.3 399.321Z" fill="#130E24"/>
<path d="M580.1 440.021C582.143 440.021 583.8 438.365 583.8 436.321C583.8 434.278 582.143 432.621 580.1 432.621C578.057 432.621 576.4 434.278 576.4 436.321C576.4 438.365 578.057 440.021 580.1 440.021Z" fill="#130E24"/>
<path d="M520.9 704.821C523.164 704.821 525 702.986 525 700.721C525 698.457 523.164 696.621 520.9 696.621C518.636 696.621 516.8 698.457 516.8 700.721C516.8 702.986 518.636 704.821 520.9 704.821Z" fill="#130E24"/>
<path d="M527.1 655.421C529.364 655.421 531.2 653.586 531.2 651.321C531.2 649.057 529.364 647.221 527.1 647.221C524.836 647.221 523 649.057 523 651.321C523 653.586 524.836 655.421 527.1 655.421Z" fill="#130E24"/>
<path d="M407.5 693.621C410.096 693.621 412.2 691.517 412.2 688.921C412.2 686.326 410.096 684.221 407.5 684.221C404.904 684.221 402.8 686.326 402.8 688.921C402.8 691.517 404.904 693.621 407.5 693.621Z" fill="#130E24"/>
<path d="M775.4 383.021C777.278 383.021 778.8 381.499 778.8 379.621C778.8 377.744 777.278 376.221 775.4 376.221C773.522 376.221 772 377.744 772 379.621C772 381.499 773.522 383.021 775.4 383.021Z" fill="#130E24"/>
<path d="M422.7 559.421C425.02 559.421 426.9 557.541 426.9 555.221C426.9 552.902 425.02 551.021 422.7 551.021C420.38 551.021 418.5 552.902 418.5 555.221C418.5 557.541 420.38 559.421 422.7 559.421Z" fill="#130E24"/>
<path d="M716.7 288.421C720.345 288.421 723.3 285.466 723.3 281.821C723.3 278.176 720.345 275.221 716.7 275.221C713.055 275.221 710.1 278.176 710.1 281.821C710.1 285.466 713.055 288.421 716.7 288.421Z" fill="#130E24"/>
<path d="M946.5 1635.42C601.9 1635.42 322.5 1356.02 322.5 1011.42C322.5 666.821 601.9 387.421 946.5 387.421C1291.1 387.421 1570.5 666.821 1570.5 1011.42C1570.5 1356.12 1291.1 1635.42 946.5 1635.42Z" stroke="#130E24" stroke-miterlimit="10"/>
<path d="M376.6 438.521L1521.4 1583.32" stroke="#130E24" stroke-miterlimit="10"/>
<path d="M376.6 1583.32L1521.4 438.521" stroke="#130E24" stroke-miterlimit="10"/>
<path d="M949 201.421V1820.42" stroke="#130E24" stroke-miterlimit="10"/>
</svg>
